<mxfile host="app.diagrams.net" modified="2023-12-22T14:22:10.071Z" agent="Mozilla/5.0 (Windows NT 10.0; Win64; x64) AppleWebKit/537.36 (KHTML, like Gecko) Chrome/120.0.0.0 Safari/537.36" etag="v_ydIiFbensfYi1xKMbi" version="22.1.11" type="device">
  <diagram name="Page-1" id="hNqnSLbhS0N5giPUthfY">
    <mxGraphModel dx="3195" dy="2113" grid="1" gridSize="10" guides="1" tooltips="1" connect="1" arrows="1" fold="1" page="1" pageScale="1" pageWidth="850" pageHeight="1100" math="0" shadow="0">
      <root>
        <mxCell id="0" />
        <mxCell id="1" parent="0" />
        <mxCell id="SjoaXMamBfVHpwQWyRi_-1" value="&amp;lt;&amp;lt;Entity&amp;gt;&amp;gt;&lt;br&gt;Vigilância" style="rounded=0;whiteSpace=wrap;html=1;" parent="1" vertex="1">
          <mxGeometry x="136.75" y="668.74" width="120" height="60" as="geometry" />
        </mxCell>
        <mxCell id="SjoaXMamBfVHpwQWyRi_-2" value="&amp;lt;&amp;lt;Value Object&amp;gt;&amp;gt;&lt;br style=&quot;border-color: var(--border-color);&quot;&gt;Tipo deTarefa" style="rounded=0;whiteSpace=wrap;html=1;" parent="1" vertex="1">
          <mxGeometry x="780" y="830" width="120" height="60" as="geometry" />
        </mxCell>
        <mxCell id="SjoaXMamBfVHpwQWyRi_-7" value="&amp;lt;&amp;lt;Root&amp;gt;&amp;gt;&lt;br&gt;&amp;lt;&amp;lt;Entity&amp;gt;&amp;gt;&lt;br&gt;Dispositivo" style="rounded=0;whiteSpace=wrap;html=1;" parent="1" vertex="1">
          <mxGeometry x="730" y="495" width="120" height="60" as="geometry" />
        </mxCell>
        <mxCell id="SjoaXMamBfVHpwQWyRi_-15" value="" style="endArrow=classic;html=1;rounded=0;entryX=0.427;entryY=0.016;entryDx=0;entryDy=0;exitX=0.5;exitY=1;exitDx=0;exitDy=0;entryPerimeter=0;" parent="1" source="SjoaXMamBfVHpwQWyRi_-7" target="SjoaXMamBfVHpwQWyRi_-16" edge="1">
          <mxGeometry width="50" height="50" relative="1" as="geometry">
            <mxPoint x="800" y="540" as="sourcePoint" />
            <mxPoint x="510" y="410" as="targetPoint" />
          </mxGeometry>
        </mxCell>
        <mxCell id="aEiqSQbRGJfppAIkEAZI-47" value="é de" style="edgeLabel;html=1;align=center;verticalAlign=middle;resizable=0;points=[];labelBackgroundColor=none;" parent="SjoaXMamBfVHpwQWyRi_-15" vertex="1" connectable="0">
          <mxGeometry x="-0.0384" y="-2" relative="1" as="geometry">
            <mxPoint x="14" y="-8" as="offset" />
          </mxGeometry>
        </mxCell>
        <mxCell id="SjoaXMamBfVHpwQWyRi_-16" value="&amp;lt;&amp;lt;Root&amp;gt;&amp;gt;&lt;br&gt;&amp;lt;&amp;lt;Entity&amp;gt;&amp;gt;&lt;br style=&quot;border-color: var(--border-color);&quot;&gt;Tipo de Dispositivo" style="rounded=0;whiteSpace=wrap;html=1;" parent="1" vertex="1">
          <mxGeometry x="740" y="670" width="120" height="60" as="geometry" />
        </mxCell>
        <mxCell id="SjoaXMamBfVHpwQWyRi_-17" value="&amp;lt;&amp;lt;Root&amp;gt;&amp;gt;&lt;br&gt;&amp;lt;&amp;lt;Entity&amp;gt;&amp;gt;&lt;br&gt;Mapa" style="rounded=0;whiteSpace=wrap;html=1;" parent="1" vertex="1">
          <mxGeometry x="595" y="135" width="120" height="60" as="geometry" />
        </mxCell>
        <mxCell id="SjoaXMamBfVHpwQWyRi_-21" value="&amp;lt;&amp;lt;Value Object&amp;gt;&amp;gt;&lt;br&gt;CoordenadasPassagem" style="rounded=0;whiteSpace=wrap;html=1;" parent="1" vertex="1">
          <mxGeometry x="850" y="155" width="140" height="60" as="geometry" />
        </mxCell>
        <mxCell id="SjoaXMamBfVHpwQWyRi_-29" value="" style="endArrow=classic;html=1;rounded=0;entryX=0;entryY=0.5;entryDx=0;entryDy=0;exitX=1;exitY=0.5;exitDx=0;exitDy=0;" parent="1" source="T1alL_IBdGlgNFhujSgj-2" target="SjoaXMamBfVHpwQWyRi_-17" edge="1">
          <mxGeometry width="50" height="50" relative="1" as="geometry">
            <mxPoint x="710" y="490" as="sourcePoint" />
            <mxPoint x="390" y="250" as="targetPoint" />
            <Array as="points" />
          </mxGeometry>
        </mxCell>
        <mxCell id="aEiqSQbRGJfppAIkEAZI-39" value="tem" style="edgeLabel;html=1;align=center;verticalAlign=middle;resizable=0;points=[];labelBackgroundColor=none;" parent="SjoaXMamBfVHpwQWyRi_-29" vertex="1" connectable="0">
          <mxGeometry x="-0.1049" y="-3" relative="1" as="geometry">
            <mxPoint x="1" y="5" as="offset" />
          </mxGeometry>
        </mxCell>
        <mxCell id="T1alL_IBdGlgNFhujSgj-1" value="&amp;lt;&amp;lt;Root&amp;gt;&amp;gt;&lt;br&gt;&amp;lt;&amp;lt;Entity&amp;gt;&amp;gt;&lt;br&gt;Edifício" style="rounded=0;whiteSpace=wrap;html=1;" parent="1" vertex="1">
          <mxGeometry x="19.520000000000003" y="-70.06" width="120" height="60" as="geometry" />
        </mxCell>
        <mxCell id="T1alL_IBdGlgNFhujSgj-2" value="&amp;lt;&amp;lt;Root&amp;gt;&amp;gt;&lt;br&gt;&amp;lt;&amp;lt;Entity&amp;gt;&amp;gt;&lt;br&gt;Piso" style="rounded=0;whiteSpace=wrap;html=1;" parent="1" vertex="1">
          <mxGeometry x="89.52" y="100" width="120" height="60" as="geometry" />
        </mxCell>
        <mxCell id="T1alL_IBdGlgNFhujSgj-4" value="" style="endArrow=classic;html=1;rounded=0;entryX=0.5;entryY=0;entryDx=0;entryDy=0;exitX=0.5;exitY=1;exitDx=0;exitDy=0;" parent="1" source="T1alL_IBdGlgNFhujSgj-1" target="T1alL_IBdGlgNFhujSgj-2" edge="1">
          <mxGeometry width="50" height="50" relative="1" as="geometry">
            <mxPoint x="680" y="120" as="sourcePoint" />
            <mxPoint x="680" y="160" as="targetPoint" />
          </mxGeometry>
        </mxCell>
        <mxCell id="aEiqSQbRGJfppAIkEAZI-33" value="tem" style="edgeLabel;html=1;align=center;verticalAlign=middle;resizable=0;points=[];labelBackgroundColor=none;" parent="T1alL_IBdGlgNFhujSgj-4" vertex="1" connectable="0">
          <mxGeometry x="-0.032" y="1" relative="1" as="geometry">
            <mxPoint x="6" y="-12" as="offset" />
          </mxGeometry>
        </mxCell>
        <mxCell id="T1alL_IBdGlgNFhujSgj-6" value="&amp;lt;&amp;lt;Value Object&amp;gt;&amp;gt;&lt;br style=&quot;border-color: var(--border-color);&quot;&gt;CoordenadasElevador" style="rounded=0;whiteSpace=wrap;html=1;" parent="1" vertex="1">
          <mxGeometry x="860" y="83.56" width="130" height="60" as="geometry" />
        </mxCell>
        <mxCell id="T1alL_IBdGlgNFhujSgj-8" value="&amp;lt;&amp;lt;Root&amp;gt;&amp;gt;&lt;br&gt;&amp;lt;&amp;lt;Entity&amp;gt;&amp;gt;&lt;br&gt;Passagem" style="rounded=0;whiteSpace=wrap;html=1;" parent="1" vertex="1">
          <mxGeometry x="420" y="40" width="120" height="60" as="geometry" />
        </mxCell>
        <mxCell id="T1alL_IBdGlgNFhujSgj-9" value="" style="endArrow=classic;html=1;rounded=0;entryX=0.133;entryY=0.988;entryDx=0;entryDy=0;entryPerimeter=0;exitX=0;exitY=0.5;exitDx=0;exitDy=0;" parent="1" source="T1alL_IBdGlgNFhujSgj-8" target="T1alL_IBdGlgNFhujSgj-33" edge="1">
          <mxGeometry width="50" height="50" relative="1" as="geometry">
            <mxPoint x="360" y="100" as="sourcePoint" />
            <mxPoint x="375" y="150" as="targetPoint" />
          </mxGeometry>
        </mxCell>
        <mxCell id="T1alL_IBdGlgNFhujSgj-27" value="1..*" style="text;html=1;align=center;verticalAlign=middle;resizable=0;points=[];autosize=1;strokeColor=none;fillColor=none;" parent="1" vertex="1">
          <mxGeometry x="758.46" y="555" width="40" height="30" as="geometry" />
        </mxCell>
        <mxCell id="T1alL_IBdGlgNFhujSgj-28" value="1" style="text;html=1;align=center;verticalAlign=middle;resizable=0;points=[];autosize=1;strokeColor=none;fillColor=none;" parent="1" vertex="1">
          <mxGeometry x="785" y="640" width="30" height="30" as="geometry" />
        </mxCell>
        <mxCell id="T1alL_IBdGlgNFhujSgj-31" value="1" style="text;html=1;align=center;verticalAlign=middle;resizable=0;points=[];autosize=1;strokeColor=none;fillColor=none;" parent="1" vertex="1">
          <mxGeometry x="59.52" y="-10.060000000000002" width="30" height="30" as="geometry" />
        </mxCell>
        <mxCell id="T1alL_IBdGlgNFhujSgj-32" value="1" style="text;html=1;align=center;verticalAlign=middle;resizable=0;points=[];autosize=1;strokeColor=none;fillColor=none;" parent="1" vertex="1">
          <mxGeometry x="134.51999999999998" y="-30" width="30" height="30" as="geometry" />
        </mxCell>
        <mxCell id="T1alL_IBdGlgNFhujSgj-33" value="2" style="text;html=1;align=center;verticalAlign=middle;resizable=0;points=[];autosize=1;strokeColor=none;fillColor=none;" parent="1" vertex="1">
          <mxGeometry x="205" y="95" width="30" height="30" as="geometry" />
        </mxCell>
        <mxCell id="T1alL_IBdGlgNFhujSgj-34" value="0..1" style="text;html=1;align=center;verticalAlign=middle;resizable=0;points=[];autosize=1;strokeColor=none;fillColor=none;" parent="1" vertex="1">
          <mxGeometry x="550.18" y="135" width="40" height="30" as="geometry" />
        </mxCell>
        <mxCell id="T1alL_IBdGlgNFhujSgj-35" value="1" style="text;html=1;align=center;verticalAlign=middle;resizable=0;points=[];autosize=1;strokeColor=none;fillColor=none;" parent="1" vertex="1">
          <mxGeometry x="152.42000000000002" y="150" width="30" height="30" as="geometry" />
        </mxCell>
        <mxCell id="T1alL_IBdGlgNFhujSgj-36" value="0..1" style="text;html=1;align=center;verticalAlign=middle;resizable=0;points=[];autosize=1;strokeColor=none;fillColor=none;" parent="1" vertex="1">
          <mxGeometry x="302.22" y="-117.92" width="40" height="30" as="geometry" />
        </mxCell>
        <mxCell id="T1alL_IBdGlgNFhujSgj-37" value="1" style="text;html=1;align=center;verticalAlign=middle;resizable=0;points=[];autosize=1;strokeColor=none;fillColor=none;" parent="1" vertex="1">
          <mxGeometry x="515" y="60" width="30" height="30" as="geometry" />
        </mxCell>
        <mxCell id="T1alL_IBdGlgNFhujSgj-46" value="&amp;lt;&amp;lt;Value Object&amp;gt;&amp;gt;&lt;br style=&quot;border-color: var(--border-color);&quot;&gt;Modelo" style="rounded=0;whiteSpace=wrap;html=1;" parent="1" vertex="1">
          <mxGeometry x="950" y="670" width="120" height="60" as="geometry" />
        </mxCell>
        <mxCell id="T1alL_IBdGlgNFhujSgj-64" value="" style="endArrow=diamondThin;endFill=1;endSize=24;html=1;rounded=0;exitX=1;exitY=0.25;exitDx=0;exitDy=0;entryX=0;entryY=0.5;entryDx=0;entryDy=0;" parent="1" source="SjoaXMamBfVHpwQWyRi_-7" target="aEiqSQbRGJfppAIkEAZI-1" edge="1">
          <mxGeometry width="160" relative="1" as="geometry">
            <mxPoint x="1060" y="300" as="sourcePoint" />
            <mxPoint x="1080" y="350" as="targetPoint" />
          </mxGeometry>
        </mxCell>
        <mxCell id="T1alL_IBdGlgNFhujSgj-65" value="" style="endArrow=diamondThin;endFill=1;endSize=24;html=1;rounded=0;exitX=0.5;exitY=0;exitDx=0;exitDy=0;entryX=0.5;entryY=1;entryDx=0;entryDy=0;" parent="1" source="SjoaXMamBfVHpwQWyRi_-7" target="aEiqSQbRGJfppAIkEAZI-3" edge="1">
          <mxGeometry width="160" relative="1" as="geometry">
            <mxPoint x="1050" y="450" as="sourcePoint" />
            <mxPoint x="820" y="360" as="targetPoint" />
          </mxGeometry>
        </mxCell>
        <mxCell id="T1alL_IBdGlgNFhujSgj-67" value="" style="endArrow=diamondThin;endFill=1;endSize=24;html=1;rounded=0;entryX=0.5;entryY=0;entryDx=0;entryDy=0;exitX=0.5;exitY=1;exitDx=0;exitDy=0;" parent="1" source="SjoaXMamBfVHpwQWyRi_-16" target="SjoaXMamBfVHpwQWyRi_-2" edge="1">
          <mxGeometry width="160" relative="1" as="geometry">
            <mxPoint x="1020" y="730" as="sourcePoint" />
            <mxPoint x="990" y="390" as="targetPoint" />
            <Array as="points" />
          </mxGeometry>
        </mxCell>
        <mxCell id="T1alL_IBdGlgNFhujSgj-69" value="" style="endArrow=diamondThin;endFill=1;endSize=24;html=1;rounded=0;exitX=1;exitY=0.5;exitDx=0;exitDy=0;entryX=0;entryY=0.5;entryDx=0;entryDy=0;" parent="1" source="SjoaXMamBfVHpwQWyRi_-17" target="SjoaXMamBfVHpwQWyRi_-21" edge="1">
          <mxGeometry width="160" relative="1" as="geometry">
            <mxPoint x="607.5999999999999" y="290" as="sourcePoint" />
            <mxPoint x="1010" y="410" as="targetPoint" />
          </mxGeometry>
        </mxCell>
        <mxCell id="T1alL_IBdGlgNFhujSgj-70" value="" style="endArrow=diamondThin;endFill=1;endSize=24;html=1;rounded=0;exitX=1;exitY=0.25;exitDx=0;exitDy=0;entryX=0;entryY=0.5;entryDx=0;entryDy=0;" parent="1" source="SjoaXMamBfVHpwQWyRi_-17" target="T1alL_IBdGlgNFhujSgj-6" edge="1">
          <mxGeometry width="160" relative="1" as="geometry">
            <mxPoint x="1100" y="500" as="sourcePoint" />
            <mxPoint x="1020" y="420" as="targetPoint" />
          </mxGeometry>
        </mxCell>
        <mxCell id="S_hvaAE3DvoJQaI-xys6-1" value="&amp;lt;&amp;lt;Root&amp;gt;&amp;gt;&lt;br&gt;&amp;lt;&amp;lt;Entity&amp;gt;&amp;gt;&lt;br&gt;Sala" style="rounded=0;whiteSpace=wrap;html=1;" parent="1" vertex="1">
          <mxGeometry x="139.51999999999998" y="273.48" width="120" height="60" as="geometry" />
        </mxCell>
        <mxCell id="S_hvaAE3DvoJQaI-xys6-3" value="&amp;lt;&amp;lt;Root&amp;gt;&amp;gt;&lt;br&gt;&amp;lt;&amp;lt;Entity&amp;gt;&amp;gt;&lt;br&gt;Elevador" style="rounded=0;whiteSpace=wrap;html=1;" parent="1" vertex="1">
          <mxGeometry x="337.22" y="-125" width="120" height="60" as="geometry" />
        </mxCell>
        <mxCell id="S_hvaAE3DvoJQaI-xys6-4" value="" style="endArrow=classic;html=1;rounded=0;entryX=0.5;entryY=1;entryDx=0;entryDy=0;exitX=0.5;exitY=0;exitDx=0;exitDy=0;" parent="1" source="S_hvaAE3DvoJQaI-xys6-1" target="T1alL_IBdGlgNFhujSgj-2" edge="1">
          <mxGeometry width="50" height="50" relative="1" as="geometry">
            <mxPoint x="260" y="170" as="sourcePoint" />
            <mxPoint x="480" y="150" as="targetPoint" />
          </mxGeometry>
        </mxCell>
        <mxCell id="aEiqSQbRGJfppAIkEAZI-34" value="tem" style="edgeLabel;html=1;align=center;verticalAlign=middle;resizable=0;points=[];labelBackgroundColor=none;" parent="S_hvaAE3DvoJQaI-xys6-4" vertex="1" connectable="0">
          <mxGeometry x="-0.1464" y="-1" relative="1" as="geometry">
            <mxPoint x="16" as="offset" />
          </mxGeometry>
        </mxCell>
        <mxCell id="S_hvaAE3DvoJQaI-xys6-5" value="" style="endArrow=classic;html=1;rounded=0;entryX=0;entryY=0.5;entryDx=0;entryDy=0;exitX=1;exitY=0.5;exitDx=0;exitDy=0;" parent="1" source="T1alL_IBdGlgNFhujSgj-1" target="S_hvaAE3DvoJQaI-xys6-3" edge="1">
          <mxGeometry width="50" height="50" relative="1" as="geometry">
            <mxPoint x="154.99999999999997" y="34.94000000000028" as="sourcePoint" />
            <mxPoint x="352.7000000000003" y="-35" as="targetPoint" />
          </mxGeometry>
        </mxCell>
        <mxCell id="aEiqSQbRGJfppAIkEAZI-37" value="tem" style="edgeLabel;html=1;align=center;verticalAlign=middle;resizable=0;points=[];labelBackgroundColor=none;" parent="S_hvaAE3DvoJQaI-xys6-5" vertex="1" connectable="0">
          <mxGeometry x="-0.0876" y="2" relative="1" as="geometry">
            <mxPoint x="9" y="6" as="offset" />
          </mxGeometry>
        </mxCell>
        <mxCell id="S_hvaAE3DvoJQaI-xys6-8" value="1" style="text;html=1;align=center;verticalAlign=middle;resizable=0;points=[];autosize=1;strokeColor=none;fillColor=none;" parent="1" vertex="1">
          <mxGeometry x="395" y="70" width="30" height="30" as="geometry" />
        </mxCell>
        <mxCell id="S_hvaAE3DvoJQaI-xys6-9" value="1..*" style="text;html=1;align=center;verticalAlign=middle;resizable=0;points=[];autosize=1;strokeColor=none;fillColor=none;" parent="1" vertex="1">
          <mxGeometry x="110" y="78.05" width="40" height="30" as="geometry" />
        </mxCell>
        <mxCell id="S_hvaAE3DvoJQaI-xys6-10" value="1" style="text;html=1;align=center;verticalAlign=middle;resizable=0;points=[];autosize=1;strokeColor=none;fillColor=none;" parent="1" vertex="1">
          <mxGeometry x="200.00000000000003" y="250" width="30" height="30" as="geometry" />
        </mxCell>
        <mxCell id="aEiqSQbRGJfppAIkEAZI-1" value="&amp;lt;&amp;lt;Value Object&amp;gt;&amp;gt;&lt;br style=&quot;border-color: var(--border-color);&quot;&gt;Número de série" style="rounded=0;whiteSpace=wrap;html=1;" parent="1" vertex="1">
          <mxGeometry x="970" y="400" width="120" height="60" as="geometry" />
        </mxCell>
        <mxCell id="aEiqSQbRGJfppAIkEAZI-2" value="&amp;lt;&amp;lt;Value Object&amp;gt;&amp;gt;&lt;br style=&quot;border-color: var(--border-color);&quot;&gt;Nickname" style="rounded=0;whiteSpace=wrap;html=1;" parent="1" vertex="1">
          <mxGeometry x="830" y="370" width="120" height="60" as="geometry" />
        </mxCell>
        <mxCell id="aEiqSQbRGJfppAIkEAZI-3" value="&amp;lt;&amp;lt;Value Object&amp;gt;&amp;gt;&lt;br style=&quot;border-color: var(--border-color);&quot;&gt;Código do Dispositivo" style="rounded=0;whiteSpace=wrap;html=1;" parent="1" vertex="1">
          <mxGeometry x="697.47" y="350" width="120" height="60" as="geometry" />
        </mxCell>
        <mxCell id="aEiqSQbRGJfppAIkEAZI-4" value="" style="endArrow=diamondThin;endFill=1;endSize=24;html=1;rounded=0;exitX=0.75;exitY=0;exitDx=0;exitDy=0;entryX=0.5;entryY=1;entryDx=0;entryDy=0;" parent="1" source="SjoaXMamBfVHpwQWyRi_-7" target="aEiqSQbRGJfppAIkEAZI-2" edge="1">
          <mxGeometry width="160" relative="1" as="geometry">
            <mxPoint x="800" y="485" as="sourcePoint" />
            <mxPoint x="780" y="435" as="targetPoint" />
          </mxGeometry>
        </mxCell>
        <mxCell id="aEiqSQbRGJfppAIkEAZI-5" value="" style="endArrow=diamondThin;endFill=1;endSize=24;html=1;rounded=0;exitX=1;exitY=0.5;exitDx=0;exitDy=0;entryX=0;entryY=0.5;entryDx=0;entryDy=0;" parent="1" source="SjoaXMamBfVHpwQWyRi_-16" target="T1alL_IBdGlgNFhujSgj-46" edge="1">
          <mxGeometry width="160" relative="1" as="geometry">
            <mxPoint x="1060" y="530" as="sourcePoint" />
            <mxPoint x="1160" y="420" as="targetPoint" />
          </mxGeometry>
        </mxCell>
        <mxCell id="aEiqSQbRGJfppAIkEAZI-6" value="&amp;lt;&amp;lt;Value Object&amp;gt;&amp;gt;&lt;br style=&quot;border-color: var(--border-color);&quot;&gt;Descrição do Edifício" style="rounded=0;whiteSpace=wrap;html=1;" parent="1" vertex="1">
          <mxGeometry x="-179.01" y="-80" width="120" height="60" as="geometry" />
        </mxCell>
        <mxCell id="aEiqSQbRGJfppAIkEAZI-7" value="" style="endArrow=diamondThin;endFill=1;endSize=24;html=1;rounded=0;exitX=-0.029;exitY=0.384;exitDx=0;exitDy=0;entryX=0.992;entryY=0.536;entryDx=0;entryDy=0;exitPerimeter=0;entryPerimeter=0;" parent="1" source="T1alL_IBdGlgNFhujSgj-1" target="aEiqSQbRGJfppAIkEAZI-6" edge="1">
          <mxGeometry width="160" relative="1" as="geometry">
            <mxPoint x="579.52" y="199.94" as="sourcePoint" />
            <mxPoint x="709.52" y="84.94" as="targetPoint" />
          </mxGeometry>
        </mxCell>
        <mxCell id="aEiqSQbRGJfppAIkEAZI-8" value="&amp;lt;&amp;lt;Value Object&amp;gt;&amp;gt;&lt;br style=&quot;border-color: var(--border-color);&quot;&gt;Id Piso" style="rounded=0;whiteSpace=wrap;html=1;" parent="1" vertex="1">
          <mxGeometry x="-210" y="90" width="120" height="60" as="geometry" />
        </mxCell>
        <mxCell id="aEiqSQbRGJfppAIkEAZI-9" value="" style="endArrow=diamondThin;endFill=1;endSize=24;html=1;rounded=0;exitX=0;exitY=0.5;exitDx=0;exitDy=0;entryX=1;entryY=0.5;entryDx=0;entryDy=0;" parent="1" source="T1alL_IBdGlgNFhujSgj-2" target="aEiqSQbRGJfppAIkEAZI-8" edge="1">
          <mxGeometry width="160" relative="1" as="geometry">
            <mxPoint x="130" y="10" as="sourcePoint" />
            <mxPoint x="220" y="-40" as="targetPoint" />
          </mxGeometry>
        </mxCell>
        <mxCell id="aEiqSQbRGJfppAIkEAZI-12" value="&amp;lt;&amp;lt;Value Object&amp;gt;&amp;gt;&lt;br style=&quot;border-color: var(--border-color);&quot;&gt;Id Sala" style="rounded=0;whiteSpace=wrap;html=1;" parent="1" vertex="1">
          <mxGeometry x="-11.58" y="210.98" width="120" height="60" as="geometry" />
        </mxCell>
        <mxCell id="aEiqSQbRGJfppAIkEAZI-13" value="" style="endArrow=diamondThin;endFill=1;endSize=24;html=1;rounded=0;exitX=0;exitY=0;exitDx=0;exitDy=0;entryX=1;entryY=0.5;entryDx=0;entryDy=0;" parent="1" source="S_hvaAE3DvoJQaI-xys6-1" target="aEiqSQbRGJfppAIkEAZI-12" edge="1">
          <mxGeometry width="160" relative="1" as="geometry">
            <mxPoint x="112.42" y="220" as="sourcePoint" />
            <mxPoint x="42.419999999999995" y="220" as="targetPoint" />
          </mxGeometry>
        </mxCell>
        <mxCell id="aEiqSQbRGJfppAIkEAZI-15" value="&amp;lt;&amp;lt;Value Object&amp;gt;&amp;gt;&lt;br style=&quot;border-color: var(--border-color);&quot;&gt;Id Passagem" style="rounded=0;whiteSpace=wrap;html=1;" parent="1" vertex="1">
          <mxGeometry x="570" y="-80" width="120" height="60" as="geometry" />
        </mxCell>
        <mxCell id="aEiqSQbRGJfppAIkEAZI-16" value="&amp;lt;&amp;lt;Value Object&amp;gt;&amp;gt;&lt;br style=&quot;border-color: var(--border-color);&quot;&gt;Id Elevador" style="rounded=0;whiteSpace=wrap;html=1;" parent="1" vertex="1">
          <mxGeometry x="202.64000000000001" y="-250" width="120" height="60" as="geometry" />
        </mxCell>
        <mxCell id="aEiqSQbRGJfppAIkEAZI-17" value="" style="endArrow=diamondThin;endFill=1;endSize=24;html=1;rounded=0;exitX=0.5;exitY=0;exitDx=0;exitDy=0;entryX=0.5;entryY=1;entryDx=0;entryDy=0;" parent="1" source="T1alL_IBdGlgNFhujSgj-8" target="aEiqSQbRGJfppAIkEAZI-15" edge="1">
          <mxGeometry width="160" relative="1" as="geometry">
            <mxPoint x="130" y="10" as="sourcePoint" />
            <mxPoint x="220" y="-40" as="targetPoint" />
          </mxGeometry>
        </mxCell>
        <mxCell id="aEiqSQbRGJfppAIkEAZI-18" value="" style="endArrow=diamondThin;endFill=1;endSize=24;html=1;rounded=0;exitX=0.5;exitY=0;exitDx=0;exitDy=0;entryX=0.5;entryY=1;entryDx=0;entryDy=0;" parent="1" source="S_hvaAE3DvoJQaI-xys6-3" target="aEiqSQbRGJfppAIkEAZI-16" edge="1">
          <mxGeometry width="160" relative="1" as="geometry">
            <mxPoint x="140" y="20" as="sourcePoint" />
            <mxPoint x="230" y="-30" as="targetPoint" />
          </mxGeometry>
        </mxCell>
        <mxCell id="aEiqSQbRGJfppAIkEAZI-21" value="&amp;lt;&amp;lt;Value Object&amp;gt;&amp;gt;&lt;br style=&quot;border-color: var(--border-color);&quot;&gt;TipoPonto" style="rounded=0;whiteSpace=wrap;html=1;" parent="1" vertex="1">
          <mxGeometry x="740" y="220" width="120" height="60" as="geometry" />
        </mxCell>
        <mxCell id="aEiqSQbRGJfppAIkEAZI-22" value="" style="endArrow=diamondThin;endFill=1;endSize=24;html=1;rounded=0;exitX=1;exitY=1;exitDx=0;exitDy=0;entryX=0.5;entryY=0;entryDx=0;entryDy=0;" parent="1" source="SjoaXMamBfVHpwQWyRi_-17" target="aEiqSQbRGJfppAIkEAZI-21" edge="1">
          <mxGeometry width="160" relative="1" as="geometry">
            <mxPoint x="520" y="65" as="sourcePoint" />
            <mxPoint x="610" y="-10" as="targetPoint" />
          </mxGeometry>
        </mxCell>
        <mxCell id="aEiqSQbRGJfppAIkEAZI-53" value="&amp;lt;&amp;lt;Value Object&amp;gt;&amp;gt;&lt;br&gt;Estado do Dispositivo" style="rounded=0;whiteSpace=wrap;html=1;" parent="1" vertex="1">
          <mxGeometry x="970" y="480" width="120" height="60" as="geometry" />
        </mxCell>
        <mxCell id="aEiqSQbRGJfppAIkEAZI-54" value="" style="endArrow=diamondThin;endFill=1;endSize=24;html=1;rounded=0;exitX=1;exitY=0.5;exitDx=0;exitDy=0;entryX=0;entryY=0.5;entryDx=0;entryDy=0;" parent="1" source="SjoaXMamBfVHpwQWyRi_-7" target="aEiqSQbRGJfppAIkEAZI-53" edge="1">
          <mxGeometry width="160" relative="1" as="geometry">
            <mxPoint x="830" y="485" as="sourcePoint" />
            <mxPoint x="920" y="435" as="targetPoint" />
          </mxGeometry>
        </mxCell>
        <mxCell id="aEiqSQbRGJfppAIkEAZI-55" value="" style="shape=stencil(lZ3ZriTHkUS/hq+F2Jdnzeg/CLAlEtKwiSY1y99PBIiqrGuW94Qa0ANJud3KyIzw8MXc/Yf8l99//vG3Lz+k8Psf377+48v//PLTHz//kP/jh5R++fXnL99++WP90w/5P3/If/nb129f/v7t679+/enPf//txy25/+m/vv73/gv/+yeujkcfG5XC//35X9Jj/9v631//lP/nL79+lI9N5FsE+f5oKj8Kyuf8QT4/Aj1Pe8wi8vj87VGbyJeM8rGLfCP5+uj6PIPlc/ogX3i95TFVPtH7LI9aRL50lI9D5NsE+fz8nJf8YPn68fvWR2gon1Qe15ses4l8of2ZHj2JfKXnT48yRL6zvD3/JPn4/L+f8msDsrzst8b7OT5KFfk2UF72wzpw9D7DY4YP8p2fPzyayuP+DI80Rb7D/inzMT+e3/EI8PeXvOirgftnyeci8p3/fvi43+Yjwn4u43n8LvnK8rmJ/GR5eZ4Ynn/hHrAUelcArtg0enztqXtA0yO8AHTHLED9+I5iegRadHukqIACu7TUpxJ/A+BrXVrn47aI654JCAhZAYPeUnneQy9AeWQGpKoAUtVlPYB8h3VZMaB0BRx+IciHa/yWlrYOCiB1tABZAJ3P89K/WQH4C1Ev2DieKvYzQMwKmPTh1vkSwNIBYCMsgOikFFDp5alGVHqp5c8AsugUUY0tQKwK6PQLQ++19LpJPwPoohPeDLnbovNzs3wGqFUBA770AuiiC27v3J5P/AaYtIam2n6bL7Bbc31utRegPc/gZ4AWFdBoL9Wn/f0C9EciQFHdugCDAWLC7DuaNt8yqWXR6xam75AfPSqgwhFdgPzxkXJ4fvt7QNLvsAB4HpKq+xzREF4AcSwWgO7pBQgfVeX6L4kWHZ+W4xtg0Bri84J6AdZ7o90a9cMtwCBAeBrjL0B5vobPAMUA5K/t7yqA+rRvbgFr54yhAPKAr632ArTTL4hJvAC0hnVcxCbOnX9hqM23APQdFiALYKASuKzyN0Cnt9SfW+0FmOhoLEA1QONfEM9t3asRtvf2jKoCyFa/XK83wKS3tKyjj2d6GRMFtvd2HrMCyCJb18eQNSR0B/Z90xSAm68+lcoLkHlrLMs4KqDT5itqOizTl5TxvpWHAio9UrGtwff0Dup83HzloDXyU1e/ASgOswBVAO353j4DZAMcHikaoNHmSxrK2J4dHaCkZ7pw8GABxBJYANQa60aT3Tow3LYAopcWINEjxaft8gbAvWS36AKQVZksglPm85R/BtBFT/TjFiAUBTTa3uExkgLIPd7uxcczveM6tDWCar4FKPxIKSiAtsbyqWS31vh0yT8DyBFdgMy/IE7TAlAseQHEhNvRQditCxBl0RzNX56nGCcLQK7lAkh4rHI8/3KGX4CMu3UBZLdWjpxc/vkbYNIvdA0X1YIxgfhyYN4AdIvuoIR8uIpR2QUQm69ymPiKk7wADY31BdDz0NCliRbyqh1d/AWoSQGkNRZAH+mVXLoHFPvSg3/BYmSVo607hGYACoQsQJBwesBrN66L3QDkvC6AOE0LQAGpmDWi2yKq+5jUul8A/IWkb6klDD1Gu0UXgHzRGNUMbQetEfVLLwDdDwtQDEAuzQIkea1sVcagYewFQN0aNNS/AIPWEJ5q6wWorO6DxlsXgEy4qfGo1jBb97Ir3uRpyVMNjSVPDtDQSGjjaK5dPku+w0YdauK213+5le/Pa+BNvsKe6GoBLHnyG7oGG9rEe6TZsZlocTf1iXs4/P1k8vT3q76fHp+Bsk/k5Rpc8h3lJfzZE2eTHzGqPK3XLpwlT0Zk0WRyz8/74RN5yRL1zDkcTcYuedrPWUPcff0FOI/5GRF5k6dseFYl2gveHFnzbr0+rb17K16jpEu+kW+kcdve8L5PGv3rrxPxibxkk5Y8harT822/5Dt6j9HOC/uz0fbbwNRqfCYH3uQpBhYt2c5Btqj3S5+Ygwm63hFw/1smbMmTnxmeu+Ulz/GyoJ7Bkp+w34IGv8aLHvKZvDxPxuzLnXzn5xf5gtG7O3lyO1y+ogfr8g1jfXfydL+4fMeIq8vzebmTJyPR5SeyWYLaAzOcnmeqPGVcglr2M2JuOmgAbsmTfRJUP0++T6PGTZc8uurqUs6M+zmq/p/M1ot6vy95jFBqQGZy5CCpfpjMpkvP3fUmT/ZwVr9q1ifJ4xN5yZEv+UrZLvWqlvx32RuzYQytaKxnchSjKFlssn9Rbp6H7tOq9/tsqP+rRsNmxwhG0zTAkqf93Ox7sX5rRhbrmFXuSjqanHrvRi4bmEg3rtiSJ/uzmz4ZmOQe9r0G5jCGhp0ns/uGkoG2PJzfqRSrycH/afphoL6aai/NgWSM5fCnpAAyIBag2oo7adCg+Y4N4MCLPxLdYQtQ7aViyNm1+jjFs5KtgRhZO2ImjzSRYLVjckUBGDzKGrlYADoJ0XjYC0Bspvjijb8D6JGKKbvJgfmq3sDk6EWs6p5sAIecJc5+AjTl6WwALbppkucE6OribgCdh36zlxAwniGOfx/gewnXMJT4eQJMO0BHgF5UDFiWZvTXygA1rY8AvXv4tSaLIE829rd3779AADc3j4DuiyZAVn7IadHZLPLDa813i6aQjHErDlpjAar/AgP0fmBFtikrtr0PpJjmupUeqVlVwGSaQdNI+5xo+ac7RZbIdXll+96vLNpLRrDaAP4F3xoUvU3DrqyB4Ypbe48S6GkoCeBga3jGY5s/9B2muXhs8uVwY1OSDXoRSd+NYiIRR816bKubHina9h5PouY9IJn27uj3Z3ecucwnZyWJzc6R66yh9wVAEnE2Q7czebWYc8LO4QJ088bIe87VPhyHy3I1f75h9VpuSiiZDQMY2YgMs/F36GbNNLyBnIW/Ywb0C8Oc3Ia55AVQM7RiFCBPc+sPYZKphMPJVYfZqtgWAAtlXuyo98gQRWLCzS+QMt51L7Logrq1JPOBCheOJdtLBbPVJdtuLbiXise3CjpNm0hqACzf84hVxojqrgOrCqAjuivNhgLwLdWboCcWLDUzQ7lQZgH0Bsr8lrp5ihnjSgugi05ImlwAKUudCQMhxUNLCY/oTaFmwgulGFlvAUiRlWm2d+LXOpWQvsP5VOwblBO8AJTvqFZvsQC0+Wo0Ey5yfbaH9COaoTVpjnwGtDUWQK2ZcCp51w8XeA3ZrqyAN1A1uviYuL2rEQkGFyzVoi7+YIejVv1wC0BEt/piFr0AHHq8GI9vADpA1aLjO5tHb8nC44PD3dXi44Otyt29YiiAVOUCSAZ/AbD/gxXKjENKY9jWaPxah3ooC0BB+zqVFTQqa42pbtkCkEuzOZVJAfSlL07lC1AwyLwAeh4KXootahnLKOgDNeP5j4xqpiVVMwtAtWwLIBbZ4CL1BRBLYAGIvtayEj8XgBTZAgiBcESs3WnF9lJExsACKMUjIGmyVa0pHFxJsAD6WgNaxgugrCsun2hWxbsARItqFszpg3l+XT3FBaDE6QKIA76ZRfSlu7JdD9SlZiWCC0DlEwsgtkZvvL2nsic3u4sBSj9srGbmDT+Noj896P2wAJkSrkEP0AJgxjUaxbFgfGkBxJReADpx3bjZPWN6rSdjjWZkHfSk9lLPTMM1Rda5Enn9PdHeByLoAkjyazNN6Utbzfl6b0Rd3EzLoADy2LuRG/ZmgRuoV6WL7+1IH87ou2vDD9Aa67horQLHvS/65AvABKtuBlbjerxujt+mgNNeGlYY0Pk7DPWyGrdU6lPbpDRWM/u+kTVUbIgzLPnVKkYS1yWrBRps/iyAqMrGfc6GWTO7ogM+3AJI5KRxadqyjoRs2yI6Tdv+igogf3pZeKJbt50JamYU9YG26UtvqeoatjVOBRHWnmPXUNHWsIju9lnoF5oWFm83il5r11D89uxo0V2N9co93rbXJjWFBS+U5Rcmea3cuWUBtEQw8xEdVvHH0Z8x1Z+ubBkPrx7lZgE7ZGCABAdoByU+rqFw9ngGLUIs7OLvwIrUOneMhk6roVoAqhOeFl8qDRXZNIrpodB+R8QEwDUP05JfhYswdtxQfiHjLTqth2FhP25aiWDh3jAzW5fKiGbotMh6CXimZ1aq3e4xRb9Q9Exn5pFNM7Ayq8qdnpCmPlxtNqt10Gl4pqcF1XLD6M/O+kj30opO0wJo55aCxskCDANQnG8zfOUtZeSR7XSdLDohiXE2tch2qyJ+JO+VhG+paa1zDvxIdsflwOeha1R6MwdoDUa13WQG/gXtTtaxSH1n1KMCqPjg4ga/AI3vB+stmTgvOq3+cjd/4V+QgFQqaM1s7oR8B47CXeyMNwCZ0hf99QVIrDWsB0PipMu0dPOuq6CtMfUG2oUhtAaLnCRufTSnEvl3swtSAtY2NU7WfEa0iQNtvotm9gbAIzq1GHC3iiTjxPJxkQNSc+oRPbS73ABvqMmvVdyyyH2GNkAWXTDdfAvAi90BGRnltwC0Wx2Q+I67AxAz5+a1Rozo3gIognUDCGw6WOnA5vofFi1pztNWUoLUaQUSUhvoJk6r/R+sxIbV9mKodV8NKo8nYVjAjlVeV5uBS4H3/SwhFn4/Xd9nw9LVTf1SebzNrflcZVesabz+cJc3zZ1WzEhPq6WqWAo8rY9c5f1Z9Jrllm3TuowyW2k7MNLtDFPFS17cEW7fPK0WvvD3TRplLHz9RXW1OUSyeRs66AAVljWGz/x+grVUPQVUJG3NvUWHmSwZ3+ewhsQZs4A75iRGFxoHoys5IWGsfVhKL2Gp37DznvA87krtJPKUox/V7F7sOjSqme7IlBjG2ufWZjt/r+8TI3jeJBjz+Tt6bPIUg8zaSyEid30k1VfcimDYeY8cdTU6JveWG1Fj2Uf5aOvlnEW352d50Q/8PH1aY/eTvPZ1P8nLYBx+/93S2Uf5Yu8f9MmSD/Z+SN70D++3nYmz5+FUn051QMrCkpfMRkRex5JXFxQTUr36fiDHp1umJWJFwtXZ5k2e1muDfbg5ZDdmcUR9vrP6+n2JDLGT+noeKR7rGfKI3nPPGuDi1iw9a6EAd7XbnZp0vRSW7Mm8eWRbbVaD6gfyv7rZVxELtjZdQN8/1Wt1a67OHme3Xj0RCT4XueCSp9Y13SoQIobylnzU94ksq6l5mIiEjDbV3j7K2/2F8kPJEkd59fjRfrh4Dm/yRPmyshdOF7au9hvTppuV+3EruM2iqCKPPL2uUc6A9nBrap8H1OfN0hA8xqjZ5IyjvCTljvJivx3lxb84yBtd6Cjfvmu9Re2To3zU/YbyWf3Ho3zT/X+Qz7o/D/LBvhftZ2tufpSv9j5Z3s47npeo9kNAe69Z347IrW6CjczC+7pZM9OI8YGrz+6/Z49VG+zG9ny15tsJ77tqQzUS3u/V7POE+b3a/e9T675q1dVn+fB9z9PVf6fJQ7sZtD4P5T7uBocSJ/pOHqsW7vwdLu3o6k/RfLb9PvW8YFGEtTGPGF+tQ+9H9l+qxbeZHbd5ZOb/HuQtHkK1NUNZwQnt27u/j61k7fm5NaO/n4Stm/z9Jx4Ma983Yfy/Wn4hcWWd7U/mAPn+Z8La3fmi+OrteeRaq++Kp7n+4XiR6zeOD3y3vM1IijzI1LL4h9bInjHnwarTRiXiTMxmvcED6rd9X5v9Q/aGVVgFrkCJ2nQlING72SDcgPq/2bizQ1VPcv8F/bUb+41IS3f2Icrf2J/oD97Ytwd5s58P8mafo/yN/X+QN//iIG/+y0He/COUv/G/DvJ2Xg7y5j/ifrjxT1G+3exnlvf9TOerabwosP7pag8HrqfsGg/hmupmvfcD3kfN9H9A+6RZW7bANXxD/YuA+a823F8jPoPHo3ius8e7jvIW/znID1svxYctHniUt/N1kB96fin/vgvr9PkxXh1dX2E83BodBI6339xfGM9PypcInC+wFkwB7c+e1F5lCm23LgpMeOpZiw04HrInI1j8kPMvHm/kej07v0S37VaozK3re/H8CxZ+VuU7HeLt1guKi5969fwF8SV683g1ltE1bcPBhd/d+E6Rixl9DD1ywu/yoVipe5NvRX1yk889yHs+i6sMLR+N+bKbfDfFZ+7y6VgLd5OvP8gbHwDlo8YTjvLGZ8BW0Dd8iYN80f15kJ/2/MwnsfNO8Y1hM60j18xZsWPEeOAonj8lYv0we5tLkEZV/mE8VUaa/47lcmYPH/g/Te3zxPWs1hj4wHe6ia+SvbH5Zhb/Ib7Z0POVkNI8pjbESjxKy8oPE5fJBSX4H+osghWMMf/T+hxkjCdMH4fO/NukndPz04C6l89WN8W1kzbgl0dVzGKTa7mUpujzF2bdF+ejHvi68n15xvLVQvGSJ3tvN3XU9WIxhvmzFf3HabPV6qmAS56n8ii8rnxFbiUyu42fRf02zT5pqK82f156COB9dE06uOSxRGKofm5crja1mIzHke6CIeXzY0mfFVR0fp8WXx28H6bm47h38Zw2u4TPl7cI5XJYm3ccAyYsY7A2FIcalTvEsQxGH+pYaKOAYymPAw7FQgo4liM5gDoh3QAKfolpbYcidze7AVSu0Z3m7FW+bWy3xkPd/TRzt3NR79Tq09hPJYYS4InjVMSoGV6ejrcAEmKOPNVjTuNszmOlmhiZhzL6qV7lgQY13axjP/fqAv8GOChKcZwOmdU5dGtsU+1QGlYVgLUr1t4jcQORaU2BUsVo8O6gPhRAdJNrMNIL0LDHz3Q+yKHAzQkeg4f5dvWQ0+ASKGvkkib6pLvGTWpweP7drrsfCiAW4bbaBMC0Zy+Ly4k3X1O7LXMr4mmBsZzZMrSWPbnwI1UrtSpcm1ht0TwXbvehEOel8Xmo1q2DW9XPYuVonUdVF7XHMs8Cm5ZQzIcS9KIZiQU4uGziAu+27NyXRX0wJn0vQDIAdXi+5i2+ADyJfSZr5JL5ANnQmlJO3WuEuFgq98eJGhkpB+MkWinnofbWJmKUQ+cXG2RbBpuhQatJCk8mmUHD1+VgOgT19yrP9h5m/lRmmAyrEK9cYrQA2t0scYzQYlQ1c1B3aJKoFm6HZiz53RmbAN0arrFfP6zzS2VVOYzIXrmtxLDKp4t79VloVEIrdfBrrXplVTZ0R9FkxQJgtWCxanduwj6yrqFFrg/Oyidq7CmOpAURLZ1aHEoEtmVM4Q5TZBcp5jOAxJAbF6UPa7jWKmbFh2Xdr27Gt4BuLk1rWCe8AGLCNe54vjsVNwWQ/9DtTDdu9NW7elmNZzJ1a//U+Dx0CzY21t7duid0pqv0aj1zD/l364PdDwlgS2DvEjV6rTbJrSekAPWsFJGekEPZbYjTZiEwKUCC4p2DObuKMCqA0mALoL28M9fFWp7hYhbcA6JaZPvLcKWf3A+du8F2a9XQuRdHD7q9z32wxRLoPGNgHRdRlftIER1rqr20CQPM35L6287zvZqNieqde9sP9eM6B6RaV5dm60IGZAMgibep3XruPF8MQEpgAYQWN448Rtneg6erbCKm9ecnE+66M18A9rIWQAeNcG22c2E3e4Bea1by2kj8pS17uPkDdIBsys15moRo78ENXpo1Rj1PxCgGIHXfoo3FKVxDGrTGdlRU9wsgpJnBXYuqOU2D7aU6lQYzeOS915WNxo9kwc0FwAFI1h15cMfzao0g91gcrr2QuMZmN3DxlDhNg2OV1Tp4Do7+1GYnjvtrLoDwYQbr1uUXih832Eis1bbGRMpBtRjZmDy5qijHa0yM3e9BVDLfi5OEyz/3YVoUSaxZaceTtXe1ZsczonVffbr7odImaqB8MvWpRhuQx9ykGmyWaEJLoAYb4c2z4qpNTJpc/lasJ+LketFieaDJMzeKNUbdwUia2TfUlN6cGRqQZzNoJlv3xabc7EbXPKgwGoC83eJjlzPaS8VGaOz5j/SWquX9M+qlBdBGkAXdgR2OjQqgwGAxT3GP1aQ1FJvZx/m4PbizK4A0X3m1738D4MDIpMmv3d2bPlxSf3pyQ8IS7TtUtMh2y3V7JBxvGm4G2eJo0GCjcivPB/amohVZLXnejPuljF82WtFuREnDeK2Od/LUp51XCgogQ3cB9DwwdSk320uHwc7Nxsx2NB2yJfBmx3s6Wz5u8hiQbBHd2dFD2eOvbYQ3bb6c1QGfPKknWwfNyR3Ps0V/5uDvYMmvyU1qc7oZpU6RkxxvhrUTqyVHdcuuxrj3AJsgNnmkzAKoNcOTPpMx2ya3Ct6sgKoA0nzJKCSb5wIf7uo9/Aag3ZqMrzF5gGqycv5N7oEPl6z+8GIQfgZQW2MiAzY1O6JMAbw6Cr8DQFUugH8HsjWSNfWdnAdKlmmaE43EzfLNBqBHKt5pmytxk8WxL8bePSDfHAh8pmyTnY8AvSDYkdtkffty1P44WRr/BIh3i2ZA8TUQICiL8bRoG4N2BujNzt8hThv6fQSoM3oADG2bcAa4cj0A1CTjtxT7jXI9AJK/VgK413QE5O9bdDVj4whQW/oIUDv0sIZioRM+D5sl7I8Et2LMyog9qO9oNbcbwL8QDEB31iZf+zUKujUmM1wnmpUx3hwgsrCiTQQ72A7ROh1v64QWHbSUZHKgL1p+7RqH8hnAHwlZvTcvCUlbNw9EUWxrLrDlYcXDAmSTRzPeaHrqvmkh7006psSx5snm4ESzea0Dh54YEXZyNLqZ1TN4iLUaPZPHprYbL4Oqo6pd/p27hWlCYPI0j2p+FZP/i4VwO0egzBbh6iKPizOdNWuaaPOMyQmz5+HpH9ZMYYdVyJaym6Ci65xu4jykdT3mznPqjAM6efBXNFeHaXvRzmPBoJCrdI6RumnKUVtrPrLjyPC93JJNeNW7D59QnwcLj3KGO5jNyN0srFnnZKK/FY4NHkXq8jxH+k7++56n4/5xedYPd/LU/cLl6+l7WeacXNg7eeINujxXM9/JE1fA9s/gee1Gfh7cfdMcvxHRPglGjuBuOjYpt7P3EDQm3SfqT9MnfSC/0FIJfeB9Z2N1d3sUlJf7q/Nsyai+T2+oP6Na0J3PS1J9tWfb4/0o/mSvaD8nta+u9j2fyHeTx+C47v9NroTnz0pF3txKCo0rG2LJYxha8w2bR0lxbrUPe0J7u2h8q3P3U6vl6dx92XztztNLivoj/UAJMH4jdz+qph+4m37VuFMPzMDREuN+6Hap9kOb2M3CaIGN/UGrsmuTu1vdULopQdy12URj/pA1e2qd+dnKNNjUS/RPtTSgcT2E+ke7/SL6s3K+Lt7lJ/643F+tcrWp6rclj90XNDuySZew3t17ICiAUkILIO1cNumSbpigTO6W+YoMWtLemDEZo9VOcAubGLWlUeOe0DEqSadxE+xo92TjYu2re8IbAB2lZCef555c7RZeAB60sACie1tAKlO0osjGrUpjVhpQnVhhEq2wc9dD0SMVq3wbSIBcAC1kG6hgYlENtlmaFISsalJUrh+PVe+E2pBCs0PmQQF0iUS71SpzY6MNq18AukaiDTWsFStyrwHNbwAKhO3UhewlngO6215MBZArtKdSyxq4JCV6p6CMxRbRbreaMC+8G2tUBZA7FI3aV5nPGG1aUj0oMmsvtACoW6dVgnKDyJ3Ks3pZunPj1IlY9aD5rL9I5R6y0a7dGpA3lKwOpxwS+rdlyJQ8D1bSPvHK2v1KqgIoFLhjbx9faxlMe7Brt3Aw3KOHC4CMmKhKoHRsAZRsONwuOOd8vlbZt1M+X/KXpaH5c42TfQNQHc6OKU8FkKpMWTVf4en2e6JvUABdKJtXERVA7XNSVppEKVg1lrJ1wePAspNJNvmVvrTNsS2ZaUBW3lTYbl3OobB6SjqxenTz8eyQZLMzCw/bSdX2UkT/Nnn3Px53kZr1hOAIXrJ+n+WgW5v63HliDjDZxPfMxXieZcwD0/M7jVkVQPTEZBd77nwejH2yAHRlJasKyI2pT1NJnJkLztNUdZ/r6ReaAZA8aO3VMkfXc7AvXXB7L4B+6Xz6Be17xIUKOSoFP2c0pRfA+x6RW5ajDWjnXjWbTFsUgGtIamBlnmmXk5Ys5oCNMHK2IVSTybRZE3dpYtvf/V2lTfCB32udM65D+xlABzN11Hxr9+ukOj6iC6B9wBrSVRZAtkaqaMLtblNBAVTCuwDe8Y16pGTT3jsmTY9kIcfEjZJy1xzA7pBMb8knoCV0XrM5TYeZh3nYorlpfLYmqzsTRYuetmge61SCXuyRGWXFVOV21KhwJ9ighYFbo/ikZU6elWit7Ds6Tcuckmv3ihJ8BtDm/e30C9q9v/EveLv5ijGyYvM3dsSJXqtxaiJ3iC5Fk1YLQKHHYlmcmLnMrCqNJXJEtxjfPSb0UIr1edkRWK4P1DGpkes0jUsbI9aw7BpHeSSetHK5qm8AiiQugLJfUC0VG+U4uehy6ANNjKgVixUdFID1MRtopxdrlNYxubfk5ZN1bDFWg7XywS9crdU+169V7yKFyaJqGrXxqMho2TEeHRo1plTx0vGC7ooh2ZqsdR7egjVpXKLy+7fRShXzE9VGKxVeb1Y2S8FQT80aUebq2yWvDRiRHFFvRhHg+zE2Jjs7u2VfEnkcBV01BsOW2pKXgod86i2hLiqTZ5v6LYl7iDQfrUHRxdqVvcOjQarFFRLv/5tR1tjoYvgobgqM7FyZjnIhl2jL22iZg7yOljk8j3YWZ/Ly0O8V0bupVvNzHNUszv5hFO6dPJ1fkz+M5jX2/nF0+vjO/SPnnUfvXLnWSz6Rvj3Kr3/47cc/fv7zX/72yz//+fsf377+48v7//+3r9++/P3b13/9+tPrP/3+84+/fVn/9v8=);lineShape=1;" parent="1" vertex="1">
          <mxGeometry x="369.29227005357416" y="-94.40586279869262" width="352.32064573547103" height="218.51028704620742" as="geometry" />
        </mxCell>
        <mxCell id="aEiqSQbRGJfppAIkEAZI-56" value="" style="shape=stencil(lZ3ZkmTHkWS/Bq8pvi/PPdP/QRGCDUhzCAqInuXvx20wkRGlGnm86q2JNs26ca8vtqip/VT/7V+//OWfP/9U0r/++P23//z5f/361z9++an+t59K+fUfv/z8+69/nP/rp/rff6r/9rfffv/5P37/7b/+8dc///c//xKW8X/9j9/+Z/yF//0nbq2PVgJV0v/587/Mjzr/33/49z/t//7rP761L2qfyH5+7PaN/fiYCe3nFPvO9l3tCz9P7WKfMtrnb39v/5gF7MfHWmLf6HnGx9C/nzfa1/qNfXu84K/sUxP7McD+/Dz9+43e//l5WexzR/v07fupH5v+fvuYXewHvc+m67l+tIr2OYl9oeepH3N/Y18+Nn2v888vsV/89/MQ+05///w5tcfvdf5cF/tC6+f8v6vY//8P+N4+Pz7nw/78B9ov+aM3sZ/89/MU+0HfNz3+3NMez5P0UbfYV3j/c39s/fuF7bs+P+33Y5+r2sPzz/Ux9HnofJt2nif8XvOcz03sF6yfY1/Unr7vHI/j9cWenn/ofkkfA86f2R/b6cWe/v45r/R5Opw/sz2Omxd7OG9n/Vj29+n5z/GUf8S+fIz0I/Znu84fs6/6fdH+83N+t33S70v2Yz+Ovxd7OB/G0vsu4flw7FMXe7rfx6c79WJPz3/8AV2fDfbjsU/6/HRejf5Rl9rT8zTf75Wep+l5dexhf4362B7fbZ/0+1b6Xuc6tL9Pz3/Wvz0/7N9jb+ut0fMnva+PPX2vz8d9WZ9g37fed+nxAb+y/6Hzv6+H+/hyH7G9+M/54cC+t596Pn86CF/ZJ73vJqznfsIJtd/wfY+9+IflI8P91fvDHXnaUzx17LP6Y/h7m54PBeORYy/ft6C/3Y9/++33rejvHftq/jPZl4e78OKf03ouel5VjB/7+ZxZ7Dfsx2Pfvj2fOX459ulH4qOedL1x/HXss8ZTG/ZL27of++ODf2Wft9h3eD9tqT/WPxY9z/Env32es4FgPbep8dTA+/HYy3k4HgmD9/ZDz9uJ/vOxl/N8YvzYut4XE8+fYy/30cL8ybGX+27h/d6axlML/edjL+fnfizw9/Yn/G5iT+d5M391PxIe7+0/w+OnPZ1Xx17i/ZweEcFXgDQVgG80awbiAPAnnCOlKWAxQGKYzEFbSxZkZ7yVDkC+Wv70278CNPsX6Jxu6c1vGPAv1P3wM14AE/6FA5Cb7wA2bLUDkK2WC/oqByC5jgMgZ7SuR+7nBUDRwwFMeyRKZx2ApkfOBqEfvTQeyxU39AFkA1AGrFpG9wDIRa6WMjgAunMOoFcFUJLnAKoB6BSultU9gEXfYdiOq5j3O4Ahx0zDi+cA9NRoj6PzK0BJCqDQpnYN7Q+g0Yfr9uHaI5vwFaDbI1H0cQDiLRwAuWu12Y7rjwTBVwCJ7w+g0Fpq6hAeAHl4B6DfoT98vveAaidf57dUHymtFwC+papJhzw+Eq3WallGLqPUYvth8Foqth8Gn3zF9sPgLWqZ6sylqQOQ1N4BUOxS88fKCqBL8QAk+XYAgwF67c6PxQBdfOxP1mQb6HjsdFQm+9ELM1I1aUXrAChlcQCSMj0APL3TY22+AHA/WFCVN76lcDqrAqhMcgB6VG7MAx2A5L0OgM7W8LMNQP7SAahH9lmreA9Yj0zIZ6ogPYotXwGmASjZUcybuWRzI9jpCqClcQCaTklYHz3hmv7o/DgLvwLoj8547RarUEdKi5bG1BJU5LQYIIdAyZg0iJr9t/shslr0Wscj6H8B4JceemVFXosW31Bn/VIojTq/FFYrBk3l8wp8AeCe7lrKj1wVvaVuubmKMdAz9/ICoGraAYijW9qjvv8VQLz7AyD3J9JNSwF4kDW9H85/oeP+mQB7AUxwHZ4Ztk9AR1c6UnhNAfgbqiYNg+XBgGmPhGfr58r5BIyH6/sVQPf0wEJi5HWzAihSPADJCURqjJZGse8wH8nZrwB5KYCKrXFsGQD3g+VmLum0OHoNQI7us1zxAqCCX9TbtwIo4xsF9KWARa81qVcZVz196WS/YT+c668AQhp6+jdvAcezWFMB5LcegKTFw0djgNYZuPCatybqD4COmXA65ZEyZk7CrR0KoPjhAOQ71IzuT/jy9kgLNlBEC9/63pVTXtlSLbVgHBchUlcAFQTyNIJVfcRd7wHjkdV7AVAiJFuq5QDoBopQNSuA/KUDEK8ygn76cP2x+l8A+KW7HsYHsOg7WB0/cilwKUbaoymA8hqRWNkKIBcuN3USI+NEv6HZBhroSudmH25gAJ6bfbjBG6jqYRypQvoNVQ/jyF7yvyCeQORH6TvURw76BUAlkWwUwsjxMkDCgcgiE8BIhweA36FoFfEAKBESefSpALoUn5n6TwBH7Acgd9wBEFMoZ7sfNq8loza2hM76AUg2tDG5JSf1lxqzQ6JyZQBKqkVtTACZ90PSKyvKYQDYyveOehvaa72+4C291QdtXNNZegC0gif30oP72FNBemlw3z4ZTV/YS2a28W047fk5aDW+TVR4iaCp9ffGBIup/L3GBIuhHkxjgsXQO+TY0/MPPSeOPV1SQ/l+rePV3zUcbh1LgnbxNw49uyZLG1+yXf21NpjAZPyWCyHDvhc3eDT7vQMj56bXZZv4/pt934nv33IFT0bK+1yy5gvbJyP0C3vht7SFlfeqF1/j8LFqWrgtLkwqf74xgcN8g2AcUbBp58/mBKye/z3h9y3WL8OE7KIlyWOPaRGtn/fMCTPltxx7zHHoedi5ocL6KY491cKzpqd7RQJWVr5i5wabbO+zYdbIKlq9IcHR8i3HnlgeWcOafglrdP0fe0oxZaUL9YGE6aTnQ+ey5edq/LSfmJtJyo/qTDhLmiHrC9eb8fM7E86SBt99ISE12XrbeH4m9U+OPSUdk/oDx578gaQJkJHQn/yka7/Y8/OIvzq4oSVp2XtkzGgm5b8FI52fP6k93XcWAIyCAUDS++jYd1wPbk/70e0r+pPv7MmfeWdP8YjbNySkvLOn89ztO/pvSakfgxtW/fsOjC98vQ30T3y/cJXB9vuYeL8n5fcce/InLds+1uW+kDTBsceoX1koY2OhJ2tKa2yMH+2+ntwwY/7AZPaq8ednQn+yaLwfHWFUvdAcx+SGjaL+/+Tzp2jh+dhj3cz44QXXT1V/YFa8H6uWqY89fd+q+2VeeINaiXx2IH4Vv2S1RwK9UmdmR//B4q9jj/Rq9SePPfmf1v9y7Mk/bLrf58AGia7x/mQBgm56CIMbcvS8PfYUH3UtWM6JpJyumdY58f1bpWJOTCEOjV+OPZ2HQ/3zY0/nydD8xlz4e00/4djT+WP5pcnstKn5kMnktGnn28La0rT1v7FiN9WfP/aFGuaV5Dg35mOX1lknx/vL3v9G/20ps24lLAduXT/Hnvwf66+Pjn54nq3x9eIG4Jz0gl/ccZ4tIlmJPQjr7liJ62hZz6DFIgFRmRgKwHpmVsryARAJNNs1vzLSG7P1qS+uAxyAlIlDeoICebuJ16U2XnVphxgGpWosN7gKxhrB8N8KwOROe+SWXgC4lpo2axzAJveyK7d2cXwVleusAEoo5m5vqXLhbeiRtDgkC0KAbNGGNZagHAwFYPFw2odrD52XrwC6lrgzIluXTSjn0JdemuhfnQMPo6+Elg8VD600FmJB9Fq3ctgOACvX+5Eq+AQMTH4E76grALO11qYWgkpMtpL7+QBotZakDkZIPNG/kLUCsZijULK1kLILGTGg7OmJPnwEdVsB+FqLRrHrSg2UsH1Nfq1V/fIDwNdqPTAHgIn/qpHF4spOUG+zApBQ3LS2sLiVwqmya2Hw7uzdxdmKCF/kR288KqNemRRA/lgQY4sCqF2wDHOwNjcJDE3hHgCmFIZqEBwAxZBBjJWmZ24yjqbxoQDKMnlXweY0zZPn+gIgHl5ZGnjuzMt76X7YmSnLW/fDzkyV3colOABiBUXveFUAUmWtj2cXbhc07/4AsBEu6ZW12efzfqpduFHaCMUHQO3kByBNM5t9Pm9T2xVztMFCbQq4tAuqykDlJjKjcx0AHQIHIIfArtxqV7Rj6wDoqIyWRwNcujD11Gjcil219nkA2LBebfFxd0e1bOEBUDXzACQ9tC89w81Wa8P8a7WE4QFgY2izL92YsdHU/TkA0jiqxoHZHYl71W7R3TFoCibtUAB+uK5p6t2ZtjG0zn0AeC4NLVTuzjtuKLNlc+bWm+4PgLQAD0By/7vjcV9NTGYP9GaqtQseAO64peHAAWD77NIIZTN/IGirWQH44ayTdHOEUi3ldQCUm2l+KXLvdkuatD4AitifLNQXAGURW1Za5wHQYdxM5ykA9BustWhPVsYpdmpcpIaKuT+TVVwsR3YAdO02K24dAMq+VNuiE/3WZlFWAOiRLKl2AHQ/NL+BJvpLwS+1Hz3pwzWlXBwAalyZpsQB0IXSrKi0Fya9D0Bf68JzqVnZ5wCojN9M124z578NO/m4cB68zmoAqgROpTpsLs0cgGpFLcwJuDjZAWDxc5mTuJDN1UxOcS/M3R+AemQswNWTnXwbj5kDkCTC3hi89myX4uaSaX7zL9C51Is5JxsXX3Ae7UfTLRqkRwNQC3C37M/eeJAF7dEAdO32pky5vZHZEtKQ9lqJWurakwGg2vKwsGzjxR7qmc0AVF2eWn68A/SYuQK2/QZUiFzmCVwBGvhdAKZBfAfoPc2AkSxougLUm7kA3MG6AtQ5uQBMfucO0KTaFaCO7gVQLXNyBcwfe0smFnUHqL90AbivcQU0O8iwg8YkLzdTBIZpau6NZc4xlKS0WRxnTHPhOGc8psogxXFPP3opL3EzD3lY49lmIuABqDfD9/Q0Ku9mKvXMqiUazglc7AegP5r9pWmKD3vhDTQ9C7ewfTb0782FwwEN1bI/rPgwmzJO9sJsaBDo7LVS1mH2N1EWqSXE0AID4BSFbicfB01zaNl/cxvztBr7Zp5Z0NwsjsPvYJN69sROljntO0yMsqZp+e+B9elpzZub1YenqSfvweMp9ptHIvr8AWikODAsO4Bp+SU6l4Kf9UM5Mh+hsjumWpb1nESej3pijZS9O0+ByVb84mxokI+KAijPt7zC0fEwDmqQpbFJ8eEA1NfgRPl6V3/AH/22nEBcPlOy3I2naTVLeVXM3QdL5ofqQKtbXqOipkSQXqw0RSXCA9CMbuHfMCxS5JaYZQXtfRnSNOyRmAu3poWWrNZ8APqWWEB6eW6G1XTWUqL5Tpi288l1O/GoL0/mJLxQ1tYa+9q8RbfRYDZKpjyJCi8AuhS3ySucX0Vn6072SNxPvJO+pcUNy/FdjaSCjN6s98OFyrPtMF48pDCK/EZHoj29i3FDuWCxbYzaYiWa5xnxAqCK364aHgd5jv6Fakzpzr/BlGgOgFpzt2n/HwD1HkVFvSqAiGfPAvkngC/F3bRatridLurdSwHkL20fqMACFts6VJ7X5FcAfUvcgh3la+PoUs/wtkvxAAo9Utd7+ul9fAWQAHzxHJttFfAgV9Py7poCXhfhl2477qIs0zXrECR3+tKmDbJ4GNI2TyBcX/rRplayeHzYNhX5aJeg5T20X2Ky1F9EPFkBxOfbPoHlcmVZpBgtOrT4jFgwF17s25t0Ju+4aVNhuFQb0bO1kZGDtaf1tQ0+KqfyyCZPmt3GKJ8NCbGRxRgKII3GvbSsMyv20mxvNmJXOiqIWQFEEH9mkz4BPM8z8lXW/0r9+pERSwqgwC8A0uHMpakoOQpgYXi8Tcj7ANDXMK3MwTr1AVgKwEtxaywabeP0o613YAx+rdsGT/Fkq23s08FKI9tSLaNhCjhSyvJaK3+4rVHWYInqZ8nxE1B4tRpZaBRsrwyALL7MR+XWDTRYMW5vrXCMxBHKVjd0sE799hlpXBJ5VkFfACSuuW02UWd9w21ZuBiUyGtJOCd9YiZxW2jZOX36BsC5ygCY1M3lSyug86X4DoAOlgNYjPwtACNFB3D32jaBw85s7LcAjFAckJEg/hZAyc1tQ0V7uh0CDqABNA5om10HB/AMkLcADF4dcHESt0m9cf3hDWBwXsMBHXNkbwG37yCAxqGlA3j01lvAbccJ4L4fTIIUQxrb0weAvrdNe2k8Q9Dvh7pv97TqQXNt1+/pyr1lAZB/Yd5ODeHN1HlzTlyt+XIpSn/ck8X+pc9nItgX16EUBVyuXSloV+7b3Vtj0WeDw5eutGgpVywGbxs6WHmE7l42ErfegiYpJ1RuUdounV/4QrGgKVqK6MNZWFa5tywCP9Pax5NvmS53QiGXCF6nAoiTGLyDrQCqlgXABj2g32rDtsvmC8Uq4NHEx2kKndCxeD9MZSKUxRksG2FQrskcOYwvQ0P2VO++MNchkjk2lgTPJSMxFm7p9vxS4XF6QbYwAOb5fEbUxXWYWo97Shd9BZCCxVNL+Ms8n80mwktx2JQR1rraQwtHIX/F6VO5Rcslg2VdU9Gofsno2mAsjLJMQOkygT6SzDLthceHRRo7K+CSipeEVGEV+UjF21Q2PL1NVKRc0tjdpnYykzkqHF0BeGWZ0FfoYdD90G3Q9KWQ2mymJktRb59tygMst4lv58k3UNM0dh68lprNXB68RZseZLmjXtZuNqqUh3tFl+63p3duHIBX7W6OQSX0Wq2rNuaO8L+gU51ZFHCbyneoGXExWCpNmWVVvdycCwd+RZ3EfEnFWw9HvoRlRXP3OXPgV2xPX3y+YtNTWRx829CQzOJfT32CFwC6P9mmnCds5NomyM1aFsG+UHs8KF1+gD+CCawyi3nbSJJLHidpjnzxiZSM2sH5umR0FiY6bave495fNvmM9WqXlSkmzxex0gzrOS6LeybumWUc2IkRw7KB9APXZ9gXsactuZaWyAeeKsuGsA2mji4TYMb147Q09uTDfqk9uBXHXq7kq73WY5gEujQ6YgLyslCeC3vLKNGsl/rOnppz3z0PUiGXFoc4aRv2Se1p/1oi4jOw+nI9TLUnLrSXxJm++mY94/nzbj9e7G0/0nn15u9TCm/ZSGiei7qWCd5jo0/Y6/u5sEq7Pv9t/2615/X5Y/ZbdQAHNiAv09zjgXfLct8sKRD3qe6Xy/1b9D7CNJz5Azwdb1uzAXfWH3sVrOUsX9a8CTexP3nUT3t01E27lfWCtwnAby5VZNVV3ZxSLxqPbX7/pux0HFxqrwo9LXOhL+xfOdHzhVBQlEqVWXD3qaf1EmhQ//q2kYz5wqKoeio+5xV+GVJmBdA59yZoLfyjq/L4YpQl5wKEVZTrjcybLVK/5DN0LTX+0p6e6Lz4rP029G5puzWtVsbwWM76aITIF8g2jcfME9e26QhkVvN09m+eN+as+CD50gLQlXWaue1zd1utC926yFHKb2DFiN313MusIrlNQSVylD+WyU3Y1Ry54m8/XOEemj20lfs5rusrgI4Sz9xkMDQ9US7FeFMJK6xYva33u1TsT3xTd2Dlvz2Vploap1imfbh2KxjJBioNg5Y39Z/OWZNpX/rCdrQ5n6XzYWzdtOXSsGIdX4VlxZ5Nzy8AvIG8+Di5tu7lzcndIV5AnZyNXppnLReq7dJ0VFnY0Lgt3iksQeQc6fAQL4ClgAuhQE7vsnl5Lx3KU9ONSa7zohNGeXvp4qvp9uGklhiyqbyWhFRdL2W1bQOmed5AUEeyArCHZutBVsuNwSxCfrXeCGeSLK7cr7u3XlmVFUm3aeVUnt8bAJtjf3mtsrxr53PJmVGX2vq2GfCXZo9t++HSTrJtP7AAhFM8K4/F2ZbGrptLg1v91sqyMQcgzeLtEsdt9chavjEFdTZvvtEjJY67UwsVcCUvOuBCj1TAlYCpgCvF0wE/+JauNFUdS38lwjrgQrVVwJXM64ALXVgBV0KyAO6UZ+Hx3UnVCrjSth1woXgq4L4fDIDjZZKlAy/8+XcIpui/R1AO7h2C8wLvEXTmv0Mwu/U94kJv1c/ByVzf2v2+8Wyc8KUzRtKnl/nAAZDOGFaf3CZn3PftXxDXb1y8UZsyM9LtqpPL9Cmn9yUgKeDSoST3+ygcw1r/UHSKXbqspO5QOcdpwxnGJd1nlfBxofNZqSLE7i79dN4TyMtbi0WsdeSU9cs4XKesj3n7cKUo4PLhRL51sLKvM9DHNcKUU2OweN62yVEz8Wu1HtnowuV/QdunMxNorawW2nUch2udqWAhdFuhNbqhOejVytcl/b20qXZeOlh9GGS/ddbL2Tp5OvSeei4dALa8TqUkzslyAj4wc94SWTpx9cLDnPYdeIjSG/2BzUHvUF9xbq4q+MSixCefMZ/XJdgy5vNi+aU9bArZhWw3lHizeFJ95MuTAi4ZedVrulASLed/ABglW1VhXdjb3cRgCscd3UR5Ku8Hl2qpnN7oJkJSr0RmeaTGtcimid11rePpNLjGJIFm6jE8xfqN7A+PU/Ra5GIBwKAZbwUg07OaPg3PT4kSrz0SltqNNRxSdEyV9lGEJJ63TWF5DU5Z2nj2ENqipVHeiIXh4ivGv5j8G7JW/9elSJC19rIm1yKzDZ1cvB+ScUoXq2X4lEqeOr2Tpo7XZolBp7lu/NJr21vaTOQ0v3UzMSRGG1YFECFhmRhMkI+Z66pq3QnLo8tKWpuJITH1ciqATu9lzkkQdgjgYzg4UlxDCaNPIv5XANUOLizfaiMhNzekrm7zhCqTsn10Al+Ky2eEVR5jbhdK0F2IV2htKM/Wl68A3QDIPK42Oaqhv7SKjfHjzpjQrP2hOWcxYduEeomFER6e/QtI78ym/M6qh8/R6C8AJAgnWxpX/WN9pIHNOk+JthcA5fynCRY83fevAKqVOtC7Dx1qU7qm0zuUru2RaC0dgOofM5E61LpdQJyUrq0xeLMnMKcJV0/+DvPNyC/KL81hM2BYaGva7POn7tt7gA9nYOdk+tm6+Dt0u6cXpk+nj8vihFSkPUyynyLFaa70k6LwFaAYAL9DeTNFgIKmaa1lmwlrM78Z9EGXYkxzMEChR0p2CDAlLiZS2BgOatsdJtq2ecTRsGaKfZk9smzG8Mb4YfgMSXZDY/aIvSVysGK6iT0S+d6jv5knRLyntxNaqGfDZ8C81JLeI5znekdY7+QFYcNyvgOhDZ03hAWk34FQSvAdoa2yN4TNRvoOhFKhbwib8PQdCGPiM8LnVH0Hov3YL/dpW9+B0N7/G8KIhN+B6D/4O4yWekW8G65G0Wa3fOflXOj9zR1DBYPud/3G9GVvb0YBUpWkW55tM5cwBvX5yC2aWVffDBuk+nAMGzQA1fRinOGPDerLmgW73JMxktHnW/GUSP8XcJxhevMbcLznfjeSkeayvnMOcHqtD8/ZPB932eSmjSWJNt+Mb6MtGiNKzZXFscPDBjGx39iGDdpggaXmhwAPeGhWkriNWe1vfjS1BLf+Zs4YxVHNJPOfxdOvABqp8VCvGApsj4RryUYX7MVrqVomj6eANWvxikiN1lK1EUOXOcVFq1VRnoXjvtlUi82TOQ7gzdgwAuQ3U8BwKLAPYpqY5G2eELrMvPZxt5ep2padjwIw/Yb0ZnwbTgZPdlSyTk81Mu4eOHOiGsf5kt+pPs6QCzd12eIbuJaqNV5fklrVJwYNvOPqtCGoA4+ZOi2041lpB6CHMXP86rAcFcv+12Fps44+Xx32ljrqS9ZuUX9Hzn/16YQdOyOqSWlt5k7WZj3JPKmm+oXSsamy+gz4jjmqaoNnnnX1rwB6KfIsnOqzZTk7X6tN62xYw6jVlndDz/gApH8k+mPpS1cb1NeQRV1NVWqzxv5TmfQFgFu0WBasYTo/pEwFUPk7+B1X8Z6u2c4lHgB0AFrIrFiiOwC9pyum/qqPiq18kCW7pwsGr9WrJFw1rMnu6YI1veJTtZnNXmw4wqVUWkxr4zl57D1gWXY+448upt6zM16KxUaqRAUaPlzxScg8r6FMC/wSZrbLtBGlrKz7VLB5AdCpERIzRh0o9JaGZYUTHsahrmqD+iivEd21TQHE6I7+XSdY0FqyWzSkwuCYKc3mW22UJijNCEcL00XFCjehxkSAqsm+xYWbaO0uCqD74QB0ghZXq0oxHhdrGRRLFwULhH6DyRQulrgppjq4uMz4FHx9AZD7cwA6JZKVRIupAi4eAFSS1ocXhzTF7oc1kOcb6gtZAbTjsg0WCPIa/IZs7QRBj4O3dACijbOYPp2tjXkNfEvZWOkx9JEeyWZ0Pck17wFTPbIgQlIz1bSBiR03UJ5vZjhSRjcPjXYvdNE8bFpn498w1NENyiu9JZNEXuzzZSu7r8r9Y93eUsUOh2zCMos1Y7OJ/cYEafpwzd5SQU8gV6OLchNStqRajJWk31DtUix48oUsrhG0iQiZffIrk8yzMQFWxjxfztqftlgoN1s4cACUhTsAPQQyJmhDFrcpgMLjA/BHovshOyE1M0H7TUcEtoHYA13m+tnzsALF0mBjXciodkomHjBv25891qnO3uTKnffh8BxQc+onj7qeehVOri8N3ZeT2S1DC16TJ1nYoNS58MAeNjJ0IUvcyjKTOUzdWuRYSMYEsebC/WJJusni8t261yau/66n3GSyXVfq3GTd4WZTZAcmtywDOFkntNmg0IEecNOiWMxrpZy+9ep19E4tMjr2pNtYlWQ3O15L1WRpebCRxVGT52ZXLbhN7tovtv45B2Yij8HpQ3vd74WjNHUkjj0VF4wUFJNp6Q7W8shkOaFs53PGaD+bjHDCOkG29cyimdn2e+JYyGTJWR4jqas4mFNh+cfBZIGk9+9YyIhO1hnOJNakvvHg8WpJe0gHR+BJKX6D63FJiZPHnvwN054YHZMU7+z5/evzNLxP39nTeeL2LLzzzp7a95Lu91Exmeb2rIOYbCQznz++Hgr2+tmYg8FBRrKJzxn3u/U0DPbnff3zZI1kA6XTZb9I/bpvjFWT+tt9Y7XB9ntndlPSVGlnfriRNfu6PI8IU4RQC+4XYdQESRL3u9ShQzmG7Zfa8/kj/knnuRFJc9UXrZxkE5u5qyfZRFvu1k3qr/aOqb9kwjqNUyN6Phx78reNQdhZnSWrTsmxJ/8z6/3YC9LmzT8J2iX7P0XtUQXqzYxjIq1lpf131toteh52Pq/Mn+x8XhWNvxpze4u+z7bRnyn6PttGLkx5M6CZMqLFtPi4w6bq+XxRdKu63hrP0bFuysadV1XXT5uX+Esqu40LIk3XTxtIy7HSWmN1XVM6b9zK37Sq27jyYBoPoSJIBGOtzhx7qul2rWM3JuR0Jei3juuza7zQWKK523pu3Nqk+7019AdskGRr3L1hI6gr5hOm+ueN/dtp661yt6Vm6hsrAdqY18algGX7pfBcIo1nW8HzZNn5UHgOlt7vLbMclN6/xx5VJjRfcexRv97WA88wz0mLyi1x1c08ysZDPGPqhgFY8FDv4OC1ks+R1Umv7KRn8zoq33rZKul1cx0jqzZaXbgucrHfwHT8bE34B1DIszGKXOVUcQwCke8wuTZZNdldmW+QTZmmTvS2DkDSfReJ5Sg1FgXQ/o+RnfJaO0uZNltLHT3A3EzEma+0bDnvypTRGGYiX5oJnVFUXgpAL7mbNnZDOk0Uxk1BHPfD0ERGrVzMHBoZB02VAXJV1YKhbjYxtQPAXO3UZNIBUA9CtnHeNWO0m22cQ2VeYJ62ljLmA7Kx6ytr32Qb9FhZQS7bGIGaUEYyL2Wm14Q1smwqFoVbs2NGjI1CwGPGuuAKk/CyKe4eAMaZyYaPsICuZ07KYvJXshEtixmglnuIajPFgll5spchpsWaeKI+TezJrPdD4XAt6i8GIOekFFtLA9dSRPBFAXRqHICO1eDRocXI8kFTJUDVPV24F6TYPV14dkKxHoTSmZRadU8Xlq8vTRPX579Q4aO0N8N46JgpTYWMS0MhsoiFvz29IxvAPFkdZFMx+CmmZ1X4Uoy33hSA+8Hox6UyT9YC6AOggLV0regVJvwXH7BVmPY6bLZO4ZyWaZiWwoxoY5lE3pCWxtBewZKv3PeiAOS+T000lMyFcGtqKzxW43n0fgISl859EhTXkr0HobAnUJZmC8uF8G9TYMuF8G/KNJllYIpRd4NfzM0jyQD4pa2BPm9M6RXzZvKF8G+K7JllJIvJ0OfFB9k2dQ9WtqzG6s7Mo6pJpZ0yi23WZPIhC4/7mmy+6OSGMKsF5cmtTtn0ezgAr+ZgHQC5DjWb6g03PVdzsDLLtdX8Zq4lBX7VHKzMFbxqDlZmf+k5TusFgD/aih4RndK/UE30hafsPUPVFwB2SVelH2fOo1cTMsgdT41oVN0KoJTXAYiTmC+NquZg5cYdxlZsyJe+U9OtiWwN/YZuOkWcro9cj/0GbCPtyurOlzZSa9zOlzbSYWpZlfuwTfM984SCOuyOq6jeUF0EiQfO1ak0imD004ebykPIzMOp05TOKhKFq1UqMku4V9Ooy1zaqMbtztzZWpf2MGfucqg2gDHSzvRabTxiZjpjteGFmXWJ67bVyiNvQrJiK4C6fqpJVseUbtbpkDR2FBiIY5zsBspIumpJO4wzszJdayQn1nyxxrzMs4paViJ/TqzukzXlFZUhlqFRRzfxW7IGSe61jcqhjqAnKlIzmfuLcpVL+2BpOSq30qvBEk5WSWAX99gL12Dx++zK7WLqf+vGtcdCX7PJHhfqg82EHqyJZZrngzWDpnGBMbXXbIgvO23NTlNuoWxbuY0d09bNTrqGUVg37mfDaKGbHlHDS/nY6wBIXG/duokr5gu6NbxV3L+96Hqr2Ipw7GW9cWqrV0tXsw5jtVQYt9aY5iFf9yGqqM9Dt33vNsUaL/veNeznu75biY6pDy5smZE62adSE3iWV4hz6vPQtd2NS8JUv77U1+c7uG89TxKv563yFQm7MUO4NYk9Jb+GdW/yvMOR9b7g+3oYdzJhlOySuwkbxEdVB+IqG9zt77OUcdbvS/yI0fx74fN3zcMl9B/G0Poa5yrH0F7Ay/ey3s2EIVOIbuv7pPv02Unzsj7p/ZtIcLoJmdvz0H6fSUk8F/usxZOr/db3ifZFc8sXexvscbWXiJVbi2fTGPpi3zWqT5grmd1/L+r/D+29Tkh9m8PXG7VeT/Mnmcg2p2qXJFSfm6ZDmzBbFbMz9PsildMmJSVMJ0/zJxNWfZf1QnGQumywAFMPo1Nf7alVbBnNLzOVM1umAP2H0GOQqBzTYKEQoX+f4rtlXPvLyKaiRRJWmAhdD7Wn/bgsh1yw2raqcSUwpbDe+Lf4e5tyt1l3ZDVNirCYXUyD0viC6sjLuOQVW/WOvTwPi8UsExO7TIIytbKG8WboHgk3mZ/fsrTcOh7aUBovUwIo1Kr0719mnAmXufPkuKm9U4Op20v9PaaGHnuJZ3l40jLRPia3LosvuLQW9tILfhuUp9oYfN6+scfZgG+eh+KRsC9ij9PcrBY/sfV0GbGQJaOXabFMzL/5HMGrvfbiY/y+lmkVYH5jWTlgYj7nbn/+j3/+5Y9f/vwff/v173//1x+///afP7/+///22+8//8fvv/3XP/76+Z/+9ctf/vnz+V//Fw==);lineShape=1;" parent="1" vertex="1">
          <mxGeometry x="525.0007098515908" y="5.726196053644415" width="477.2718943989489" height="286.0820548527867" as="geometry" />
        </mxCell>
        <mxCell id="mYbbTou23b90Vkrzk86E-1" value="&amp;lt;&amp;lt;Value Object&amp;gt;&amp;gt;&lt;br style=&quot;border-color: var(--border-color);&quot;&gt;Nome" style="rounded=0;whiteSpace=wrap;html=1;" parent="1" vertex="1">
          <mxGeometry x="-130" y="-170" width="120" height="60" as="geometry" />
        </mxCell>
        <mxCell id="mYbbTou23b90Vkrzk86E-2" value="" style="endArrow=diamondThin;endFill=1;endSize=24;html=1;rounded=0;entryX=0.5;entryY=1;entryDx=0;entryDy=0;exitX=0;exitY=0;exitDx=0;exitDy=0;" parent="1" source="T1alL_IBdGlgNFhujSgj-1" target="mYbbTou23b90Vkrzk86E-1" edge="1">
          <mxGeometry width="160" relative="1" as="geometry">
            <mxPoint x="80" y="-70" as="sourcePoint" />
            <mxPoint x="40" y="-90" as="targetPoint" />
            <Array as="points" />
          </mxGeometry>
        </mxCell>
        <mxCell id="mYbbTou23b90Vkrzk86E-3" value="&amp;lt;&amp;lt;Value Object&amp;gt;&amp;gt;&lt;br style=&quot;border-color: var(--border-color);&quot;&gt;Código" style="rounded=0;whiteSpace=wrap;html=1;" parent="1" vertex="1">
          <mxGeometry x="19.52" y="-170" width="120" height="60" as="geometry" />
        </mxCell>
        <mxCell id="mYbbTou23b90Vkrzk86E-4" value="" style="endArrow=diamondThin;endFill=1;endSize=24;html=1;rounded=0;entryX=0.5;entryY=1;entryDx=0;entryDy=0;exitX=0.5;exitY=0;exitDx=0;exitDy=0;" parent="1" source="T1alL_IBdGlgNFhujSgj-1" target="mYbbTou23b90Vkrzk86E-3" edge="1">
          <mxGeometry width="160" relative="1" as="geometry">
            <mxPoint x="90" y="-60" as="sourcePoint" />
            <mxPoint x="90" y="-96" as="targetPoint" />
          </mxGeometry>
        </mxCell>
        <mxCell id="mYbbTou23b90Vkrzk86E-5" value="&amp;lt;&amp;lt;Value Object&amp;gt;&amp;gt;&lt;br style=&quot;border-color: var(--border-color);&quot;&gt;Dimensão" style="rounded=0;whiteSpace=wrap;html=1;" parent="1" vertex="1">
          <mxGeometry x="155" y="-140" width="120" height="60" as="geometry" />
        </mxCell>
        <mxCell id="mYbbTou23b90Vkrzk86E-6" value="" style="endArrow=diamondThin;endFill=1;endSize=24;html=1;rounded=0;entryX=0;entryY=0.75;entryDx=0;entryDy=0;exitX=0.5;exitY=0;exitDx=0;exitDy=0;" parent="1" source="T1alL_IBdGlgNFhujSgj-1" target="mYbbTou23b90Vkrzk86E-5" edge="1">
          <mxGeometry width="160" relative="1" as="geometry">
            <mxPoint x="90" y="-60" as="sourcePoint" />
            <mxPoint x="85" y="-156" as="targetPoint" />
            <Array as="points" />
          </mxGeometry>
        </mxCell>
        <mxCell id="mYbbTou23b90Vkrzk86E-7" value="" style="endArrow=diamondThin;endFill=1;endSize=24;html=1;rounded=0;entryX=1;entryY=0.5;entryDx=0;entryDy=0;exitX=0;exitY=0.5;exitDx=0;exitDy=0;" parent="1" source="T1alL_IBdGlgNFhujSgj-2" target="mYbbTou23b90Vkrzk86E-8" edge="1">
          <mxGeometry width="160" relative="1" as="geometry">
            <mxPoint x="110" y="180" as="sourcePoint" />
            <mxPoint x="30" y="210" as="targetPoint" />
          </mxGeometry>
        </mxCell>
        <mxCell id="mYbbTou23b90Vkrzk86E-8" value="&amp;lt;&amp;lt;Value Object&amp;gt;&amp;gt;&lt;br style=&quot;border-color: var(--border-color);&quot;&gt;Descrição de Piso" style="rounded=0;whiteSpace=wrap;html=1;" parent="1" vertex="1">
          <mxGeometry x="-197.5" y="160" width="120" height="60" as="geometry" />
        </mxCell>
        <mxCell id="mYbbTou23b90Vkrzk86E-9" value="&amp;lt;&amp;lt;Value Object&amp;gt;&amp;gt;&lt;br style=&quot;border-color: var(--border-color);&quot;&gt;Categorização" style="rounded=0;whiteSpace=wrap;html=1;" parent="1" vertex="1">
          <mxGeometry x="-140" y="280" width="120" height="60" as="geometry" />
        </mxCell>
        <mxCell id="mYbbTou23b90Vkrzk86E-10" value="" style="endArrow=diamondThin;endFill=1;endSize=24;html=1;rounded=0;entryX=1;entryY=0.5;entryDx=0;entryDy=0;exitX=0;exitY=0.5;exitDx=0;exitDy=0;" parent="1" source="S_hvaAE3DvoJQaI-xys6-1" target="mYbbTou23b90Vkrzk86E-9" edge="1">
          <mxGeometry width="160" relative="1" as="geometry">
            <mxPoint x="130" y="320" as="sourcePoint" />
            <mxPoint x="70" y="285" as="targetPoint" />
          </mxGeometry>
        </mxCell>
        <mxCell id="mYbbTou23b90Vkrzk86E-13" value="&amp;lt;&amp;lt;Value Object&amp;gt;&amp;gt;&lt;br style=&quot;border-color: var(--border-color);&quot;&gt;Descrição da Sala" style="rounded=0;whiteSpace=wrap;html=1;" parent="1" vertex="1">
          <mxGeometry x="-100.48" y="351.81" width="120" height="60" as="geometry" />
        </mxCell>
        <mxCell id="mYbbTou23b90Vkrzk86E-16" value="" style="endArrow=diamondThin;endFill=1;endSize=24;html=1;rounded=0;entryX=1;entryY=0.5;entryDx=0;entryDy=0;exitX=0;exitY=1;exitDx=0;exitDy=0;" parent="1" source="S_hvaAE3DvoJQaI-xys6-1" target="mYbbTou23b90Vkrzk86E-13" edge="1">
          <mxGeometry width="160" relative="1" as="geometry">
            <mxPoint x="140" y="328" as="sourcePoint" />
            <mxPoint x="-10" y="320" as="targetPoint" />
          </mxGeometry>
        </mxCell>
        <mxCell id="mYbbTou23b90Vkrzk86E-19" value="&amp;lt;&amp;lt;Value Object&amp;gt;&amp;gt;&lt;br style=&quot;border-color: var(--border-color);&quot;&gt;Marca" style="rounded=0;whiteSpace=wrap;html=1;" parent="1" vertex="1">
          <mxGeometry x="900" y="760" width="120" height="60" as="geometry" />
        </mxCell>
        <mxCell id="mYbbTou23b90Vkrzk86E-20" value="" style="endArrow=diamondThin;endFill=1;endSize=24;html=1;rounded=0;exitX=1;exitY=1;exitDx=0;exitDy=0;entryX=0;entryY=0;entryDx=0;entryDy=0;" parent="1" source="SjoaXMamBfVHpwQWyRi_-16" target="mYbbTou23b90Vkrzk86E-19" edge="1">
          <mxGeometry width="160" relative="1" as="geometry">
            <mxPoint x="870" y="710" as="sourcePoint" />
            <mxPoint x="960" y="710" as="targetPoint" />
          </mxGeometry>
        </mxCell>
        <mxCell id="mYbbTou23b90Vkrzk86E-21" value="&amp;lt;&amp;lt;Value Object&amp;gt;&amp;gt;&lt;br style=&quot;border-color: var(--border-color);&quot;&gt;Contacto" style="rounded=0;whiteSpace=wrap;html=1;" parent="1" vertex="1">
          <mxGeometry x="170.48000000000002" y="773.24" width="120" height="60" as="geometry" />
        </mxCell>
        <mxCell id="mYbbTou23b90Vkrzk86E-22" value="" style="endArrow=diamondThin;endFill=1;endSize=24;html=1;rounded=0;entryX=0.5;entryY=0;entryDx=0;entryDy=0;exitX=0.5;exitY=1;exitDx=0;exitDy=0;" parent="1" source="SjoaXMamBfVHpwQWyRi_-1" target="mYbbTou23b90Vkrzk86E-21" edge="1">
          <mxGeometry width="160" relative="1" as="geometry">
            <mxPoint x="128.33" y="778.52" as="sourcePoint" />
            <mxPoint x="168.33" y="618.96" as="targetPoint" />
          </mxGeometry>
        </mxCell>
        <mxCell id="mYbbTou23b90Vkrzk86E-24" value="&amp;lt;&amp;lt;Value Object&amp;gt;&amp;gt;&lt;br style=&quot;border-color: var(--border-color);&quot;&gt;Descrição da entrega" style="rounded=0;whiteSpace=wrap;html=1;" parent="1" vertex="1">
          <mxGeometry x="280.47999999999996" y="849.5" width="120" height="60" as="geometry" />
        </mxCell>
        <mxCell id="mYbbTou23b90Vkrzk86E-25" value="" style="endArrow=diamondThin;endFill=1;endSize=24;html=1;rounded=0;exitX=0.5;exitY=1;exitDx=0;exitDy=0;entryX=0.5;entryY=0;entryDx=0;entryDy=0;" parent="1" source="mYbbTou23b90Vkrzk86E-41" target="mYbbTou23b90Vkrzk86E-24" edge="1">
          <mxGeometry width="160" relative="1" as="geometry">
            <mxPoint x="328.33000000000004" y="608.96" as="sourcePoint" />
            <mxPoint x="230.33" y="688.96" as="targetPoint" />
          </mxGeometry>
        </mxCell>
        <mxCell id="mYbbTou23b90Vkrzk86E-28" value="&amp;lt;&amp;lt;Value Object&amp;gt;&amp;gt;&lt;br style=&quot;border-color: var(--border-color);&quot;&gt;Código de Confirmação" style="rounded=0;whiteSpace=wrap;html=1;" parent="1" vertex="1">
          <mxGeometry x="440.0000000000001" y="610" width="120" height="60" as="geometry" />
        </mxCell>
        <mxCell id="mYbbTou23b90Vkrzk86E-29" value="" style="endArrow=diamondThin;endFill=1;endSize=24;html=1;rounded=0;exitX=0.5;exitY=0;exitDx=0;exitDy=0;entryX=0;entryY=0.5;entryDx=0;entryDy=0;" parent="1" source="mYbbTou23b90Vkrzk86E-41" target="mYbbTou23b90Vkrzk86E-28" edge="1">
          <mxGeometry width="160" relative="1" as="geometry">
            <mxPoint x="270.33000000000004" y="683.96" as="sourcePoint" />
            <mxPoint x="280.33000000000004" y="828.96" as="targetPoint" />
          </mxGeometry>
        </mxCell>
        <mxCell id="mYbbTou23b90Vkrzk86E-34" value="&amp;lt;&amp;lt;Root&amp;gt;&amp;gt;&lt;br style=&quot;border-color: var(--border-color);&quot;&gt;&amp;lt;&amp;lt;Entity&amp;gt;&amp;gt;&lt;br style=&quot;border-color: var(--border-color);&quot;&gt;Tarefa" style="rounded=0;whiteSpace=wrap;html=1;" parent="1" vertex="1">
          <mxGeometry x="215.48000000000002" y="460" width="120" height="60" as="geometry" />
        </mxCell>
        <mxCell id="mYbbTou23b90Vkrzk86E-37" value="&amp;lt;&amp;lt;Value Object&amp;gt;&amp;gt;&lt;br style=&quot;border-color: var(--border-color);&quot;&gt;Id Tarefa" style="rounded=0;whiteSpace=wrap;html=1;" parent="1" vertex="1">
          <mxGeometry x="12.68" y="508.24" width="120" height="60" as="geometry" />
        </mxCell>
        <mxCell id="mYbbTou23b90Vkrzk86E-41" value="&amp;lt;&amp;lt;Entity&amp;gt;&amp;gt;&lt;br&gt;Pick Up &amp;amp; Delivery" style="rounded=0;whiteSpace=wrap;html=1;" parent="1" vertex="1">
          <mxGeometry x="280.4800000000001" y="668.74" width="120" height="60" as="geometry" />
        </mxCell>
        <mxCell id="mYbbTou23b90Vkrzk86E-43" value="" style="endArrow=block;endSize=16;endFill=0;html=1;rounded=0;exitX=0.5;exitY=1;exitDx=0;exitDy=0;entryX=0.556;entryY=0;entryDx=0;entryDy=0;entryPerimeter=0;" parent="1" source="mYbbTou23b90Vkrzk86E-34" target="SjoaXMamBfVHpwQWyRi_-1" edge="1">
          <mxGeometry x="0.2579" y="-29" width="160" relative="1" as="geometry">
            <mxPoint x="208.33" y="688.96" as="sourcePoint" />
            <mxPoint x="308.33000000000004" y="728.96" as="targetPoint" />
            <mxPoint as="offset" />
          </mxGeometry>
        </mxCell>
        <mxCell id="mYbbTou23b90Vkrzk86E-44" value="" style="endArrow=block;endSize=16;endFill=0;html=1;rounded=0;exitX=0.5;exitY=1;exitDx=0;exitDy=0;entryX=0.5;entryY=0;entryDx=0;entryDy=0;" parent="1" source="mYbbTou23b90Vkrzk86E-34" target="mYbbTou23b90Vkrzk86E-41" edge="1">
          <mxGeometry x="0.4162" y="21" width="160" relative="1" as="geometry">
            <mxPoint x="278.33000000000004" y="678.96" as="sourcePoint" />
            <mxPoint x="200.33" y="758.96" as="targetPoint" />
            <mxPoint x="-1" as="offset" />
          </mxGeometry>
        </mxCell>
        <mxCell id="mYbbTou23b90Vkrzk86E-49" value="" style="shape=stencil(lZ3Zshw3kkS/hq9l2Jfnnpn/kJmoJq01ooxiz0z/fQNDq6p73bMOyDctEXUzkUAsHh6BD/lvf3365c+PH1L469vXL//4+L+ff/326UP+jw8pff7j08evn7+tf/qQ//ND/ttvX75+/PvXL//849fv//7nL1ty/9N/f/mf/Qv/912vzFsMWyuFf33/L/HWx///h//6Lv/75z/eyo9bbSrfQb7fRlL5hvKp/Ix8u9Wfkq/31/th+WDrU0G+3JKtD8nnW7XnofVPt6nyg54/3YquzyT59b/fy6dbYPnSRD7Sfgj6/OmW6H3DrVSRz/O1fJ63MUW+RpRPJk+/P25Nn6clkO+3qb/fCspnXX+Ub7em64/y9Ta7ysP+XPLJfp/ki57Hg3y+jazysB+WvNirdOu0/mu76PsO2g/Rv++k9Qx6XtYD0vMEXc98y3C+0rxvr6d8yygv9irfJsmPW4nv5JcBg+dPy54Pka/0+2s/V5EfJN9u4718xfVc8nmKfAb7s/73zCLfYD+s/y32rd4G7If1enLe2y3Q+67lSyKf+PeDyhf6/eVfgsjj+6a7e3jKk//a5ljlZwD55d7en5fO6xP1vPdbpOcJup9XQAH7Ia7z1UU+g/2J4+5un/IV3jea/e9on5d80OcZ9PvtvhxPefLvcdnz9+szbpHki/rHgecr5lsJIk/+ND7c7VN+wHmPUe3PMni0nvGWg8gnet9wdw9P+UL7wfbbvHU4X0tevu9E/7J+7f3yrB9I8Pvzbo3fyFP8M+/R1xt5sm/zflof8hGfZ+hxX/K0H4aGe2uDkH1Yu7eoPPmjx2l6yOdbgO/bbyWpfIf16Wqe1wEqsN+abv91QDOsZ7t7w4d8Q/l6tzYP+X7fsC/ko+yHcU9QruPze/T1kJ+cv+hxXAY+gH3Llo6k+xO+kG8STnJ8ldV9Jf5e+Z7dPORXgAD2cO2u9+Zh+2vy75a+LH9E/lHN1T4RsD5Jz+M+0RRf3XpQ+UH+9x69P8LPcE9QXsm/X88VgPP6SLqzAvxE8YaG80t+4vvKeVkJB8ZLFp4X9C9LPqg85e9J4YGVkPH6CDyzEkTyj0nTtZ1Q4vet7/fbSlgT2PN0K1PlJ8vL84/7DnwlL88z73/xhbyk1yUczld6vz9LxHhpWaep8pPyEQ1vS0I8LWl6twEkin/u0fhDfu1P+L5R/eOSnygv9r/U+w58IS/nsTSM56Pu5yVP/tfgqNLRP0a1/+WR4L6QT/L8g+NDjU/KxHgjavyw5Dvsz6D+ogb070Hhz/p4whfyYp9rxPwu6PeqCc9vuHvPh3zGeDVoelELnt+g571WxDeCxie1HdZH4Jy68lN8/iTwA+df4f60D/mJeGnQ9K4FjE9cPiL+5vLLn/L7iny5W7wflK/oT219WrsDTq/k3++HxvGVfd827l/wlbzAPxPzF9ufjePnoHBXD3cA6dV5Ebglov0P6t97wvh8yXeVJ7woaHzeT+e9y/Ow/wrqv5Y8+d+gcEKvB3sl8HlvWI+IBucw3hU1/1ryFH9Gzd87x/9R4fAlT/h5VPvcD/iJ7YeJeHvU/GI8TsSr+CSrPPmjqOWmEdFfr3hMfn/tf4wnFR5jf5fuf/0hn/F9LT8aBzxf4fNREJ/MGm+MesjHU1B5ykey4idLnuKrrOd9ML5R7t72jTzWczX+HB3jgarna8kTvtc0Ph8D8bGm+fvg89g1Px0Tn3/YfnsA3j+GB85wRzBe4plVFSghXAq9qQJFKNFC+qVQKWVI94jqxxUUU2anGrOiEDPgKdggYFcFClOeKODbZaVVahcvTRsvdkVylwJmYl1Tja1AqzTukcBbBXokq3UeFDx7OCnEi2Wl8H77A38H8h9J6z0zcEHPCuCHA7RN2E/tpWXDqr10IR/VNCjdCvRI/WKVCOXfRSp7BzJLu45gR5Ty4l0IcQUidgRFApYCIZ05quuZHIoshWHLSrW6nLQ2PB/smWuFrGjDPKDr5m5PCkXz17OCAEQnhaoI+1aAL70UBFLdCrRK1Y5ovEd91wrGMZhc9FoK3RQymMoNoto7UFk/P7KCNwqV6hBDA72lQAdoKRT70oOZUWrImDq2qVdVFSi3zlarXwpkyEq4b4Q3CoROLgVhS0yGYzedzV6a8NJigONkwlAxRHYpkH8oyZY1Y0lrI85ZFahmU7KCLkuBgvqSteo0C544Z1EuBfzSRWmmS4Hi9FI1MZmViY5NK3lLgZDWpSCh+qxcGu1aa5iNuZQrIjMFils3Vl1UgdhYS0FNZcd0uEyt90zG15bCrKpABfwa7vycNwqEOFWDvJcCpdAbEZdlHXcU55VCNQUyZBtDn6pA27sm263j7vVeKQhNaQ7cfDUbT2agIaseOkzcGtVS9aVAXrR60jSZ61CMuzORzFWrJU0T87iloP5hom1dCpo0MZ+oNstQuKC5FHR7T0R8alfIaivQsnaLWw8KHjocXnpacHL4DlNhnP2l4cQ1q+ssBcp2mwG9+zyAbd11EztxxAxvxkzeVgPMTMv38/XGkA1WcMtHUEvzE9eRPdCqJX5ML10KGiQ2rH+1ZieuIkDWup3pysvq27sgBbEN5dgtBeJEtmmOPWMovRTUP2T0Dz1YlpXQx/VotMWEW2OXgSz2JuJQN+bQIUPp2exSxCO6FDyfpkigF8vjGDnZtSNDW3FZ6wXcSta7N4VPl0KgR7KocgxeVmuoWgpUgV0KWkLoaMi6Y8wdU5o+lcQ4GsJFfaohG8xqGgYMjke8f61gMd8oyDMZRqxZCkhUNabYyFjJ3IUheaSETnEU5RKthyTce5SLYhqSc6uyxdaXoc23PpPkcWuzUHCyFCQdWNuR+JvDgJB1Qgig3fUYeSSuEC8FCeF6xtRyneAq75AwU9yArxStGcHayKSwEph1vk3v+823nBgBUtNqKMsRk+VbCgJTLFdPedz2aO83X2NMYDlZScBXBEWlvqUgaVmL6OM2AvDezKwokI7orBoJVI4ql8J8/w6b/kOP1BTMWdF4hgO0EQBRaNwA0NQIrJyFgPInAvBGgRzK7JrS7MyOVqlrwWIlmxSRLYU2VYFYwTtwNpoaGbKNAAiPLPJ5GHqmlwKFoXOoua/h9Eiy+crEdGDnI1MVcLcODbA2gETfYSjbonRkk+0kTLoPG9LJ5lTosTA/75kXPhQqOpSdecpfKOgUn+n2QyFjGDqtNFUSVpqmZbuFSZhzKjZTAgK0W0Fo8kzbmRaR7cbow18wIjj6h3kH3h8KDZkyW+H9h9ulJP4LzvU/rJKS37n5e28+WdaICcc+D+93aw4cCQyFgNPg/q2hTnE3MPJfkIrfLg/TspptTZV9XLcRAgXx1mnUhU1jokdqeuI2j55e2tqsNtGO/kK1vqPAPq6q5duNU/ThrLE+Mt66AiwJpePBeud7SPhQ6Ox2rVkmduQ6rDBUwp/Y2GpY929smFpO4w/HiiWR4Q2QBXG+nT9MVSDHPnyiScYW4GEtvTFhz8ym7GVVwKQpK+EpcjF4JGvzi0i0Gda3EQNWXoeVdZ6dsq8wAfnSE1d1JZ5av8MT3Zu6xIGlsm6DAgZWBlbWqYgDgyZW0enooVcKqbk65gHdmPQdib7tAYc/5al+2rri4xzpOfDb8H1Xuimdww2JuBvrlmQPB2u0rDSThvFLs87Mhta3GfO4YaPHymWrytP+2QUNHZRBCUzzzhyEGFbmK4MjKpehptaiK/qOavuNYZtq+VRBUkPt+r0Khpu1WyaCRNmVhmvnJzLeqrGUmCheqxJLOCZaObiwPhLGH7t8KyER1yWzMgES2pNdsdZBPWRPajLHjcH7Sr+FPBR5P0cFgyI2WlajDsWfJD5wtWMzK95/L+YClqG/z4MdylD/xYzMndnr7yPLqCv+zZTpJS+TEZi0uuW7yNN52fL6vhTGXcr/5PMg5enifSn+KQZ8B6zHXX0v4mE+kZsflu/2PPy+wgk7vm/X9Sfg50qe2CaX8szW6rqelNpveT2/SB/rWj89npemz386j/Y8/PzNnof3W9X9QznJ1fkioPvyPB6ex/YPv689PzLfLtaHSpTFOnm40WbLqz05nd+fkh/qvwLmR8Ww3oN9nu5fKH7e/lF/H/110Hg4IMeiOrTA9DXrVIyneCarPFKakhaUI2KLu08+iTzlRzt+08GGRDTY8aHGY3Qea1VGSWKGYjMQDzHt2mySC+cLxqbNWE6pBltmfp5hdQLmfA4llPHgxGpM2oKD4FrQzsOK37dZp/eBJmWTKSpy+lq0QiRCfc06rXjQ4s6vdZAjxcMta7zUEALe+IAOciReQTP8pzF+0nT9G/rHZva88WCxoZ0JzMzrPhnhiC8pHoV4nTVZMrFj42M2OJF+v+r3GsxPM97sQK5wtwowE6o3PinstPsLvQJAleKNeNSIGm9EbsccSQ36UqAT+ew0fwP6kgsYxp9YCoilNy2SR+7PGcZdjpnHDw5tZYwZzcqYplAQ53j25T4UKtdlolJrlkJjBfEcsTEtxdF6bvOYNrTzMCVwc3Fklfi0LQXJNuLgl64Kr8XJdfuq+dghYHdqTToUyZsu62G2++w6zCMlLLNMw0j2PAR6h2FBVGH+hI173m6NFXRZO5Kd51RGaxo4UW4XyeWlJ1qNXYaXuv2hOOvMAB4SuhSE+JIPBKSp4HQ+GAHLbja7Af5CDBbfbQIF8yEUQB5MEjQEP/OsR3/rEniY7VSM9zAdb04D5bm9ck5FWUrG+YoX3JqC/QV798nEOK4wb0KRjbyjNqZpLmjl8kiws1LoYYjdPqPyHQYWRzaxS/4Cd1ZtsyHVIJ7MMIfCn/UwiNjyr8oA/SaySIKReJTy0FV61ihemW8JcXcRhFbJeYs8HW1TZYYqIGuk20tXnFe1nJwYpsp50vaKURUoUV0KOsKvM8Gu2Xfg0vqsCl3XeSLjCMep8cSYZ3PxQ4Gvbdn9zpIdZuY4ZSMvF8SPnn3nD4XK1jspLbd1Diutw23lmES5eE56eKRwXBOYNg3v2af0KlqXL925ijlsfvnKMwkm2QmEpKE8oHtYXaMzUWD4xP/OZJx2McON7NLKy8TH9YledBTN/EbgHglL1kfESGBkY8skzsuSDQbjIQXDJ7/xARpRG0NGxQrBCIpwDYas9ig8+QuM4fRpy9qxSLC7a6x3i5zi2moSwo2BZYtuZP4xeOC++YcxkM3Wm410m9yaWO2lJyZBS0GpYMc+QAnhZmDwJ2u8NCOih0tBmMK7ZYcUko1R40Gd3fhFu+OTXtpGP05G6LsPWuDZ+91nx3Ga1YzMvztvScGiynlA0btWYXZsQDC60YAmDxBt1qAzuYOhVZtOx92Se2KuvMOhi7tYQ3NnbN9nlnUm8/lgqoFQYrsaeIFzF60890xyXikEU0AAPtjmm1zh8nFFPNu3WnCyM+xDDcoVqKh3NcqBqiaXwyLIel+OozgoiEN5A3Vca9iB+AENH9uBD1Vtv04c1bbTMHttpKMVG8UzEepbCjrLajKhMWtsPCdXHLMNXZqYK+50OKlCAnNcfeQF3960m+zEWHJ7SzVW7OS+pBrNLQ6Ec/Y4ITdlVFi2pGbyiOYyLXjoGH0XQ5j2SCRSMG7gYehSGZqzT75Wza99nY3nonWj8ze0rsV6ejagzxO/BN6cHK4XY9ROpjQXNwKVOWrFgofCj5QVMHo2Ob9SkBLEIWIq6eIvECS1x83JOzBxokStQy4FyndL1ALBBkd4ip8OXcpoyEqwEcPcP1yC1r9mxsQsT61/Tc53szW6zoT17w3uT1XAyd+GbMyEjNl9c49NU6TGvmwUusPMmGwFs8mk7j1o04aFkuXLhp3MyMta7aX5AruloClHRNt6OfCUou/LkaqUyV0ObUWFq7GwBwUfPItj4e0eqdPAUx+ey9DgxXhe7r3N4SIFpxwlTRv7F3nU87jYrThMupvL4ra7PYjZBwDTIzVLariElzyU5jHJl+OqKdC9HIhNmO7lyG2K+S6HeuOlyldjw3G+9dVgcrwW62r0OSpcDVdHhavx7RQ6XA6Ip4gsNjNkfPffHnJvL42XkVjP3mEvXQ7qJ1ZwtPsXJyPfF5cN8HzrGC1YPyh4whGwcy+GC3gTi4TGVOMbGRx1YOaZdbY8yzbXSIt13k40k9WmtDG3yK9AHhztacV/cIGm2B0gfEdiNvy6cWxoz9/4znOrhPAdLMmYkVwz9slm5fD7sn9GYUer4cvI+H2TGq4lj3dEW1kmYWtLtIpGRHqddWLvUhP+vt6Zc7CjdkcNt1L5HVM8zzXqwKfOo4Gj2p8+DncSCt6xRxDynYdJ5Wk9bThmb1jd9zvKGCiwOmCvhzsAJdvcgynxjjstQfOdtEHdaudc0+646+l0R5+Nq+M79MRFdo6egkbubR6eX8e2MfQf7o3FD/lxuGNQkv3G1PWgnRKN7bMx+453Hqr86U5FlT/d2ajypzshVZ5bDy0+qRPBRFvPOg53cuqsNm5NCMYvakjetP1ZmShg+79yq5Df+ZmRbBdsvl7Cor/foRox7PZOIc4Rg3babO4frr9yNrngH3RAbeHRLEGz6MJ3slnn/7NX9sf8aeH9Zv668LUNdmfjE8p+FT8YQ5X2j3VqlYIgmt/hXPC8RKUqFIZjo33fhDyzqPF/iYc71cX+LHkaNWGjrwu3xiadlJEnxpOWQmZmzCfdb5kvtEjqrzOP6bJ4OzPhIGn8kLkVz+7MzLw/k8YzuWBrWrKpewXPe9LRU5lbRf3O+YSgguU7OWErWNLScGZsNOl5zwFbh5NNZplIikmavySO/5N2pu1WPPy+UnJKHfNxKzvvVktcT8l/NwKA+bi27fCdw1kRnf0LhGVbZzXPki0K6iaGyQyviIcrRDS+inwRhXVaRr4UqFr/WkVMrel67pF8xMEyPkjB/Wad4ZFHK9nklMiluK54dORpk8MmBRzmtlvnJ48LtwHmkUcpTJs/yKN0bGJuPNC8rbqEcNoFnonbOfpNjnx1arCyDMNFThRG1mK0eGagO332wD7lKX2MWf3X4Itci+5/Dh/WabVObNo+uw4g+AmHt13z8c5349rloR3dabQx1h0p/9FawhqXxCyfargfPL9ouJ4pKn51CMeSEo6YZZ6STwpAODZrcYuv8NmDNKQdB8l3yao8lcOTomymyutjk0oqX4drfEOeZ+zX5xYOz5tenVC4fNnVX/DdiMm4WAwXJZucmJG2moxNlvm2YJt/nrG8k4NNoMb+4Gx4csL1XNG1zm7G589J/QtP2812b1fCyWLPXuM38hRO2mTohOFzruq/jvJibw/yTYuuB/mu54XTo2zx1UF+6KStA23JrutKCDdm62rmyZWbbSazEJgaafhVZJJg1PyR4b0StQcoYnmhWD4bsXy0W7b1+XHyXVb7cJikaZfFMm+nVMWrj/Jdn4fSx43m6fqjvA8IP8kP/V4oPywf5MmG0yejIdfXLi04//5Pfa+p+fhxsqpOlUF4qVj7PMMtxaiZEf3FlTzSVy+eB8/jxfvi5NaL9cSrki++F409udoPyEa/2G94T/JRfv3Dn798+/T9X377/Pvvf337+uUfH9/+/9++fP34969f/vnHr4//9NenX/78uP7t3w==);lineShape=1;" parent="1" vertex="1">
          <mxGeometry x="-197.5049034983267" y="-199.40006430683138" width="491.843343546876" height="222.96076607211398" as="geometry" />
        </mxCell>
        <mxCell id="mYbbTou23b90Vkrzk86E-51" value="" style="shape=stencil(nZ3ZkiQ3dkS/pl/TsC/PI+k/aMbmkDYUm9bs0fL3AkRFZZV75AFbb1yuV0YggLv4XfAp/+2Pn3/4/fOnFP749vXLPz7/5y8/fvv5U/6XTyn98tvPn7/+8m3906f8r5/y33768vXz379++edvP/7577//sCX3P/37l//Yf+G//sTN8phjo1L47z//S+qPFP/3v/zbn4Bff/ntI6C1j4D2mAkBcSrg//7EPSA/eldAGQjwX0gdAOlR7B1CBUB8tPARUB8jAyA8aldAg2Ud85GrAvIEQLcPVx8RXnqsRZRfKPjhRnmMogD6cGN9h6aATL8QH0V+IT8m/EKfjx4VUOEX+niEpgD60r09qjxSelT40n2t+lBACADI9uHitR3vAekxZfOFxywAiI9ZFVBgayxAtF/AVQqP/HGV4nw0OKJt/e+kgAzv0Mb1iu8AtKwLkD6euDgeDV66dXukwY+09Jz8QsfvsABypheAdmurqvkWIMDWWICUPwLe9u89oDy6vHS93uoVQJd16SX60lm1RizXoX0FEL0UMz/SOsFdAYmWNanWiAlP3ALkj1ojLgMA52EBgixreAxapXgdl3eASNs76olb54flw8d3Ho9KbxB0jfpjsHzJIp9YXmxDu3birXydjxlFnv7+km8fN0XF51/yYnrqo4C5XfIpifzheUIQ+UDvOx794/oUfv5xPe5TvsHBX/JR5cm9qOvzd5GP9Pz9spKX/JseeCUv+2EZcjiSdW2XIfLk4i35EkQe13+pQfEhH53Wvz6qWHE0sUs+il9xqe57+WIK4nrAV/LyfeNlS+7l86XQnvIVFNaSF0cqXgt8L7+WQ3Quv+963CDypA/rcoHE8l0K75V8/Pi+4VIwt/Jlqr4N6PCXN/X6lKf1L/3Rp8rT83Q1egEtUmm6/uEKYe7lzfUI6EgUc3sD6s9SNCBil7Rk9WEDmuwln+x5aH3SzfOQfFS35igf9PuifLi8qr8mn5e9+56/v+TDd/39m/18kI+631B+7f+s8vB9l3zW961wXvLNeamw33K71P278wLnfckXfX7yZ5a8rf8g+aqOesBgfcmry4qRQ67msSLtk4vut3gFN6/ki+rzCvpnyUe1RxS9ZdMPEf2NbPZu2V96nmx8DOrPJR/U/yH7lZP6Vxn9sSUv658vg/lK3vzDQPt5LYf6n5nWP10EwVOe7FeOl/l8+sO4Pmu7TJHH827xUcXYPEf1Zxr6Mzmof96uD/hKXqLazusZLvf6KU/nfYV/8jwDz9eSF39gIsOz/3cXedr/6+e7hP1vHtcrQDEAnfgFUA0RkfBMFsIcovgFaPJI6dLarwBKXSRkqneQPBRA22gBZFtsrgP0enKSKvNLt8sOveNrApycJ3v/DkCmfp+sqQDyvRcgi+2oeDg3e28kFZ6eai/d+B3qFZ2+A1A8ttl7eYeOBExygzyukPEeUNSDWgAyCQsgWY84eS8VjdEXgIKgHfM78UyPlC+l9Z7apgO0rOrHl06R9ZJxf9vw09ZIekTXfxm0SsuyyTtkDJ225ySAgr7X01V8ByBnZwHEGdzsFmy+9V2n/EJDtn0Biufo4Dysvan8Srs8uFcATVexBV3nazQFdFilBUjyHcYVtN0DPIM2rijgHlA1xbDNJAGKWtGDmV7KXV+a8yoLILzwAlR66aTE53Y9CBBta0zk82NQ6mE7Q/QOQWPNBciUs9bvlpl8GMrNLHkiV4ca6SU/KAWors/2RonM19g0c7DWNJ23vWMiDy/X+p08kkWawdzePZFXV9brTT4hGVuUK93RCTnzqh+XPAabasyXfAerkzW22NEeyouRWvKkJ5JymUue9k9SbmBHz2Q1bf0Lnvl0Ze3f5Cu7hPa+Fdc/am43V3SmonH/B2Ojfvxmg0jt2v7vuP+jclF54HmM6lIsefL6o3L5eaJHYen7EjA5EtXV3Gwl/H3j2jcbClYpaKxfEoZ2Qa1eyRjsB41ACpMVQbmEUjEZETSXVd4CjBfyZaj8hP0TVP+XfrE7r+Q/7s8ykCwNyr2ViT7vnTydR5OvAV2CcH2dN3km94Jyb/W0f0Rf1Xx4niTcEidng9ZA1HbYb0m4qH56no/ft070Z4K6ZI3J5HClqt/kE9ZlvXlTb/IZ3dag+rBV9FqDRn2tYTFDUH3e+mH/S0TWBpL/UXP1jcmuqN+rc3ItWq0E+1dRaxl6wuSs2dOeD/ZdqoZ6YY5Ic0G94n6wgrXeDv6VnJfe0f/JmrvrA5Ot+arFeZOfWIxZLl7xjVsNWPNUHuXjeRwR93/R7zsixhdFa2EGJy+qMqXjUMyg53dkPI9Vz+M4FHvofhgF/eGmvNNg/dxs/Suel6a5oNGuiPKFvATZS57+ftfcyGCysOt5HP2y+K/ix6TyVG3Wr1Tmm/zAeNCYlCWPlcIa/w72V4c+/wwYv1huYcnTfpua25mcfJzqn8y3iOaFvOTiljwxrzFocnAyix/Noi4ARdjRTN4sFwf4iqURnbs7ASjGiBp0zkOQZxnF2TBq3qmQpABSizHbd3urKnvJlk0FoCEuSqTOjvz0JvA+mpo5+EtXtTXzLTH2CiAF6vPg3Jj2XYAGpzk2DVc3gB6pae3WBlB8bsV/c5yo2maPRB5CHLa9x/XtXwGGAZCTmJpNmRMz2ilolL4AB9pf1d5Et915iQ0gPzCZopzoWG/mKSuAKtqX66VpZzYNu0zB3gHzZkUT4RtA71BvPhwCmpa6nQFSm3ICdCV4T4ChHtgJMJXyPACycSAnQLz7Ba44afYLxOrtEh7bGuRG5qIFAHNy0VJTInMycbKr0uyliUnL4wo8/qIiy/Oy++/VPTxSCZpo2xaIyPxkeolL/4u12y0AVT2UYrUkHVXlAqg30zDgLFUZtQWgNNgm9GRZ60VyvgJIDDy5IMkLdieT6AsgUe3yyOjElaElhQuAYefQdOTyKvHDTdN8Ca1osaqkBcAyfaP6dqslbO9d9y2AgNnFGu3DcbKwJos+J5aCLoDs1sG+Rs1qgRaAKpmqJcRGx3z+AggDvyJQcrB2O4OFrNgv0ZQTXTE3LmvXpMMo/KW7poVH5haIoWmuBcAehalO4khY37KbkpoCEhENQf3WEa8Tcg8wF25E/oVkWyNguUozcm5w5f6T+30HoN3aitq4PrkZzkKazieuNf3SC0BfupluXQAyim3oh+uTOzGnnrg+MAfUzU53joG6ZVk7t/T1rLT/AlDaohfNo3R2HXpV7b37ralZ2ir7NtNLL92Vyuwdt8b638KV9o7xdB+2NToWG6yNEA1AW2M3rcuyNrQP63wJc9K5WXIELVjpDbfGiPbh3jjUVwBJAXcesbAUo55p5lj38ABZ1ooFYptzzgqgLMOwMpQFoDTJsmia56kYPwyjWhaAKso2jywvXdA+jG5nuqDmG10r+xaAao2Gn4eM/NIwK7oA+KWnrRL3VuxhGlUBlI+fVkDRI8ai02o4O7cTLrdW2rV64BklSV2HZTGIb12uuQTgbaL2nsacLCNGWZ89ySUrgD7ctLzSzsPSsla1ostyUyJ/RW3RMsmU2Z5GPTYearIjT3mkjGpmWlPA9qBolWzkSOPquGmdEC3wgByrT6zMnExr/lu+MiX4nkTjG6BjSebmeqSEgedKTO/XL6i9F0DCgd3CzO+gq5SQDb35hYjphA2wuhlydKdNQdkhOW2+qZUShb2Z/eGsFInyD9O0d6mnLy1q5knvvNqtUp1QeATPHPodCrfhbEZMXjryOwyl7QonIBdAKxwnxkCbQrMSQWqHmpajzZ2VsTXE5oak2vSJCzwwaulWMVm5sNZoVjfN05l2fu/jedhtkbRKTZmTXRlMZ7pZKWvE8HgBpClgAdCwW+/RAtCkjCfR+AYIbKerlb8GJDen1WekySarWhsOM+vTuo3TwMFd01zpZxHAK+dEXvrQcDktD7TL5g+AqgBUxuVmLh16lUZj70oV+nA+ca1hFn8DrKuGUoQ7yW8vjYCqtXGpYQw0qxa/JA4tN8C+NDHrs9q0soZM4i2AqJbbR0K99EbtvwOgd+/L2jngKGpFN+Cwl2ywI3Ez0zjj/Q6k+Yqq+w3gd/AjSsmv+yNK6v7uFyh4vVUz1Bq0VykpgGoDpyUhN4C/w7TvgN1NPsLz8AtVy5E2gJa1qo07TeT8fwCq2Qf0KqvNc+AymG1FZbcyozur9URO1kvNNN8hxLdoNwdW9+7NBKSLZrvpNMOQxtKcz7z+SxdOnJPE3r31m+9CAF4l7TbLvL2NM97tUQdX2gAYvFo6IVck+3c4IC99UJXDvMrONMWwrTFYe9uAn8xNHzdhGWde59D4oUTMse8CKokUD1TL1EaOPTaKg1ftvKlsFKe1DjUOmmxCbel8pqdujT1KjGkKyXBs1oFfWg5Q5fA4hmDDCxMWJM+pUyc2OcPLNIz+wRNk61o5n3DDSHX2dKdmXSqPVPH9XSfOwJlW/NN4CN2u3Pm4N/agUdobNlWuZZ7m3S9V+o4/Rb6oaYiyZ9B+l81qjU2QGep2cFyrfrjG7SPTJme0wfypDVdskwvEsxIbbbKhzhpA9EOMbyPMO0+c3SkOyetEjsuiVnj0g/oOSmF1noYzTGv0jEHQmNqY1jNG4GPYI3ENyU6XWUIOE6PdHqlgxmIY57UniHMWUlOvFVm1nbYsCjglRi1XS8U/w6ZO7GwwA4RV6xw17fSx/QK2lNjM896wJ2OnwLsCKMYfNoWlc1fPsDbTZzXDLWAXClixA5msZxHLOwApsj70HoNdTkElId0236HVyPJrzxH89wCzD31gZcHOwVv3H063Lzq+oXM/Q89WfzEwg7dLc6wOhpzvbtO5+8QERJtqdvtxfr4US3fOEe4SKQPQKjW7KaHzdKhd5mVtlVhTVazPkEs3m90cMrgxd6dyqwIofbzL7b6vPi9arWdEvdSCKoGlC7HcLqjrMBKSZNWs6MhY8VSHbo3B3Wi16xywcZw2Lgzt4LisNk1ALAD53tV7VpmWrkXpn2XqyedbAO/ixK5YG0Oza29oBrqXbk7cfNVb8AJPyY7Kqi0A7dYalfNabiOFu9XmYi5Plh5pB7cGoOqIPetC6ugzrtKKtyW03M2WNJt6WFl8wbzOHu/RFEDpsmIU1uQBbqVZMw1PQCw2j3hyXqdYjnByfq0U+3Ds/pSiY71mR+++ZA2PZ+eh7lZCuyNs6mcwO31ohcxmpzdLwHOzvQsKZ111rfDYpBYNV2jKqu0yFOrksszR5Ilvt41ZOBw33bSv4XTraL0xPFPO29fekVq3CO+QOyKsCe+IsD6/I8JaCf8CQpTTEWENkUeEpdn+AkLVDbPNKeuMoSeNeQ+woWhzoo5NNsF6TqQgd3utvQOOQw033bLEAu1bt+wXqCQhGp99aK/dbc7edMmAZAAcMNm1sG/ylNnoto77omO7UTfY9m+9SpPpu1hvNCDVVkU3jpMnzlUdmbH7QA+DBQxAN64tgLAPk4d+xHzTaUqeWbQrN555sXuAd49zDUO0VrzJ2fkYrcOxctt/NI+gIuUSraNrFh5dYM0ck4c1TptRkbm6xfobM+e1tRJrHlhaex6uoLP+gcnDSn1SA9/UYQ0Ng7PsVr89uAm8q+EZB/JH7e1gn7LbxWydaRNr5ex4jm08+2hoB62kcvAZa9Y0yX06VRn1wRcIVo3GBheGm/cyeJq2VSIOHpBf7Pkz5uBshPNI3LCvpmNE3M9F9clmsilK0lzu4JujsnWrcVG7OWq7UxLe125v3AQxDp/rxkCTafXOnMp+oLqBvRyGs4rv2w+jmfT2g87Dhm0wU48HeaWSA8oHNfOH1GTQlEHjawbsYsjNLOPfFz+lcWooWANPxUIAG7vzZIlfyAuduodl4nBcHR7JN8V5bcVEe2Gzw56N8a/kZXgqEztBz2OtGMrZetbTeoqnu4e54vMIXVH51ha72K+e9r/IFw4s7eLSwuGJ7c/Cle42/LV0pJhsmGtpSDPbMNfCVzvY3RG7IYiHDX/8vqVg/s6Gvxae0hCsuSdhiBs0/izxMLxWh09zCsjSwCVgv0dQ0j5zH6fNBdgUIUW3Nuy/o72LSprmjkm1qPthX5WH8jpsngu17OLPXA/DerWzqmKlcNJ+tT38Hofly3k5VI/6cH2+mS3pftvlrLB/rHE4J/y+VmqRDzfX3bRU0X7I9vxc8GttycfLImSY+vkyCitx5vjC/z7pN+/vCod4Si9nYHvUdUJe5vh32HkPqE+sbHfJ01CPqfo8ByZpjLRMzP5H07iJ6yb3jTJWWI8sp2Xp94hX0onJWigOlKJdObIb4Ogdit1DNXAGdfQLprlnO9qNv7uFggBGvKbOlqZbPxvXJ8WhsVhiLiIONZaJB5lEG92buAs22jy9VJFe82H+qfKlgEEN2vPitXuATatImfMKUTnIlPkmRKtPSod7CpNtPr5eNfkB4vu+k9+vyqU6yZKMiWsZUlZHKk6+46/Y5YyDb34rSr1GPqLJmsciX1GWqhrPyHMYkk1kilw3marW9kQOD/bViZJZrby9mwbUkSdNb4YxK4AYyefVre8AuDVs7E48XJjQ7K5FrqtPTRVZ5NFyycZF7qtE+bJS4QFjQt4/dXV8drbkMJU2KSDxla5CbUS+B+1p0d4B8ABZ/epE32obZUnv8OWP1gPCsdfzUtynPHHDz4bAN7KOR95a8ogvFnq6jk958nv2PXVCnnDhRjQyh2+ttuCxcDWM3fpckDvfoUQS+cOt26KLMt/anpRsYa5i37qtfx8virMZyAm52D0eQ7wX1L3ZzfLp1nO98ZW/V9a7HiPq0Zy1PIq9hGyTgyPG+tlKvQO2rGSrMOaLrHLRYJwnNeWqxe2BbzG3gVkc22VrOQ5Ya5HNUgYMc3LTUC3wfu46+yogN+DFbIFzR13tMJcd5aElhewzZmuKPcjbYK2jvDixLF/CzfqQfFR/8Sg/7PtyAaXYl4O8lYgc5aetP+yHUm6eh+eER1sfLnrt+veJCyx2ExGfrz0kXNeH/JNi/Z180WO52c+YK54aPgSu27fkCF+su6d3634jrqvapTOsb3ebsuoH0uc1+3khfqJaEBq/sycgImFS/U53jN5qVbI3Yi6u+tQM1J+1qT5PaF9qs7uf0d5Vu1nrcFGZjT/N/Pw+VY2fv9usCfQ/qwUwmWtVLH4pPGV9aNNu4U6dqeVsTD1Vo88K5srq1A52vuix2lTsitWmzZPRWL7X7OZPrh1odhMsj2naqXwpVsFahhbt5kDcby1a3Sjaxz1JVONZyqXsdjUtBueb8SybFbmfZwGG0RDU5fEcSPAOQDFty8ZQccHWHugqQQPfhdaKelmRSyCa83iHCwerJhVjQx5vj70tCsCXNvY/8h0rz6EK7wCk65o1MUXutmk2kuZ5K9crgDK2PNOp2RDZyFmYbv50nEhp9ajMeZyYLujJBrtx+mwBdLAbx4i96EUaOyimkfg+ezFyhW0z9j/hXupD3agFwFWalgJkomRYG+3BMu9x8pYjoTLGYe1qietIh/s6hQupjR49WNvhyS2mz6aZt8S1O/uynawAnGaXbFIoz9DfvZf2CzicxTOrnJCYRX3CZwvUK4APCcSxnHfjIA8TW28GTvL4u2gvTemCWbVKbgMOv/C9Eyo9O4zfwX+B78XYgKyA0/z5aAD+BdVLnWsfqsU7HQPym1GKHRnN28GfCPDpjp1HOp0B6x9+/+Hbz3/+y0+//PrrH9++fvnH5/f//6cvXz///euXf/7249t/+uPnH37/vP7tfwA=);lineShape=1;" parent="1" vertex="1">
          <mxGeometry x="-165.2919515041831" y="196.47742436379735" width="478.07353819124864" height="228.0226241468206" as="geometry" />
        </mxCell>
        <mxCell id="mYbbTou23b90Vkrzk86E-59" value="" style="shape=stencil(rZ3Zspw3coSfhrcd2Jfrsf0eihA1ZIwsKiiOl7c3YMZ/uk9m9wcy7DuRSjTxYynUklX1If/tr0+//PnxQwp/ffv65R8f//Pzr98+fcj/8iGlz398+vj187f1Xx/yv37If/vty9ePf//65Z9//Pr9z3/+spH7v/79y3/sX/iv7+PKvM2+R6Xw39//pt5S+N+/+Lfv+N8///Ee34rgI+PTeIcvt9kAP25T8aMgvk7Bt474mARf6Pf7rXbBR5p/u836Dp9vg+bTbqkJvhK+3moQfEqAL7f+/nvTbQzA59uMgq8Z8WEIPk7Ap1vK7/DxNggfbyUIvtF8gu7X+gFYnzxvXfEJzkNe53MKPtLvj+s63fGB8P1W3q9/wPuS27UcD3hYn1yv4/iAp/ms623zIXy5Zf192t+cby0pnr737fg+4Ol713Gsgu80n7fj8oCvgA+3NgXf4PfTVPkQrgV4hZfzsw44zCeNS5w94EE+p35rup6Ffr+pfAjXgX2Fj3o+M8i39ZzY+cmwv1vc2+/Tepp8W3ia/5t4/UF8urbnB/HxNnV/M+1X1Pf0gA++vwe83XfCx6ny9ogPtl+EX++7rT+ch4X33wd5Etf73hQP93fhbX0Kzafduu5vod9f+oDKk0rzfyLPG9zfhS+K7/z7Qddn0O+v+6j4yfj0/r7ES6F4js+XuP+x93rhTX8gfSAm1YdZ31h4OZ+R1yfdwvv9ffuL5/io65lQfi68rGe6FPbn+HCp13f8BHm18EX11Uj7FfR7M67/vE7jHd7geM7rMt3hE6TJVGFeUHkzXa+g7Bk693KrsPRDX4qCmsbQh7HgxTK9s6LdYmKzohjs1yG/w0mLMSWjopLXL5PjgrdL6L6A5yFwuiL9Ehh3OEnMrgd4aUCwq+1S1y94vwyeF3ARZ/2SJy/gYs31W4fb11S5XtsMn9pUlg3UXZqeyIGqeNPLN/FlbrfQBU6GzYKLnA+XJHyKr5cZ84CvsJRV5WRkQ6teG/OGj6joLHxWfEd8k3cq4SWpehQiG/ZV9aL9MsJ2Vb2z6+XNuJ4iuffLjvOXd2drDjifkhXf4d5W0xMqKhZmpyw8KVL1Ouxv+HZp8q/wVfG8PlnOZ7/+5ofxpLj4/AcaWlWF8sIf1v+9Xr0sBT7PYucufOHz0BXP6yl+tm0Z8X3JiifHot2vrYgzXvxs8RKQP4zn+yh+1IXvvD7v13MrsjyfqngynHw900/u17Lcf0aebE0T5yPnc+lf/L1yXw7aYL1ehzd8RUdhVS3mvmIv8FH2t10q3yt8UTz/vto1/XqRX+Gr4vn+hqR4dBxrHOGgzJRLq3vAkyOvmJ983gL+/piKJ2OiqIa98KSmlut2POAnBRIuafNmOYXL8/ACL3bo9nxS4ETlz8LzfNSSY32pXPbJA55MkKUtdMWT/VTUb5wT6htF9c+FJ30y6/5uzzY5ptWPlNnwzqrLLzw5drPqGwtP8j/b+mTcX/Or5IKBxnS56R/w5DhItxYVT/I8qZ8tV5RXSc2RXFG/ihqnWHhaz7fX9g3frhV+ga9F8RT4jKovLfwkx5Pqh7mz41Xfo4XviJe4QB7ooFjaTlE87W+wOCzrk0Hl88JXWJ+ghnsJ6LgMGmcsHMgJaukXDhxaHGpHTuE8BJXnJaLrLGicpSSUz0Hv48LT+Q8Wx8+obwfVnxee11O9bRnlv+ML3vdn+MP3Cv7N0/6D31tRf36GJ1eR41n+PMOT5+oZngLJQeVb6dcL9QqfFE+B3qD6Rhlo7we1Hwvrh0HlbZmH9RT7YuFJfwiq/9SA+mdQe6Ry4CqoPlADEnEcH9H/9gxP75fjOXDyDE+B8Gd4Pp+Kzwf54Hiy9x1fDvLQ8RRo9PPARCvHc0DhGZ7fI/Gn1ZO8Unw7nQfDU4TD7uPCk35rcbHaD/e3DMUTMWvJN5nPQP3f3tOFJ3+y6Q91YuBiSYOgeD7PEhdpgQO3qu811pdMn2wsr6JGI1o86J85K57nI+/FwrO+LfpVS0wUuA2Zf0b9Idl65iso9wIv/qjGwc+k/sBW8T1KGk9ZePIn5Itm+oZvSHzMtl8N7ZGs+kbrB/ta9PPWkbiZlaex8BRoN39CG0zMtfM/UN4W5Z22gfEL87e0ieetqLxaeIrKGo9r4ZHoeQXLH/AHf+D7+XcmolWNn3eWJ1XXp8eD/1n8Y52JJlW/tyckXlf1Ty48EYks3Noz2rNN7f2FJ3u5Xd6nN3zB+Te1F3rB/Woab+2szzQ7DxXlSb928wFP+9U1/tgbysOu9vjCk37e1V+x8PS9Q3lrveP7O1T+d9ZnhsZfOvvnh/q7+rgiDi/wMyue6APzkt4PeIq/TLXXOtt3U+P1C0/62yZCyYCJAaRoGv0aQB76aCrcGkAmeYzK7VsD0EcZ9dFYA4jysdlr779hBPSyrgHyTA52qzmfbg1APS5dYeuHAaiIJpXUgynGa8Cwj0ZOadZY2+DYccwqTMeBVZrV+zgC3oZYNK1jBFRv1gCxlwbzaaIlpoyAD0h80yd/fEDyb6ApWcz5PODJstIqtWffwAOS7TTygZ3DdRww2k99dH8yJYq8rQHdPhpDFUNzhAZzI9aAYR89aErzyQUi77fT4vcAMp+Cxq8GE5u3wVh1AGVSJZd8ERlFO0RmA+gJ3QwKmxLJpW0UDR1AL9C2QmxAo30oT/4FcmtsvTzqgMED9AWKSPjcmq0MYCZeshSCNQBN625niWPLWxnLOoCUk81FkCll9P7koObmyCgEclA+xijIRc3RXlF2aOak9Os1gDx29wD32wAOqeSinMtR0YbPVZX60ZCEtWO4NoC0+tzVbB79Ijo8HzDUTzM6+oHytOPNJOIS7CwN/OgS7T4cqDeuJA4UxsXIAWMymSMbtXlyGuwyZm0AhZ+K8ZkmK7prgBhAa0Ahh5Bl6k1+RUu3f4EphmWqNjP5fahBk6/XALIfqrEKJrNwalIa7xpAWRU1q598ZrxA1YhWawA6hpq+07OgZ65aCvDkUMv27E8dQLb3dr2/FzOzofO1RfX2z87emGzfMJBu2Iw/uAY0Sj5o+j7MyQ6lodJ7Tjyt3VLJJ1PwuuWCrQGknHQjvU0O+nbzoq0BFHXsljW0lpUexbsx/DCATuvSLIIdDVKwtqIg38BMpPF2+h8G0Flab6b48teNo1yN9QRKMGJycGQJd2GvTmbDLNEr9NsZcJWm5fmOifGIPQF54/rlgn8+INu/8GbOPh9Q9BvWVtLGLSkkMaetGdM3VBUzg7N910GQC7QOPKlw07K59pUiN6IpWPvSghBY10UCVUsskPqzBkikZAkeeoHWgGGhG3KdzqlczSVtyaTZQkWCPUxWuIuttwFs+N0F4zWgsnNzWp2O2jHevwZogLqcPloHJHQiPJkSK1hzqsFROCdmvzfvp1Qa6kv7RZN/ofAVnXoflupLYcbp9XYiOjdnVzX0QKz0K7qMHNyHpq7+3JAqMy22tyw7PK1Fgz/LdiQ39patwlaN/NFJ3+nMdQtmtHydifkNM6h2v0uFkCALypDefghYpfVASYrhTgGhkM5QjvT2pZDqYFnKiZPu1hOo1YkqZ3ybg3YnJpAmUNQWTRmv6MiW0J85MzupzncoyTRMdUic6jDMmbOdkRR7nPqwH6oU9W7ZOMzm6U3TBbYHlpK6q/4LO78PdroXK/Qw0b/Us2UMT9y4bhSXu5/6+YBotahY9+5W3CUOdD02e1C2c54MPwvrHtJKmxmvsXHetmWRx4b70J5l0hIzvhl1ZQd6aJWy1oCK7Em8U7UeBtAF2tqRfAOXiWvB0r0zp5NPNY9j4vzkqaJyDUiwrHXYskZkWFVzY+94MjtCRJBFLiZWzScQAz7sa4Do3jFg0KU+KWJAcaPqXjv0atSq5ga/6tVjnJylX/TJHaiX1KK0iMHrk738BWbtZvUud8zyqpZGxirGnfT9ZphwVrMF1ZiFU6PSQBqzvqKKx8bzj0oN4IjDJulrpRWy6WtQZ0xFF9c9aeCOp/j1wifD/2R5UTILyzSaM4qUjdfvJSFXprr02BW78Vp2h6zUp3hihdp82Kj17y1c/tPW81B+1faroIqz8fb7jO/2+xR8mhofLiifixn9/NKXqd7/ivf3GZ7sD59/5XKqU2mhXLWkuN8FOQNlunw43Mf2k78vitBx/n4fD79vZbAO98vu42E+4nDh8sbT0tpO57PqeT6cf7HBz/dRq4r9f+KrBYMrBo+rpfFVzJq7e9x+TP7X4OWuqXxpjer5Obx3US2ByjqxBdYqZp0t/UTizJylufWfn9JnstLAG1sN2WjaPJ9ilFOuKlL0vnReH6P5c9WPamWfBgZ+qtHwJ1dpafq9XPVjJ6VJJIqzAqzCG1dJq1aePAYOqHczzwNbMF010E0zJhNpWGWmiI7JOjUeGJmhVacaYcu0JadeC7rLy9pGF4Nlb8VDNkQyB0DBGM72SZiLgU5qK+o2jKzqtmpeD5ZdrdmAhrGD1q2GW8PT3axEZmRzr5k6ugYcYvzCQo5ssPaoCl3kPMxuBcvvJY1f+hmt0hpWyzRi9HZMkiezqRs9cqJA70pW2s5V+mh31HM1xm5xqMQc4WEB9XsG6CuvuEjWFLG07DA2x64ZQ+GMrL6AQ6+F4TWnuIbFMCpRKrjTo6uoPNhzw9pj3As1vhqgnv3GeTyWOLNVDAqNWSb29hFRQN3SWnYxXDjea4D2yJgcWzav0ubDUiA3azXEXd2KuRZajinxKlm9yN2JgeKBTRNk84EUYLz/TT6lAUM9ypkJV2uAGu/MaJ/eXCajeT2nVaXhKspOCtgReIr8Tg137xg/h+zVIglcOCkEZVwdiArPRhw/WyfV0W6eU9sY1EM42hwd95jIqwFqyWS+EVNvRGsctJ8qN3bKNX3DUGdKPwTth4bUOyuis6u20Qvan9NCJuuxR+KBMc774H/BAq2H3LPNtvB0B1olk33roUTaWFan9Obl0zckVUQHUxumdYVZzxgxFWbQLMP9KpF6MtWw348MvaNdlYe1DCS/R1PdeHKrr7WI4rvfbwas0rCEivtxfKViKY1y4MO72alDB1B8Y9MBhZ06cUp3OuDDAHrlnnJ4KUjpLOEH+fzKSKk2JxLfm+pcdACG+Zsm0E0+382onZtXzDF1idpPrh+9ngPx7M2O+npzii1XGKtDNdE7k+ylL8RuEHoqmiV5FHanWVWLyVWftv9NviHjM7pUBRGuawB6ZKOS5SYXkqhB1b41gL6hDFU2JhMJirmYJmvTxXJcD9K4VPsXAjL5i5Ub3i8ABSasXssMHCm0gjaDCU7FKvKMidZlsZJCg2VlMUNrDGSbFss7GQOt/Gx81p1Lxu35NP25cxKg9Xcchzo+TSNc28jmjns6gCu17jTDqAPood499ISkUVGdyZ4JXNE9s6xVzUAtWJ1tp3tGHYAbFzTwMDI+KGnaWcqcazy04trgCsqb7ip66CGLttt9SFyDuBm7JnE3PetCMtgndQ/XPgzA5ORiWbSJ6yJbIanBhWR3krgNIMZsylYOIGJO3050txRuunFe3HkwXfvOj30cQMtq5X9HRAVr012DDiCDOloBm3HojDYs2SYixTYOM+S492nsTwoOYMkba800IhYZe1K84jhA34fDlLwAx3GAlvg4DPAiIodv8DIlxwFiNe0B3CTwyTdwFz8t5nIcoHHX4wC/ojggq/0wIsaOorF+9wC6cVaS8FATJCb15uwBh9JDNoBsy5jsAnF73GjZm4P73UbjqI+AccgYNYa3B3AJKFV0mcQbvX7AoSdnUCb/qaKTRQm3I4IHZNsHPEvmoe1cP2BaI7hDVpXetz5R05hqnuziY1ieTZjX9xyRF3jljQz83qGHog98cIfleTJx2UzK3jFQZh0NO7ev6VZerqP46soz7xwq73Z+2qHvoFzjXtGabGom9YpEbeOxdCbGNStPWA7ts8Te7oWJR7a/mVMJ1OBZeKS9KA/nUD7T2pH1dPh98Sf3hMpa1ZTfnVyE5Vp1PSOW2y+qPPZwKGfbDE+us2LrE5joacEeTswoalPcU6Ne4LW8Lse3impQjdtDZS3n2cah/Y7c313uF+6jZR02zhSz9kGto6Pd3LuNC4RkJSY0dtYm9Sds9hGWlxbecqtsZCrNrXFwxPNEChIZjTbUMpcL1fexcVkaY7e0dGq/UxXP5d6nhWu5vYbWKIi4X0GdAgvP5fw1GsxKouetcAjF2xdMjD6YZ3OzFHE+Eu6rA73qlqK78MTbNPdB7YfvFaf9wlMiUNDIXeW8UKt+u8s34HkT+VkbujSd4XBq7+B4Pm86n1N7Csdz+wvHc3sNxZ/ad0gk6tgexPHcfkTxp/Ymjj+cH8Gf2rM4ntu/OJ7beel5PrWvcTy3G1I8VzQNGo+tXHPY3O2F20WaPLlnsrzCJ8Vz+zXJc9ztlVD+iP5QuD1C0BohpaOfI2jUc7efwvUX3+ixvZXj+f1yPLeTUvxJXqWkeG4P5XhuX6b4cmhHI/r5sf2aOL52ezeev7WDY/kg7UMX/tBuSM5POrW3svZ6/L6LflIiJoZZu7By0sdEXyrsqrR2RiUgsy2oD7uc2pdpO9l52C8JiS48hbGCtd8ch9/X9qQdfb/eXpITn0zfXniqbhiNa9u4ZLbqn7mh/RiNXlwxKcGqWefKVcU1ZLfwpG9EdeHmgvZOUvmz6dHc/mgqHoPF6h/LXBsvWftlZrMm+15OFbDYRM6YeJatPXLGqJUFS3LiQsVqz+Z0aJek7Y4T1zXWdqy7vTPitT1sxDCG5S1mLnvm7aPZni1WMCxw/WD1B2ZuGWH+tDQ5kVj3Kx0qJqt/bxciwfmIfN6Jl+h/k1By4nadxbJM+uF7xf+QOr6P5v9MXObI27lz3cmifPrt8WZ8Ufzh9yVthzMCqiV0Ffz9qvZFYnlY1f9/SIUy//ahilrV9y4dyiFZelnC+24k9+0hxHZe8h6liP6NZ/jDfAQfuBCP2jtb48L2YmJPJfbPWw3fnUHI618UT/G+qvZm5Ha7Vd/HyETyatWxmIho5z+y/HmG/7nf57ykZ3gslGDfeyhkYOtZD+3vdL/YHvTzULg6mZ23/HP3fddX4/tiKeVUwK2qfrVT0HE95X3fTA2OD1oSPRb2stxtJn9Vte9iOKyn5rezP8rqnsXAtHRLNTmIT8k2m1xmTF9TzsC24DUXnWgqaw+l8bWESseVt6z8zuUUvcAG3dumdtqhuqOFvbBLjFX95ISjbkFZrNLQlQvLxWOtWgFnQvcnlcuQQCJkey78NdTfXw50GXVfHpo3FoXTZR1eZAiz0DUWmNFVMvU2HfI8LbUaDQkrYJQxTh0t0JIx0ztan/GEPIRogU+mjEdz3HAyZfQ60WiH7mdGHgbUG6OlUnIab7RAfkQ9Zz/DUgKE/ULWgiygXbPViCB48pNH61McME4RzXA6NF6s6ngNaGdFywgIyNu5q313PGV+7Aotup5012NXRTDwfnWlh3Ia1FK75XyynhCtu0LAN2KZDbZf2LB0quOP8d5I8Ii39Ue8Ff8+4qfuF+LTk/3ibI9k+8X4aevD+Sp2HxFf9bkIqHzdq5k84CmVpKmjNpyaAYpjK6Ddei/a/2P3cbvtdD0xYWhq9SGmRuegjlrW87NlzjAPMCc15DiutN3Qup4UV925cyafQd7mou87N6HN5tji8mnZ2k9yc9VsWf0B9Yfc1Tzg9ytb0k/g1ELrCcd+p2wFVgL7UYMmR0Yu6BmVeB0xDrLDrmLo4v7ugjNiuCKvuFh1L+bd7TC56nukyRczvJknU5oFEtjPb6XAON+8mFmU2Q8/1BFTeH+HEj0LyqtirSu4GV+ZSqwsHKd4UuCY4rDViEdc4LUa0aewH9WJPsg7rcEaAnERBScGcRzB9J/K1SGf4Q8tJq2A7099Lxdo9vU8FqhVoiT7yZ2IhrymTduyAugHvM7//4Zf//HnL98+ff/Db59///2vb1+//OPj4///7cvXj3//+uWff/z69ld/ffrlz4/rT/8D);lineShape=1;" parent="1" vertex="1">
          <mxGeometry x="656.0745989068273" y="312.5000178917371" width="497.9456336299322" height="328.514459674298" as="geometry" />
        </mxCell>
        <mxCell id="mYbbTou23b90Vkrzk86E-63" value="1" style="text;html=1;align=center;verticalAlign=middle;resizable=0;points=[];autosize=1;strokeColor=none;fillColor=none;" parent="1" vertex="1">
          <mxGeometry x="200" y="125" width="30" height="30" as="geometry" />
        </mxCell>
        <mxCell id="NSyZHmdAdh2Zb2IzG6Ew-1" value="&amp;lt;&amp;lt;Value Object&amp;gt;&amp;gt;&lt;br style=&quot;border-color: var(--border-color);&quot;&gt;Número de Piso" style="rounded=0;whiteSpace=wrap;html=1;" parent="1" vertex="1">
          <mxGeometry x="-160" y="23.56" width="120" height="60" as="geometry" />
        </mxCell>
        <mxCell id="NSyZHmdAdh2Zb2IzG6Ew-2" value="" style="endArrow=diamondThin;endFill=1;endSize=24;html=1;rounded=0;exitX=0;exitY=0.5;exitDx=0;exitDy=0;entryX=1;entryY=0.5;entryDx=0;entryDy=0;" parent="1" source="T1alL_IBdGlgNFhujSgj-2" target="NSyZHmdAdh2Zb2IzG6Ew-1" edge="1">
          <mxGeometry width="160" relative="1" as="geometry">
            <mxPoint x="100" y="140" as="sourcePoint" />
            <mxPoint x="-80" y="130" as="targetPoint" />
          </mxGeometry>
        </mxCell>
        <mxCell id="NSyZHmdAdh2Zb2IzG6Ew-4" value="" style="shape=stencil(lZ3ZsiM3kkS/Rq807Mtzz8x/yEzVLVn3qGQl9Sx/P8CoecnrnjwovmkJv8xEAoFYPX7If/n95x9/+/JDCr//8e3r37/89y8//fHzD/nffkjpl19//vLtlz/WP/2Q//2H/Je/fv325W/fvv7z15/+/PffftyS+5/+8+t/7b/wP3/icriFtlEp/O+f/yXeQvn///Aff8r/45dfn+TTvPWg8hnlU1f5BvLjNpLKD5TPU+UnyPfb1OeJAeXrUPmE8tHkaX3ardf35JPJ0/PU29T1Och3Xf8YUb7Y87C8rw/Jl9t863nKrdn3Zfn01t/Pt6H7H9cz30p+5/vmW7D1pPOYbs3+PstH2w8kH/284/PHW7H1pPX5+PnvlA+3ofoKv1e4OL903sMt2/uyfIhv6J+49Oeb8raepA+XvK0nyi99a/qZ5avpW5bPbz3/uIW3nudKP8P9suSjPs+/Lqhr+ebn618K75W83UeV5e15GpzHWH3/dziPS77pfh4sn3X/TDiPSz58Xv90CyRf9H5PeH6XfG0in+A8LvkcRT6TfPbnqbQ++ZaryHc6v+k2P69/vm/wV/Jyn64fpP28llv/fqP9trZjF/lJ7xt1f5ZbpOcPt15EvtB+Xvp2iHyH9523+Vm8ovqcuvvrrcJum/e99RCnzb905+dv1e6b44V4jSI+8K+nz5qn3xJowmXYFhGng97VThr3D/FCvAQRn7CQ/X6o7+LzVuEUNjP6A3oJ7VZNvsHTNzPy4i3D4tT7mXiSn/D3611nf8gvswy2pSvZdcrhVFUzCgt6XR9n6Em+w84sZsQvsx7et5hTt64lkM+6N/e1CuuTb13+fsdjnu351+ZHeTnny+wgrZnMiZr3L/hCXvfzxP2T9DBus5W8ZN3/B6sn2aXFVoA5CfsXcX2CyOe72fdK/vP671uFrDzdP9stpFtFL93t1tItp4p8axi65cxo6Kj5XX6wFXMbYsRMtpJUfod13vn7S37y+4p8PMmLUZLZKryQRyv4bnN9yJd7WOS75SeuT/9sZeSK5zGqvsqNvQqT7xh1i6rPM1/uUYNKeek33D8qz/rN5Etgq/ZCHq1mk19eF/99MToPXoUGuZZ8x/dtn/dPyWgtxftt8iFf7mGCV/JR5fl7iRFf6t3CeSWfVH7g/i9ilLdbweeR+7f0g/6RoMaSRy/Z5Mf9jV7IixNe5j0M90r+8/PXcFhPCRJVjmpHtT+X/ET5+Pm818ReuAZ96rKI+O9HlZ94HiUoU8th/YO8L9uTwby6hl5vUHugdvxe4e6sfMgP1LdB7Yf6ESZ7IS9BtDrxfIW79v7wBMNdI72Ql/uixbtj+0K+fV7PlnA/BA1ytYxREwuqtoL2Z7if7g/5ivrhSp78C5dvGEVw+Y72xpL/vN/auK/Ad8qz/2vyPaA/aM/fI9qTLp/eW/8lP3h9RD6jve3y675753v1elp/kW8H/aPr3+83znfKj9P3EvmJ/oLJj/CmfMRYkcsve+mtv5/Qn7X1H/m98zj4fnH5enpfkW8H/e/yrM8lSD06+gsuP9BfdvmJWZGg9uGS77g/2+f7ep70jyQFZzzoE/EfZzx8X7EHZsIspQWpl3xH+1ziVzPfEtpLZar8YH9QnqfgeqZ7NO9Jnu67dLeOPuTrPT77Kr40VJ78r6z222xoX1lSZMmTPZ/Vn1ryA+OTuj4dsxDF1of1ebHn6fcd/ioeG1We4o31Hm3+kB/oD1aNB86B/nWz5xkYL7Uk5VFe4iEH+a7+zpKnLHq39R943se9BuFJnvbnUHt1sr6dGp9c8rR/pmZHtjyc33m3pp7kyT6M4a6evh/Q3gOYi3cGqE48AmZ9C2Cp0A2gWyDZtcRm+k7O2i80zv4m+wVKPC2Aat6BN3Es6vpPdj0XoNlZwNhmvR/FZwAFd+rF6UFAs+vj8Ejt4ksfANPfgQDdbqgjYLz3C0sD2ZmmOyGOiw+HgCutRFZCnBcvTdfsArgeJrs9hQut0cjQCVoONwdm5D1UslU3mTrLtvO7jWypqMb+uswpOOfZkMnR+EeJy7N5QS+d7H7uGO/ZRSj2C4XKYLPtpY4R7W3i2S9QymXbeAbASsNsZ5qTIo9KlCcrkrKCj1KUZ7MTrvULu5Dz1ru61R4JDfNqnlfjesYPx/XJlCfXdAH0nuYamAWQ4ocFwC/dL7yRwADVreV+pK4Bw+zJwvnxYebPR13YNWBeeGCUsbww+TKGsNK0l84Ys8hBK6WXU0uWQDavfwEo67GTvk0B5MbnaF864nfIlnidXD6ck23vgJmPBUhDAeS65Y/6vicAxcazFXMsQIK9tHPdn196TLxQctZlHZPLY7KaDgtA+bkFkCr6BcDvULQCZAyMeCyApAzHR6XwK0DPCqAY507Z2yORU5mrWmSjc5VSvfsjTwCy7hdA8tQLQH7fAkhgawESrVLTK2s0Pg9Nr6zRMBSWu+3Whm7ZAugqNT4PXUuWB5dV5nH/e0+AxgCNd1Ze1qEJxFH4iE41fxYA1czUG2gBMAQV1GlaALKXilXOjsxBNCvNXQDS3sXCqgtAy1osJjAyWgILIInTwYmmkjQQsgBUubcAYmANToWWrLG0wRXkC1AMQC0sCzAsW0N2aynqsY/IX/oj2vwEID+uFLW9B7ctFDN0B/dFLICUcCwAlRgtgEROdk4L1MwCSDBncOvOrmmRGyigA15ctwb0H0rXYM4CkONXuhYSLwD508XaZRaArt1H4cwzgFbJog4LQLbGLrWxR0KtMTVbsgFU3WxNACNg+eiu5rFHIt1aPQEYMOBdrS1tA+A81GgHKKDDsQBy7XauKa6mWzeAisyTNRwcfiFpL9gZoD0KE+uOatZgzhkgUYczQLTGCVDU4TgDLlaJAWKsnwBVe4LPgDcfqZq9xAXGu37LtMYBoP0ogVNkXXsiTgeomykdsImidg09ngBDswNnQDVFRiGvBZiuZggwNfN4BvgdR+/Q3G49Ai4eCT5cs+q0w9ZYgOkAaj+KV5qP8qFWUHsGDAdQx1LSFOcZUNqbgP6WEmj56pEYUN7SS836fk6Aos7rGZBde9MqFfXjDrfoAkxfJQJU1Rqdw0ULUPylGXDxpQnQ1OE4A4pf7PTSTaOhp+/Q1V46femucb6TEvgo4fhegGX8TnrJwhSnlx5at7wBoL3b1ED5ApBLs+tSHcC/MGx7UylRDxdag3otuqUI+8TI+gJ0A1D3Vo/q4ncuz+2WU1wA6mru1qCxCz5plaLGBPrEDtVuOcUFSNTAmzRhsQH8C81UJTngCzDtpakquecLU/oAqAaItKz5HvD93l8omnQ5A8q7AL/jEFDVxT8Dsl1ZB0Cze/oAcKcJAU1V5RlQ7Uzjl26alD8BuhJXnAHZ3oGiDr0r+cAJYMGcDSBFZowCG0Cqclx8OCr83lrIH4k039RSwc6Zph2J8V9ICPBiekqZj3DhTyPAyoMXgJymBRDn9bHQ14CkkfXO6bUd5baOA0rrDFfGXHg2PNQykDNgWBJyA+hLF7t2B0ZDHxmTJwBZAgugt+jAuplRNUzRucRwAVR7D4x7D+Nr260i9AtNszT9UNvaTbdyXnQBJN7aO1qVO886FICbb9hu5f6q3c7QFUCJ1GFB5q2eafO53col5NP1Epcj7TICATS0vXehQlMAct9ELVJZAFrWaX28uw8K9tICDHskuqdnMoejolu2ANLKsgD40sn8ae4lnVap1it/6WzfoWBaZxbz2AvmFBdAXZqC/SaP9o8PQMYKqVnNHchY+vwoAnsCIJNSNV80MZeS23wRL8XdMzIUQJnX2dRjX64gngfLxzWOa0yjPdoeNgMk/9D4QtmVoJ/foXW8dnc1qzxSw7KwaTxS7XBEhwZzFoCsymnqfofZ6KWHvXRGvoNH7fUHIPGHm1pH1jiLP6eGKVpEe2kBZHu3iPf0AggTYuPc7jTbuwU0pefUSoQ6WVVO1Uu7z/3wCwag4uoLAN/TFwCm4rkAVFaVVwBK1V4ACia0LwAZ40tz6omrCftQLn6BaSDn1IryGk7bW7zdnabnEyeVOYUdjjm1xLCwVTmN2rS005cWq7JUjLduQFQAqvuhrmUpfO0ONUMLd5I+GjCeAEQ1sgGfVeWumeL7QbR34ebc3bFhbD6Hd5DUVOGKkDm0cWWX0/GyiseeJ4bid3+hMEIdOvaGhosyt3zuJhID4P3QtV5j13KSXura9JErG1jduD+5sn+bP/ILB3ZOa/zchcSkl7oe0Zyx9NltvgXAd2gaxs6J9ZI1TGQuo9+GrrBzMTvaAuhLR6xv3S0eVQF4po3191Hr/wogxkkOfANVTfsvANp8ReMaB466aaSUm82VvrS5ZYlzKNOq4hOH7aZ1cyZud1uAYr9weKRYFYCrlNQtS523d1IPJXGoZQGUUbljHmgam8ECoDI2jvndcE7vENUtS42vXetufrTAv4zNZAVQoHxHf+RLc5H7ji85RyUAHhQeTwCyjD1GlipGf8a0zce0Ko+ekCcAhh6H6qVN5Enh06EB2gWg0udh8z02GS4FmbuGsRNz73m8NRW8HzZ3zFBA4hCwxGZSwdjMZrORX8jYrLz7KZoCMKJrYzt2fydtvqJB5gWgwuRhnMIbwAkLCSKcAarIuP9hZJ2NcwIkTX5tAOeBir8DbQ1n5s3IV787BfyRaGtY6cKDXfkVQM9Dxp5Xz8ft5mJ66WBag/tQHgXnzwDOWk5bJUwG2xikDeBf0Psho2XczdvdANDe3SZ5JI7o9mGWALuWO3Nl54EqN3u3zZdw2sBOEyUFkJfVrfc4cQNRt3a3wwCHbtz0if2H7to7YWymN213e/A1XQOq+kCJw0W92plOaC91qyg/jMXoVvW4AFghVWzzJWz/7MXOdMLYzAIoyTiPDulu3TPrWLe+3U3kRcuaNSr9YP66BiQzQyPG7nvSwGBiX7RbnXFiatruXOZHgN5xnAfqxn57mEHTg9G3R2z07VZCkiJrjaBxjQel+CVg55WiAeCldyGmrRI1mDYbrJc4iNCsd2Azn1Cp57CpBBE9xTa0uPpB3PwKoAZWRCXwyI09AUgJLICfB8pl7TpjAyD1WtOakxS5CrjZ5gt4HpolUh/8xNeAagYW9ykugPpAAeN8C6ADJZjAuNkEk8Sp2mbhogcp5yuAfmnmddiUxVEBFJtp7nAENBJb1rh34qbAlm142+QvnWwa4URbY3eJDAWQ09SSxgQeE+muAVEzHJELk72XJnKJYYtqL8XBrQDmcETmwWrB5vkM3t7Bpr7xwIUW7Eszo301PoHIdWTV8tNxYL13tWlWkQvPqqn7BaAYWbUMx572xx14OmyQK9Vq14ryzeNGXYTNxsF2LDHcfYpNAVQGU5uqytjRPa7G8LQAdMdVYyF5DDl8BVAl0Lhvt9r8rIb2UvUBVFyptptkgwJwWYvNwW1IYFat+jQ2jAlUH0LVMLi5k/yyShUt4+qzXis6ftXILCLz/npLd+RSnmrWfSxoe1ef91rwBqrWfBMLBqSq0VrFgtfuAuiVlZGvcvMJJAWQut8UB00BZLeWad8h43coQwNSMaEfV4bNbeYwRbGk/AKQO1Csuzkm5FQr3aboJTSlnf0ixhO/hs7RixjXKNY0Hg8sJM0UGROYbVIR2a0BQ14LoAOxAx6gUjWoFgN/uKqhlsfQzVcA6dDe/MPEEVJtiDwbuqUYLxzWMJaiqpVTwcVuh3ki/VHC+RPnjzINY0fJBUcQM81kY17CqohiHHVMrVySxig5Lb1LiFSeOpmKDeDjLHaJ1irFBz9quULHAOiSl3PPOe/HeLKHPK5PsDZaVu/G591Qu+ep3HeN+funes8N12fJF/37RB+brVCuYRFOtpKxyu87dP/z/MZspVCVOR0tbVDRN8pd37diL4iz8HHWOjd9noIGyJKXEouCV0CuGkcuWP6w5IvKJ5a3KdF0YeSicYuC+nOzS+p6UuIpF3WvmRovZw1aZGb3y+pBZfTec9aQdkZ9sjlHVZ70bU56vhKGFHOy4DEaizla7BijRrueTeXJzNrEsvo8ZOJnr+dh4lrT5xHDAptKV0wmpjU31pyI+iRZtD/i901G08DzBpM5KBwxTlZPzjx1V/LIKW2lSIHnA9v7Bp5vbHPe2f5Mlr7nWsQ0df8w08c2Z4fKE2/41L5snj/5KJ18yFMcIBtJE7ME5qD3Hc9rTVP1A88TTlPtw4gRq72eeh6pBDEZpWDEWM/ePybP+0FyOEw1mabeF1yOm6whhLs1Ls/jQV73G7L/Tw3PMQX2lrf9z3+/6f45nK9u8ofz+458tgRxYHvJ7hdOVuWoxZ/s8/v9GDCite9fiRFg5GXTruv5Iv/XWdcjc0Yn1c+c3N72j/59ZIy2xFlCfev2G9eSZE/9YXXLo+vhyV5iMnRNXmL+NXt15YnZXAtPMOCfjUIm4/nNRtbL5XPZJgQd7OGmEamDvd00kshdJUte/OvM69k1/lB4fbo1ZaH9k60wgmuSs3dYMVu/EYtVzNxt+nP1lykJnO0+rawPpw1QZp5kS5/yfOASrI+bI9FBGZE4vlFswDTzLBRj/+X+hWID1htWE5Wo/n7jIHTS89g5nmk9IR1z/M7C3rFkvthgNp5/VLKxrKC9WrKxUGAFwQVlOwfEnbGdI+5F6wcG068XI0fn/WDlmQPtz2Ll/kziVKrqn0P83OJRHw7itbxPlMN08pLXaVXY176Z3S1FQgGmYgPoIntspVvRSuAj0C0EEbAyoXTzkQ509kM3aWQvbAG0yoXL9RagWbqN/JIytLJ5AagvpViVfORq1GIcCZFHXxe7mnaeFFapBt17MeFlXI0HaCeHiag92ktnNEdrNHeVu3eqzeqMbBBVm0gcufG3WqvMAtBYgZq18yUWtOk2FXxVAFa5ZNt8ld/BxmzscgwuWtESq8rfwWZ1LgCdhwXQjHhFT9Gp4Pf0Tirisl7kXRZD36GpLxQbGvvV5nI85oO+AmgBVMM+rc0d7+VJ9A7dvjRTT9RuZWI8t6l2ZdiPnQnzhxXesM1WrVlzA+ilp/Zexs4VU/OiEI3CJs3K6iPbeQuglWs8SbPZzKPIszpbVEsjduZojrZKA7VGixZrHNjM3+JF+SqW4KaL0k86Dy1puC4yM+NmX7KXpjuuZSuAmkz6nzWjFZnatBnV7647Zip4vVAOlc2WhIyTGygsy7kH7NLWcHU/+TtUK8FlNu5mk+UXAEuhqxXITrxQdreCA+gAGe1b4hEVzShADtmV1q1pltNJrVvLUji1mYjtvQPGtKxW4JDYHWim7g8ptza0JOKQE2hTNd+pRcMIzU5NIBYV2n0p3OMkl+IGHPq0rM0E+0etuDRxud7uNbPdStu7R+ucj9w0e9UvRxbZZUceHaDLnj/8hWRULJx/7kldmg04dEbaKmF7dFZfNEXmys52Hpivb/ePWmMXBbkWQJui2D3ePbDeYHfosrVVIl+0V2ua5QLZbsRBu/KBW4u114xLJZwKfueCaKyA98tFHiDRtJgnMZVjv+r5w55wowU99Y+aO7AB/Au+rNT5smmordsZlYDFZg45s24cnCkdGQzsF/CIWhZ7A2i3TmuP5hbvYXUNG0DkFsHuOOYRHTas6lD6NIKGWjaAqFiMnX4nI0EJbEYP65w/MHr4l0Y2bmclSUwy4rwnCQtOL5hVDgDnbjm8g7PDJIxJX/DPHADOcHMEaA/s4R1sRPbpO1gn2IEYYlQrBGSuitHMbk3ogA8b5LFzz0xn75Q4ZN0vgF4onH0eNhnqRIkztLz7RE1k9dGHhPVwZZx5WaeRKnAJ7bBA+a7RZboxtfkKUy4HO6IFz8MFx1phRsBgWqNgGPuCJ65iUG0B1Ayt/NKWmU2VuYGTmaFcC7/5+uwdyHRYAKffI8t4cw5OBZAy3pT8TvBHdJTZrqzO7PTZmOg4wzxtcuBOGTNAyS14zMYCqCUwMEuzSf+7AnCVqp3pyWzcNoQ7fRR2vAIo38bEwq3ZtNEmB6Yr9sqewEqgaeo+Bz7T1sKXI7MPezEQeyjTcruZ7dZpo2g3Jy3/gkRONustHVEbK5AzU2raWIFdk0ZfelhLQ+UjOoxitqKXtWmjjRAZVaWN082c4ZjGcJMPFORDL5TMofhppApnYmqp1MhM0LE5y42NG7eGTTooXEw6bajkbtdj/nsxdAvbrdOmFBfm69v890EByLZqDW6lYDXFnBoYLJUvlKklJKUxTe7UGp7CTYPTvN1yHL4ggcEysextWq1DmZiPm0Zz9Wi+fwmQQkIO203rfKwJVykG642oXLx6jaATcYUoGPW6QvB+ukJwov0aQW1gVwjOp14hBt/X/gEnE7bbFmkHonBrJtn8PayfxMVsHKid1i7UuMpoWn/XYzz3S/0kL30Y82DzORq3LM6p9A3tcMFPGzR0HIYh6c7WThaB6NgFQE/FCEgbZ/PdSNmkdgyQ27RxZ//sqmMb50f3EAYpVT2MAeoaTNhjsdik1nmXTEs5m00rThhhn82mqJ+Hh00F4Ev7nMXMQ6uMs6IXnmJiufY9mZfHC8jl2As/kjmAnbvMF0B2607H0HfINsmR++qnD/nkWqxphR47HUMvbcwSOx1Dy5q0mHFT9NKHi7Y1Ontb0Qb3dlb3UWMD/RBMCBfDJXE2ns+w7TwAzSqlej9NC9DZeEypMXwSfGdq/mkjB9kc3eT/QwFkIQ+bXPdgoH4VqNVJjgO/wzC+uM5EK3s6qwFwHkG7GB1PDuCoV4OsKe5qJZ97aDOP1VVFxtPsh01iWQCktbfUeWe+nj1LuCkAt7cP+ZzHechDAZSy3ROX7cMRR9FIF6PjqTJkWCh4cJfsMNabx/Dsa4ARX25mfMoSmF4aHEzw6d0HgM8HH9xK7BPIB5NR+YzzwTStPkV9AyjtbHPaD9/BJ8EPLkDzWfOD/WqfZn8CWJrtDKi2W5Ed3Qo9ToB69eEY0N4FiP9wBlx8aaa17+8Cin84BsT3AFYYewbU9/ZS1lv0BDBlfAb09w6Q8eCfzrTxHB9UZbfBKhtASiBqgHAEvKe3m2fvQOZPj5pQXQDqR+mWHx3Mmd2t/n4w0UEP6tLsAhm4H5b3PBxApbdT/enB3DVtao3oBnCtrjZPMhvKHvk8FYBNB+NCVWJVtlUkDB7BuQCuvQ8Av9jJ/NlV2XZEKS+3AMVfmpa1WVPtkQe/2yodAOVdQHrvkbwR9/DSRS3jMyDbEcXvYJnw05c2YuQzoNiJOwCirxKz1PuXPgCKLyutktVMnwBWlX0GVAdwX1B670yHq83HgOYAJs73K4u8rGbEVAdVWY1p7Qy4eCS4garNSTkD3F46AFxr4Dt0jS+dARe6lQHBjyj1+jVNnR+2xubB95dmWvvp78CAi2uXu2vdEkBAufCnD4A3H6lcmNIIyBdO0wHgZugBkN57h3T14Rjg7vGh2/zCXqJW1itj/UBr7/YSRUOrDSUZPAaoBqNIZo6uGmwvMV2DExEMZplcAGGVHUxjWdz2PtCpW0vx4AlRmxDC3oHSOmVY5CRiZL3YjMLB3GTFRko9AnnXAKsn20M56ReaWQJMf1as6m4HIwlQzVhP/KWrnYePMtNXAMlaDi5FL1a7PhJ/OONA200C9NLFbL6EV1axgeI7inygkZfvwFn8YiNDBk+zL24Z5xOTkqRERmaqqWRURFw5WJLWCSwArlJUcrZRmIIl2qXI9NW7oM1+AfmCrA108NiTEkzdV2a8nloI+Oi9eAXQUEtlTkCr69tjoemRrJjxkax6BZDy4dFOtHSSBxrMQ5a7RXR51ny2YdyjM3O9x707L6vVOozB3OPNIomc5sxVi+jGYDZfm949BtNLWt33GJgt23zuXQFU65DdMp7MqO9xDaYAe5QjPwGQI79oi/1kTq9sJG8LgCyoWbXGPNAqmyk92dBdAOlXnFwuuevIqwIoBJxtIODk4t5sVIG7guPARRsVQLOEc9Rah8nXbg4aapn5RNcrvU2P/pFXAP0OBXvBk1UDT643TlZkPSvOxktWbTcrVrVsCsKuANqtyXqQF4BWabfcyC9wAWCyqMMC4LI27YOYDd2BRyfTEwCZtKvaS7MzdbW12M+OWZpko1B3SSCRVxuNzOxozexhIFkBpO6Tj0vqPC/A5yXxgJ9HO+MTgLTG7rAMCkj0pbOGsedADyVZzHhysdCjl/YJQLmsRzP6EwA3X1S7ddfU0oeLGoXbVbukNWxc3+TqogdR/ROALpRkJSSTuTo3F09WAHGrRWs0nTwldwHEhJtcmROt9Pmp7v0aMTRS/qh7fwVItkwI6KYFDi/RlY7kBDBO0zOgvPsLajscAFVD6xtAfRZW1XsCFLtRjgC9RidaJ9HmTM+JVe6bm9MPBLVx2HShOTGjHZMa3/uM0ksbwcOj3ekaEJVtZ07UldFYLU6AoFWMZ4ByFB8BelEzwG0+XiTjrn20jVzKDyNNnsyBocHWR9vcpbyNZ55cSGpJpsmdPV216pan9OPF4UeixItNSvLV3AZ+HhuKNtnHtamY8zAl0i7zwUEoLQfd9ghFucyJGewmmWocPEXEnqezuaPp6Mll9kk7v2fnKTF2xTbsZowaotvuC91ONpS0Ih+kkf4vn5Bahax69+B0BrOxM+6HYG5CQhPEhigsedIn1rMwObMS7KLkKVKWrppcsmeti4Onwrr8ODy/yvO0+it5ys+5PE+ZsKDFqBiDcPmCdvWVPBWWunxGD81rQ5icyOUjRgjfrT0x+T4xHuLyA2sqbH16x6y2y3O775U8BURdvr73fTsPanf5jPe1yzPxmctHtK9cnulJTb6xYX8lT7SbLs8xE5c/6hORbziVyPZzY7p708+tnPTtZ3uvZbyvLXDQmEXFcnaN8/BB046NeVWt+K1xW0iwoUpsfwYNY+zWe9RXcl/XjoH3oO78o8jrlbx09tfDeuoQ6NP9Iv7ULnZi+azyFIm1IU81YeApaP9iTQd7TOJUlafqBc0/VaZ4DloEXpgt3Mo/y8BsrIX+Cgd5gwaFd6kMRUZU/zym6rySLypP58XaeAvbP9GIcSr6O8bsXJi/zvJaJeP9HrWEpmTcbzaJoDA3o7UT7lIOfH4prdpjyd6S576JK/nD8xhVElWfufzgIJbJM9uEreceG8/PI7RhDe0f+7654lgHl2d9GzWTlQvGc1ye/U0r49npbbA3XJ5ppFw+nuSF/Yup55x4l+c/uPw46B+VZ0pCW//U0L+w/ZzY/o/GeFjRnoxG31zQv7P4yWZJxfOo4wN4qqoRRaR40IfKbcuzANLFDAeKlyb9XpHJFK1HJU70vyyqv+fE4PNI3VHkvHK2aT08BMko+mNDZmsf+VK56MiGfFeeLqfx/Fi4svFiphkOBbSBYxn9qaL7LfJ+tnaFPesO488S34s88aCq/Rm5ubNZ/oIbnCxbiNE6G+o1kEKiWzAH2Vm7DzAl16gbnxfuTGvPbOioGc8JT7O1fiN2w4dO8ClMsqVp44KbYKqSLVjyE40wImP55d6COokaafOi8ZjikIJoBREJcy5LXomG2eaxSbkJfdLok1PYBnaljD74nhQp45nYJsk2/wljbktF6qAv9Hmj8R9ErKOOxokfMSa2rgQt5cCcUTQly41C+8pJIk+9f4/5jQ95tPGaOr0BCeyitdkFVGx7UqK+L3EBRWvz5kFX0Ur8eJJWNHo8ZobwspjA+8G4W3h2WDTW4qO83BRH+fHW81jRwFG+vPX8Uws3mJPIg8hHedufpN/29tXzcpAX/cz848lm6QaMyXsB3VG+2/uSDW+VNoEL+pIGPQ/y2c/jQb7Y36fnz34ecX2K3l+H72VFEof9YI0JB3mbfH6UL7aeXP3b33pfY848rGfz++sg302evm+/WB/6+/3i/HIN+Xzr+9pM8oP+GVr0E9BPSMZlzvdLMqpgJlt6jEd4kqfmCCuSOP79aH+ffPCgNcsBmdhzUHsvIKFoDhrUDmhP5uDrj80jF/IY07h4HiqdvHpfqs28Wk/sgLv4XhgDsf0QUZ/7fuOc5ll+/cNvP/7x85//8tdf/vGP3//49vXvX57//1+/fvvyt29f//nrTx//6feff/zty/q3/wM=);lineShape=1;" parent="1" vertex="1">
          <mxGeometry x="-224.85746322348405" y="9.328785394572606" width="474.11702355621105" height="225.03839603264223" as="geometry" />
        </mxCell>
        <mxCell id="-DGPbAvuuRQ1VO4CFWR2-1" value="" style="endArrow=classic;html=1;rounded=0;entryX=0.5;entryY=0;entryDx=0;entryDy=0;exitX=0.5;exitY=1;exitDx=0;exitDy=0;" parent="1" source="S_hvaAE3DvoJQaI-xys6-3" target="T1alL_IBdGlgNFhujSgj-2" edge="1">
          <mxGeometry width="50" height="50" relative="1" as="geometry">
            <mxPoint x="220" y="110" as="sourcePoint" />
            <mxPoint x="415" y="88" as="targetPoint" />
          </mxGeometry>
        </mxCell>
        <mxCell id="-DGPbAvuuRQ1VO4CFWR2-2" value="serve" style="edgeLabel;html=1;align=center;verticalAlign=middle;resizable=0;points=[];labelBackgroundColor=none;" parent="-DGPbAvuuRQ1VO4CFWR2-1" vertex="1" connectable="0">
          <mxGeometry x="-0.0705" y="1" relative="1" as="geometry">
            <mxPoint x="19" y="5" as="offset" />
          </mxGeometry>
        </mxCell>
        <mxCell id="-DGPbAvuuRQ1VO4CFWR2-3" value="1" style="text;html=1;align=center;verticalAlign=middle;resizable=0;points=[];autosize=1;strokeColor=none;fillColor=none;" parent="1" vertex="1">
          <mxGeometry x="382.22" y="-60" width="30" height="30" as="geometry" />
        </mxCell>
        <mxCell id="-DGPbAvuuRQ1VO4CFWR2-4" value="2..*" style="text;html=1;align=center;verticalAlign=middle;resizable=0;points=[];autosize=1;strokeColor=none;fillColor=none;" parent="1" vertex="1">
          <mxGeometry x="165" y="78.05000000000001" width="40" height="30" as="geometry" />
        </mxCell>
        <mxCell id="-DGPbAvuuRQ1VO4CFWR2-5" value="&amp;lt;&amp;lt;Value Object&amp;gt;&amp;gt;&lt;br style=&quot;border-color: var(--border-color);&quot;&gt;Marca do elevador&amp;nbsp;" style="rounded=0;whiteSpace=wrap;html=1;" parent="1" vertex="1">
          <mxGeometry x="262.22" y="-330" width="120" height="60" as="geometry" />
        </mxCell>
        <mxCell id="-DGPbAvuuRQ1VO4CFWR2-6" value="&amp;lt;&amp;lt;Value Object&amp;gt;&amp;gt;&lt;br style=&quot;border-color: var(--border-color);&quot;&gt;Descrição do elevador" style="rounded=0;whiteSpace=wrap;html=1;" parent="1" vertex="1">
          <mxGeometry x="460" y="-177.91999999999996" width="120" height="60" as="geometry" />
        </mxCell>
        <mxCell id="-DGPbAvuuRQ1VO4CFWR2-7" value="&amp;lt;&amp;lt;Value Object&amp;gt;&amp;gt;&lt;br style=&quot;border-color: var(--border-color);&quot;&gt;Modelo" style="rounded=0;whiteSpace=wrap;html=1;" parent="1" vertex="1">
          <mxGeometry x="395" y="-330" width="120" height="60" as="geometry" />
        </mxCell>
        <mxCell id="-DGPbAvuuRQ1VO4CFWR2-8" value="&amp;lt;&amp;lt;Value Object&amp;gt;&amp;gt;&lt;br style=&quot;border-color: var(--border-color);&quot;&gt;Número de série do elevador" style="rounded=0;whiteSpace=wrap;html=1;" parent="1" vertex="1">
          <mxGeometry x="465" y="-249.99999999999997" width="120" height="60" as="geometry" />
        </mxCell>
        <mxCell id="-DGPbAvuuRQ1VO4CFWR2-10" value="" style="endArrow=diamondThin;endFill=1;endSize=24;html=1;rounded=0;exitX=0.5;exitY=0;exitDx=0;exitDy=0;entryX=0.5;entryY=1;entryDx=0;entryDy=0;" parent="1" source="S_hvaAE3DvoJQaI-xys6-3" target="-DGPbAvuuRQ1VO4CFWR2-5" edge="1">
          <mxGeometry width="160" relative="1" as="geometry">
            <mxPoint x="370" y="-108" as="sourcePoint" />
            <mxPoint x="305" y="-189" as="targetPoint" />
          </mxGeometry>
        </mxCell>
        <mxCell id="-DGPbAvuuRQ1VO4CFWR2-11" value="" style="endArrow=diamondThin;endFill=1;endSize=24;html=1;rounded=0;exitX=0.5;exitY=0;exitDx=0;exitDy=0;entryX=0.5;entryY=1;entryDx=0;entryDy=0;" parent="1" source="S_hvaAE3DvoJQaI-xys6-3" target="-DGPbAvuuRQ1VO4CFWR2-7" edge="1">
          <mxGeometry width="160" relative="1" as="geometry">
            <mxPoint x="400" y="-108" as="sourcePoint" />
            <mxPoint x="332" y="-280" as="targetPoint" />
          </mxGeometry>
        </mxCell>
        <mxCell id="-DGPbAvuuRQ1VO4CFWR2-12" value="" style="endArrow=diamondThin;endFill=1;endSize=24;html=1;rounded=0;exitX=0.5;exitY=0;exitDx=0;exitDy=0;entryX=0;entryY=0.5;entryDx=0;entryDy=0;" parent="1" source="S_hvaAE3DvoJQaI-xys6-3" target="-DGPbAvuuRQ1VO4CFWR2-8" edge="1">
          <mxGeometry width="160" relative="1" as="geometry">
            <mxPoint x="410" y="-98" as="sourcePoint" />
            <mxPoint x="342" y="-270" as="targetPoint" />
          </mxGeometry>
        </mxCell>
        <mxCell id="-DGPbAvuuRQ1VO4CFWR2-13" value="" style="endArrow=diamondThin;endFill=1;endSize=24;html=1;rounded=0;exitX=0.5;exitY=0;exitDx=0;exitDy=0;entryX=0;entryY=0.5;entryDx=0;entryDy=0;" parent="1" source="S_hvaAE3DvoJQaI-xys6-3" target="-DGPbAvuuRQ1VO4CFWR2-6" edge="1">
          <mxGeometry width="160" relative="1" as="geometry">
            <mxPoint x="420" y="-88" as="sourcePoint" />
            <mxPoint x="352" y="-260" as="targetPoint" />
          </mxGeometry>
        </mxCell>
        <mxCell id="-DGPbAvuuRQ1VO4CFWR2-14" value="" style="shape=stencil(lZ3ZsiQ3jkS/Rq9p3JfnWf5DZl3dknWPSiapZ/n7IUeTN/K6Rx5WvWkBbsbCIAGHw/FD/pfff/rx1y8/pPD7H799/fuX//r5L3/89EP+1x9S+vmXn7789vMf659+yP/2Q/6Xv3797cvffvv6z1/+8ue///rjttz/9B9f/3P/hf/+0y+VR+nbK4X/+fO/5Eea//cf/v1P+3/8/Mtn+1DUvoN9flSzp7+fHyGJfQ5gnx41qn1E+xDUPoF9fJSh9hnsw2N+p709n9zQPmaxL3D9cT66/v0Cz3/Z///PX/YVrmfZ2/NsZD8erYp9r2if9HkOWG+xP+bn9fOxYN/Zy/ovjwTrbdnHIPaZrqc9ehT7yvapif2g66nP//20r49Az7/qequPBN/LspfnX/l+189Hsa+w/mN59C72jdbnenxJ7Aetn/X6P19/e0S6/rV8s9jj97K2M7XvA+zTY3x+/v0R6O+nR2lij9970vvtj07rIT765+c5HpH+fnxuZ5d9oedp++Hg9Rwe7fP1zOeG984+dbGn65mPWcR8wO3OR52fzPfvob1czb4f2H5s91zPN8Dtjkc3e7rd8chT7Sf+/SD26ZFhOX8srhd72p77o8r1r+MOPt+uX9eyH7Ccm77e9f3T9bdHG2o/4f2251/7sK/4/NdmU9R+wvWv/yvPpz2f2Bt7vf6Ox9262qr2DdZDfUT5+wPDt6rR4T7v4Xna7r/iCfr7RXfnZU/XXzR6W/YT1kN5rsan/Yq3KDwsz8Pzxb7h3w+f73fFl3RcZ13POx6F+80aDSz7gfYSja34mMKBrNH2jr/hfWX9XpY9rX87TQ/hc37EqPb0/Nevf97f9huhdOG5m73Y036VHs3sJ6U7errvL5rCf40O944E6zM9otljeP6Ysh76I1P4rN/vsqf7jc9f/7Dn/SE+qlzP2h/weorZ0/qPz7v7yC7Co1B48ohT7SfbS3YUcT1Hy34/nvCtfdD3lROmv0HPl2VP8UB4DMmuM+63QeOBZU/rIej5lctzR3pnL89n5SdoL/Hbsqd4z+0bpuN39gP2H7df4Ty+L7efsP7X85H3O547zDfbH96X2M9nPvZt9iVgfHJnT+my2398cd9sT/uP268dlden2dN5ZOu5ZExPg+6fhc+7oPlCKXi+h2fy+mJP6XjQ87HU5w75bv8xe/reo2azpeF5HZ/gzYs9whW6/y97hKMUPSn9iY+8Ox+z2nfc/6e834HrIWl8vuwJrksajy37gfFJk/uduN8mu/75jIjexXtJ7Wn/yc/o9wP9Cc+I6I29oG/LvsL1Z12fy57OC4v/a0Q4p2i8t+wJ3i56ni57irdX/lXVnuCoquth2VN+VBUtqpwvtCea8WJP8FXT/GvZ0/7QdH3WD3ztHT4gfz8/n9i34Q/LPiIeUpvaUzxmaPWyZzwnTbWneGxofLXsKR6emr/X8kSo3tiXoPYR7nca2lvwvIjhedy+ONAHH4NmDJUztg1QRnVARDPamiiPSmdAtEXBQe7G6OySOmU9yUD68gzc3zm0qQ6Yx2QFBmtFoHI5SCa2HGhlxI+F+epAj7VoLrYcEuwt8aPy8urAtQk9DTjbiB+1kRcH+vyXg+7vFfHK2Ox7qI9CS6M9yy8vDpUuqdmWVLli1Z+3+OJAmPdy0EO5clA0bFeqnNWPm/eAy3vcXBLhVNE3ykNg6jtle+b67xy0sNee4OF96BU0FlwOVDrZyaU5YHBn0XttuFp3eN3UobCDxhfrhD+U8+0XOjtoxNMwYnBIr3aGDJNitssh0i/k51N/cSAQfKOwQx2oSLlhYXNAmLFoHrUc6ANyGkkdmCjvyDaoQ2biie5Lg6HealvlxCNrB8NFHQicSVXR8OVA0baXa1rgT7TqobgcCM/ZBaSuDp0ea3uWez8cIhaAl4OUOJcDQUBeM1sOhGGlpkXClvh7aIq6LIdOq7Xp4msZ07blMJo60Bm3Ew1xKJhopK4HynKgTDUZEaUdSg1dawGNqRme/DQ+snatIKlDpaf0AX5+OHSE77ZDUwd8D10LgG1gwnrrQIjQjcNESOjWgSgR7tADc8ruHKhqfuMQ+WC/c5jf9Vh7wrj11oEishsHZrrdOJTT8naH0/IWh8oh3J1D+76l0Xj3vnOgXPTGoWNaloxQtxz64ZI+7xr9+InKgbIcCGTcDp83sj45IutPUO7FgVL81DUBH4EPFNtbRzj9gmS7I2IlJXWlniwHSvz2CfT5xY2E2M92SOpAZJV9KMovZP7iLBddDngotiea/eFwOHbbkz344oCHYtO0bFR+Sh8FhRcHDOGaMfI4eU1GMR0Ni9i3DsR6unHoT3jnW++hH39BlsZA4oFHZMsBY+9mRMTJpRWLl5YD5qJds90ZTjGf5HHL4XAoCnl0OWDyOpQfMyPirZvNGdQBb3pohWs5YBg6taQ3E5boloNsxssBD8WpadlyILhok0LlHjKSwHPQpTGZhb8cWlQHivlysDfNQHyOCoRMRtazUWuWA5UONxNlqgPBdjlp8WcyyLwclMvLZPbloIuv4q6Rs2a7ywHrgR8x5IsDQfHLQQ6U5UDZbjaoZTJstxky5kAVjlyVZLwc8KarRmSTQbVNqhnqQOnAxar5cGAafLZzenbE7nPXPpnZkSm3HIQqPTsCUrkrF2N2PNgv6s6LA8UaeTy5bi8OtPMth+oOcCguB31xHflmeWrBezkQ4Xvzg+zFTVp8UylqcyBsV4JyIpcDgQjFWwyYZFGsh2EOZCEWo5UsB8rYNwvJfoGgx5I09t4ORDxO9sUNTF6LlQiXA0UCJSv3YA5E4ZaDfnEDF1/JGkovBwp/SlGMbDnQvrQciv0C8sWLEqbmxLRs86OCOlBddDkIRjY5bi0GMs+J+fRyEFLEZJJtaTeXRJBXaRbNTOwa3awqd4C9tXQlgkwmKpVhYejRQar4JwcPdI8OQvY8ONRws5YODrrzHRyMv7wdqF8kWqA7ES6qyTIU/h6Wg1Tx9xdHDlmR9b1r0E1nbTE8bGTVeqL33soOek4PXN6bzuFHFvX5VFt8A6GWzTuweImYgZsVYPESpQO7Zu/hD910s6XREZXe1Wi7JMqBdnFZ1lJj+puBCDsypnvoStg6xN7LQR8rR/e1K+Q1G1Zed2HWUpoJm3EdWnSZFZPXOuycrtxlNi2aYYysTnusFXmU1cPQikB5nVp53ckr3MOu5FrGTpniruQmdaClsSu5dkkUVbZ4k4DTTTfja8zM7ZDRPqCMmWJL2h6+HGirXA4aSrMgREsW/nBtt5nixIaLqGc0K7tocrm5GQt5MlC+a8VNHRLdQzHYLvFNlxvYDm/amMUzIoWkGRduRsSMl4M+pYhhaDNy8eSSSDN28eS6aGvaHjm5vbMZv3g5UNGldeX+TK7ttjvMmLb7ZufDmLjdNzsfBrNaloPgrcuBGIPLQaKZ5UBnXJtWy5q8kU09ssbg5W3E5OVAxIIe9BMdnLHvmn1VB6SSW6/P4N6vbs2AgyOyHrX7YjkQlaebGM7ouBkvBy1+Mc7XDdfYpSn6BaM+j4bl5uUgsffgiGw5dPsF1ETIui8tB0rAe1bceznQRtZNVGlUDNaXg2D3y4FYLb0oqDaYZ7ypEFYXJUygFxUmGkwQXw5awCuIJPZqy7vgRtarQl7Lgco6vSqiuxwoPd7sDK9Pwwm0HKThaWR+014BZwGn7jyBzBtZ11hjOeCb7lZjz3zTw76HhF1Y3WRRBpcIu2Ez46BzYjXFwY2gy0E3Y2Y9jmCPlVu/l4M+Vu4NG1ELqeu/EE9gX4BRSBK8h/VMkv0CytkkO+MClmrXyonGm6EG3uUg1bLlQG96mGDUgcpzEUaeDuvdE+V22Ea2HAi7HwYBLweqT4+qAdb6QugUHU3D0E2pYgcJ1q+P9t6ha3dCZ0b5MG7ogUe2HJoRz6i8tsMp+wUqEe6ArakDlWqvkPDDoeGRtYPOpg50ZI2h1bLODRPDQul9xNAlTWPbNdzux7TFx700K4GRmmJnuGhaj98+6vkXVHSt4Cm6WTJG9SRAajnoJsDCF9M6XXaMRkph0d505ktK2rK3HCI7CKi2Ql8CypeDVMuu4Pqdg1RplgMBtNPV8iLrtWXFlzqjDhfT58WBgpNpkkadMYENcHV1wNWatSmwsYjNBumMUU5n3IYBjeRO4OYGGps6oMye9Vq2jsj6NCWw1vFQnHaKbvCF7qFq7N04j9uQsjhU7KqdVhJpLK65uUTiUPDY3Ui93HRGMGfXAsyBMvbZFLbbgCrdQ9NctEU82KdxQ3fHEd+DpDQXdH7v0E0FgVUoNpfImtEI955G9awM5kwTPqxMFppdle4qK5Ps6ltVB2KfXsSdD4eKWkezq3ja7mOnx2rs03pYrUMz9spq0ZtWIw4JafSbJSMOjHvvSm5WBzxFh704btnbxeXPl1QmJn7bYapD4HtQlR7utdykF5O5oQrHVYL/cGgc/kwNTkrD/GGzAj4v71IR15jTpIAKkoUuKsSLA2pZGDH5YjS9dZBfSPwBWdN44Tar7ZDVAfdWA8rLYW+dSojNExWipiEnW2KMX5wqog8E1abVdnPHost2EJW6hgXtObXokrnNajmoThoXtLfD500gF94EpumoF+wtm1PT48zSu8tBQLWcOC2bWlPMx9UqO1+OiGtsB1lLgYPEqYjuVqDhm1aBysmn6NSUJg1sZ5hTGVKpY8l8Tg2lUz9dkvCXUjvtS1LWSSzI4dtMqnwCGYiQGFnfDiYES0Sbi4H44kAs4O0gTylxpmgnUIqI800DmRO31vspmgKq/c6hjSvxsLyH5tPxGDrINx0H1oEukvCHQ+enNEyiuZ8CLDlFL42bt1GlXBITnjZVrqsD3rTJeEUmC10s+xcHKrrsdEB+IfPeap3yW5GJ70GimZj4KVnhKB7QH2v/jIkDrKbqs3taAaeWcihGltudzRZfOOXTknCcBP5dAZ4VxWdV5YjIXYTTNKQm75TVCLQcmlQjhXGqW61Ew1hr0R4UZl5M638aHMcU1acavOUVgxAZ9ckaY3TkE8ys+1dHjbCZrFzEgV7SHbgxeph8ggmVEWc0TRqGDaKm3A2py9O6bSrvdDZBqWKdaDfl6sQZIr0Mi+VZ0+2iJl32hyKRaqwiUjqGZcJcMu26KTJqM6zvmTvih5GoeeTGMEiSORPDWBlMYh2G83IlZhTTIEecYNnL88l4KI2sKUVGiGqXuHVCFkqCWlElYwJyERcue6zcRp/YRfHZsNoZsz1G0Cww8foPFunj/tCtHsnd4N0moCUszPWh8HRCYmw3CJJHaHQrUydEN7o1srLSTjclhcQjeZqlZthD1G1CWUJIqlfF4ZjKvIlk+jyp06Xb9xsRj+rZMpoT1y7o30fyUrKZSMxSi5ZsMOHRJnZFVPzpQVk/TCvqJobAOjPNZ2ph6tN8Rhb2+Df7viLub81ENRiE2pRtvV8635vPmML9cNlHvV9SfmhV4Z6AHJMtE1fUnp5/0f0knNojhv59lOTOGp8HjLeb8XEDgrfNVCVYEbFFzaeO9rJfHeyDFuoO12/97YEl3Y3KHrhFzXqpAvfxDd3PA3dHDt1/Asaf1eqSAferavphzAisBkMEltRv/n1R/HaVXV/s6X4tHz/aB31f2EZp+fLRPur3iPZZ93MesbD7cfX7RXsj7AeEmWrUMnXA/GXZF/v7ZB803jvaZ1s/pAUxff852Cd7v7D+i+WbR/v4XX/fOlgP129Cpgf7plAor4dlH+15Uhu+9aEd7e18oe+lFMVP+HsvRUmkB3tjg/F+VbKWT4/2vj+w8kiz9UAjUmzG3cE+erxxsC/2/Nk+2HojexNZCMjp2vo1ev0o8jNvzkfSWrIC/NHevhc6T7N18wUsE+ehAqFH+6jrk/Dh3P37OthX3X8O9vF74pNs4idHe39fbB/1+0L7erN+SLaqKlviaG/fL9oXLXgc7Zvubzhi6mb/PNhHe1+koZUVPzna2/l4sA8W/7PsXrd4nkX0bL2hNGHSwjm37GSbKcpN1/lmf6Za6rK3/QEFxmzmZEC8Mdv+HFnV05QjGB/Y5TfDH0gfdmp+wfjJLqepPY6IG45vEMErWb4WWZPUBKIPgqFd13/i52l4S2I99uZ48mHqw9TrQcVgq18wPuwz2bj5MVk+eBBKt7lJPGJ5T0g2e1r/WfOvzCOKs82k5fVv+BLXI3wmduYxINYrnVh+OStLIeF+u+2Fz8UK7D4DnL9fU6NKPJ/DzjuuL1zluhd7nvSS9flQvLft9flQ/SWZ9klCRUq3zzzPx3pfMu8/RYk0GWVM9vNMYk/15av8+Y3fY7GZ0qysnZVUxu3dyeKfzBLT9r1kHopw9z3y9Vu9ifDkZIq9ic+7rPUXrt8l45Mczovvta/+veMMlWoUJox/UtWGhsjP03qUIs9paqrwFHkSgrUec4dfMiXgyNOEusbD3PDhMzy5XpOsZyXwfmWz6QLvh9PxNFRwN7rwYcTUdPwcNbeD51/0/PMNvkr7Z44aLwVWhrZG2oD16GwzlgPyl5a94Rv0Pe58TfMX2g+z6ZXxSPV8U1+j+vhdforK8zf5L9rf5Nd0/t7l7wd7y+8O9oY/4PO5wTcO9oafHOwNn6F49Q7/Odhbvn+wN/wK7W/wMVyfN/jbwd7wPbS/wQ8pf7/DJw/2hn/i0IIbfPVg7++LFdd9/bC6ueHPxI+9w7fR/gY/xxHpN/jPwd7X53fWF1Au/qZ+gfY39ZGDvdVfDvZW30H7m/0TBcdv6lPEt7yrfx3sLZ6hfOqufkfn7119EO1v6o+k7HRX30T7m/opxZN39Vm0v6n/Huytvkz2d/Xrg73Fb6hHfFN/P9hbfR/tb/gDKJ19w0842Pt6ID7ADb/iYG/8DVQuvuGHHOyNf4L2N/yWg73lF3i/7eb90vPvN+uH+DkmiBpQ1Kxav1lgzfybeIDynWpt5NwgVKfXd6j/YvPHLF/7Tn4a8jNv+G/U2nnHr0P7G/7ewd6eDzVRtuz7G+oUG17EPciuzcz8mXaTj6AseL3hR9H7tYnPXO9uNiyZ+X7NZmEG7GTf/Fu9X+SLDv/eCZ9vU+VYucWvWSs+1/s2/1n5zLRf9aDrP7JmaLR+V9xPetR6QWQ+v9V/uZ7Y7XyMiBf1rPEMzwvvJk514J+bkOyB3151fR748zaDndu+u802i1jvdsXWyLK2xndNmI93Gzt26KcYqup2UDq1JvSE5+kWu1R8GzWkp/enoGpp8HoTzYEe9j0m5NeN6PUvqueOqPtnYl3XpPtJwn6TYQMPEve7Za//or5pNh0QFh/9znrWsO83syBlVbwis+xt9b+POqLN/z72Azb/+9i/1vX5FO4P7aYPxf16JnfAUhvDxJN5DuiwEYCF+x9NR6aw4lbQ/Z+HgM6g/JaK8fnW9hRVMhZGiIrfVjxfpuWnFff/Pf5W5O24P936Xxr3j2fFTxrLNBge1ViJKJuMLuLb06TlO2u8mZQkj43aegJqj7pfVfHqgd/jHk0kutssZeOq8tyfXrWeyBMFp4/JwnrclrCQWTEnBYuq9qjf5f1ugReozXaNzNCcNng+cog+TXw6HlRhu/VMchC35VYkiOOoZlpXfmTa0JZrlLbAzLJo3YREMqs6GVAZC1Zep82nXQ54D0NLtbGe9B01N6n8MTvZsfHXOUyJ56CuZYrb8ayNKKv1IFgyjbAwsaLqUlbLASWJp4XI4SRappzEg0qy6QrurOkg4vf5Hg5h/rQ24oPOwBZec0kxWhrTAmtWtnABvIub89ahq8NhLamWwUF8xZOnw+ls45eXw0HfUelQx+Wt+ejEBHZOI9xOlkqfWiHLTGmJIWiP+WaVw13fe6Dkl18U8z79tjMLe2wHIe4VzOy2Q1SHg6KdSDVtWUu+JOUGHsR/jDy/6Qe8XpVNyDOstoO8uMH5wtR4O/NM6DkVQM/z9FXLvrFFWA/7hunCoo6+yVoWnkbjeqSFZxy6SmXJJ4VH2fC33C6/B+FllILEue0gv1BZXd2UX0pj+ThrnS/9tOHLSb2FlXn/FrJUGSeVSlG3KpO/uKHp6nI4hFhyQlRuwHW96sqDHXcQN9SBINEdJsovHPbWoeF6zXyOWuRaeXDXtC6a5XCQ5pSorx5wiaE84XrYW63wWRu/6a7IaD1I25lKZR3IHXeVymsU8NvELKoDohOmZta4vXxa+blxvWU2jckaA/KuUtkSLw1TqWyH0S9N96VWeGmY5kzjUXmzaujQKguYVpv60PhNVxXebzzZaNoE89ZZ+9yEKpcDxpWmnNN4bPs0aHs5HH5BsMY2eav0wSyHWMPUrzrTeXy4TOf+9Gn9Gj3ym866a/TIoUNWhmDnloQ95McGFSX+Bek57DxQ8BoZ/eKAKJmxCju3yU2TCesZ+/I3rhzVAU/RpJtA50rDNCWyzlKRDqX3itzsawL0iwMujWDv4YC+Bw1D93gzHj4m5e/OeqnDQunOg4puJq7x0NybmW4dU5qbqXH9VCPSuXSdb9qGSO8y9GEYn3zTg2UmuwaJy4FCOK+7dQbi9+Rh+wWaCjSMWb/nNFKprtmItsm1t2ozDieOaBtVi3WD2ZLXiNwXByzHFptFfJjIacPtlwM+Vmvo21NFWUFVFZ9ZMvAaL/vigO8haY/qiJjHjajx0mDVyRGtysQ0jGE0+32R9FhtiuLgxt8RtNA0eHxNt/kegwcKdsOlB/eGdtvIBg+M6pb47fHIxD4ZNsw78+TsrrNiBh+73foTN4OCLqnZ0Fw+dntTIGRrHtNTqja8uDLHyDj9ozIJyIuonD9038gqtonuceFdHVDHtygKtxxw9HzRtGzv57RarXN+cKzRLfY+j57X5d2YDGeR8WgYSm/2X1AHQkO7tTeOzvzIZPfQmSCWNEgcHVHpHu2xdiyBdxvWOphT0K2nYQxeGlHTssHzlLsFuoMncvZg+9LATLEHBREGDwldmacgJzswPTBthzocpICFCjsmcu+c+7unExM52pqtJ3c3NAMGJ7dDNxsuMxmQajbYcQaMW/fg1KwOeNNdGeGTA6xmkNdkRLdZD8g8iD433e4nqwLs0axTHQjBataWO1kHoZku+UzYaLKJ/Ekd8KaN6XQNTH7nIAfKNTD53iHbU8pYsFgOgsJNVudpNk958tyhlpSuNTPfdLq5JKoD7QYSuSQeldei7q2TgZDlIKH0BvKoJ8FwjckkyhY0IttgJK2loKz7yWNIloPApxtQpb6ToH1gkwepuDD1rDj5rtqsyckRWbXy2uSIrNqg08kRWTUgZIPzB/XrqQ4o72wsrNkwbq1dK+C7hMEOAlPsIgkrbOtm3HFp7BY+czhoZgtGNnno0nKQSGCXw+g9NIXtdoWOHGxsxeShudUKFrssSU/JD5TB34NlKNeg3ncOUl67ysPvHHSrnDjBvBr595rc+M6h2C8Q6lCTAoPX6NN3DoKRTaYLLYdoT4lgihptE5iIYNWoKf7FBrp3MI2FObGpowbjbgaWYSk+huPsoY1fJ4+hMdY3eHzvb3Q76PhRLQc9e/lllKacpDmxg7A0ywkmQkClKox1Ma3eOfj6oMBvOWS7aaJ6laqZ0zWt997BxvAcvtNic0WuMcvvHILdA20dJWt+uSlBdEnWCnwRX+8dkoJM11Dwdw7NHmuix5o0C5+T5R1Mbveatf7OodkWTvXaEpXaso8heqzBEqGBRbkSLDcbqEm8NWzssKY9PxvP8CIdvXMQ9tk16fadg7ZlDKRJ5aGVl81SImGgYaf7wNXqSkhzYIlgSy2ZA2V/ud+8OCIm5m7LeyDekpuhIR0349wsR+6sV236vrMj4r85sEMdqHqUTbFxx9MsSV7tFwh6yKbxu3MCugersc3GN53te2gY7eZ8k9egbmCyA6VhBpuTNnZPrv3nZGccJ6Q52ida+ZuOWhzdSTW96WjfQ+UPKN5k4Sh3F+weCjKss81X3RN42UHfdEE6Qpq2zZSTxLomEZk1lKf2+E1uMk5DmVsz46G4HBThPMjODrskbnjZbYzyCwfh1m4vjpUUkk22mzwKLzXbKnk2QbJe6RkQWUtNk+oxEdZ1Ndndr0xypk0xo10XYQet1w4WeDZy5W7ppqVx50Db/Y1DY435O4eDqL6UCEZFGGs7WPmVZOeSIf67SE2faNPVOgoLT1vj6y7l84vTtZRP70ESv3HQdm9aqhnH4QZaHD18081YHgc542bj1VnvJxmdebBgrw9o6BOj+2QKRJtXxY9VgsQ+MNvdI9KDOuBQBBNF7Z1VnJsREzvWRW4cGiL+tw4EWN44cLx063B6SuJQ+FC8c0j8xakD03O2Q1cHQvxvHLgT6taByuA3DqxgdOtASdONA2uE3TqgSL857DG/h+VtDjiGwR0G6vokm2vdOsdLhvO1fvoFKWgth8M9CDTdGmrHpaYV4VZ5+IGJNRz6MvwE2mVr/h7kjGtc6/Rj99CM4pFAy6fzQWi0jTtl94gCceCZ88nYBcsBRfWrLY3E20xVGHvrJNJTqhoJtMMcqKols8Ysj2SUu0sa8p2DMHsbSy9eSkAvDrjNGMhcJyccxRr9Jk8jKnrTlcFNH3+ya8T0C1kh4Do4EjA6c2VuWMqKL11F5XuHpGlZ7bzNJOW3LQcMsEzUrDLlLhlhunJfd3KZps7fQ9TEr7IQ0dalNAdMB8LNU6Km0WQM69qQJR6tc3w7wJuOhpzUhrXOS3rk1QFeXBzWA9pwacShsN12gDcdrVVk0wfokoySXVkCazkk+wUUkDAJo8qxd2zW+NpwX4pNaYO1Ia4RTXaqNpa0qHpOV8YEYrl5D7R7R+tu3A50D9aseIlP3ztkTfy2A30PWfsna8XwJyYtr1VWJIpJQ7haeXkbXa1WXt5RCUCVsZkYbfGxjEd0ybzKy9s0pGvFIysGDUOXA3GSorXhbd1z6li2z+HQeqhAfOW4eGh6suwpaLXiXWVU3YgRm9xDvQNKZK7MYexaja8sS9ktxshIuzDQZ9lT2cHSjMrtrk1rOVvRgRgzpm3AY+uqvS+WWbXm8sqyr9Z3V1mG1qZ6VG73sqkDyx7H5igiVplPnW1vZ5nnrNnIsifmRLbzL/IYTxMd4bHYSXHSPfeCgjulilQe65T0+y3Mp7FNvTCzxFgchUXjonYwbrIWHXwqoVgGolpR94fCjE7jiBRu4gmaYG/pHXhfphJbmFYbtPBUGnJeg+5XpSIgbN01y57Kf6YyX1hG11KJUlCFM2juXjJ+70HVZwrjqKaXVhISbu7sKSBw+4jnxZ095chuH3B/vrOn/db15Cbun24/8Dyy95WZXeT2DAnc2VP67fbtsJ51iu3pe5R4IFdMQ239L3uqkwWbwlswpzSGWs6YeNv+sAk0vP+I6ByPfbapnJkVboMCaXvuJn7vch7tuZ7491VFnc/fYFO052F9TrMnjDjqeb0pIZSQ6PtNTGSLNnWeleDsvF72dF5ExTx2tQLP9272mJsrdHuQLrWe241HExZmUxAKxktJ0YuDWGuyKRQF92ebIrbVYwle1B6BdKhJ2JTrA+HIpm6wGIMpGqXEY3htPUdEFrNyJfYKJLaekiYPY3Oy7ieJxyAbEnTtkO/ynaH22Hdgqs4T4w2DsiJrw9gU+ci9PkWx5jiwxGu9ppFlUG0qZOxYASuKk8WOlfxqU5QarueqmhaxYfxmyjmRqZvVpihVXA9Nv5eNdlKDpk09Z9WPZlPYmfLYTKac44duz/+jVeGNvRSalz3xu6xLMUb8+0Pjqw1CkpaSAoiRaUtDKyeRx/SZkgB36DhDldXMFY3iFoxo0efAxRCDSZVwtSEovYm7K9e7kappx4932dtMDwoml71Eb9ziuocv6MwT2qyu2QuXPS2GaDOUKtfpspLqKgrwxKKsbg6W9t6h14O1nqLoRuX1VjQ6KVw1rHr9BZP9XXvSmUKUvEQTbyj8fGxmKav3RqNZ8gyoZS/oVeb1ZvNFWCw72gwolrlaZ7koAmY8HKOx15kPs2MRnbFGCiPRqikJiyM7lpJsh8kwQdFhBpc2uqcz2egw2tmjzlhDjke06Jbtk6I5h+uxmY0sFHLlEi/2TGrRbIf55NaaeXj+RbuHjn9f9itOdpI1TB04m0VJC4f1Viy7Y4Za8Rl9yLQtPjMQ+Thmn5mIaNfDMwD9fjmY9OeZUUbA31dmgreth8w0YVtvvH+e7dc//PrjHz/9+S9//fkf//j9j9++/v3L6///69ffvvztt6///OUvH//p959+/PXL+rf/BQ==);lineShape=1;" parent="1" vertex="1">
          <mxGeometry x="182.90959464003572" y="-351.53080155974317" width="442.5008806813035" height="324.89627040047577" as="geometry" />
        </mxCell>
        <mxCell id="0bLdb5G80Vx_b5dNChgc-2" value="" style="endArrow=diamondThin;endFill=1;endSize=24;html=1;rounded=0;exitX=0;exitY=1;exitDx=0;exitDy=0;entryX=0.5;entryY=0;entryDx=0;entryDy=0;" parent="1" source="SjoaXMamBfVHpwQWyRi_-16" target="0bLdb5G80Vx_b5dNChgc-3" edge="1">
          <mxGeometry width="160" relative="1" as="geometry">
            <mxPoint x="810" y="740" as="sourcePoint" />
            <mxPoint x="680" y="810" as="targetPoint" />
            <Array as="points" />
          </mxGeometry>
        </mxCell>
        <mxCell id="0bLdb5G80Vx_b5dNChgc-3" value="&amp;lt;&amp;lt;Value Object&amp;gt;&amp;gt;&lt;br style=&quot;border-color: var(--border-color);&quot;&gt;Id Tipo de Dispositivo" style="rounded=0;whiteSpace=wrap;html=1;" parent="1" vertex="1">
          <mxGeometry x="620" y="790" width="120" height="60" as="geometry" />
        </mxCell>
        <mxCell id="0bLdb5G80Vx_b5dNChgc-8" value="" style="shape=stencil(pZ3Z0iQ3boWfpm8ruC/XY/s9FKHWSDGyWtHSeHl7k5Zr6XOyPvYfvtMC/JXJJEHg4AD4lP/2x88//P75Uwp//Pn1yz8+/+cvP/7586f8L59S+uW3nz9//eXP9U+f8r9+yn/76cvXz3//+uWfv/3417///sOW3P/071/+Y/+F//pLr9RbqVsrhf/+67/E25j/+x/+7S/5X3/57VW+3HoR+R5BPt9mFvnSUD53kU/0POn+80/5SM8Tb3N8Ix/uD/hOPlWR/78FuJYPt9pFvo738nneZhP5wvIlqXwC+XGbReQzrOeSr1Hl6XnGLWZ9ngDy/dZ1fQqs55Iv+vyV3rf78zTYD7ndhn1flq+6fwY9T7tl/V6T5WOQ/RwqyNf7cX3Z/x3lq55H3A/1lvW8F5aPak8qyRfd//HWWF7WP+L5XfJiTxKvZ7nFJvKR9r/Zt3T/4O/kexB5sodLvkyRb/z3kz5/p/XMt6DPM2n/JLX/+f7B38nL/bIMPH2vdN++T/lK8uvzB5Hv9Dxre2WRx/ddx+Pb9Sy8Hx7Xz1Me7eEyH/r3G71vuH/+p/yg/RPuy32Xr7fEzyP7od4ayKd5a9+ex3YL8PxLXtaz4X235EMV+Qnvm8atf/u+/b4B38mXKPKHvy/fd6A93H8uiPyE+27Jy/PPuwF+J1+byJN/suSz3BcBL4ylkLIqkAVaCkEsdLz/l2uFZi7iujPoHdrdpD0UEm+6dmtNFSrt6nZ3Mh4KDzv5TkHd1nx3pN4piF8Zyy2wQkyqUGlnNz3Jsd4CbdXlSgxVaLQ1qvpysd03yzuFZgrkPS0F8aZjR3d3KRR5h8Fbo9p5GHeL9lZBlnXijb8N7rcfLgXeS9VckHB6JPEZt5PGvyBGdXs5vEohqsKgI1o0zNr3OO3Wcr+GHwrlvm7frzBolVyh8hH1d3g459+vgB9uKYhz148vPVSh03Vl7vW6f9JBoagCXihLQbbGvCVeVom4tg9BdqmomVlOCvkw24VqqtB5WSUoyo+w/52CWI2l0MlUFjUCy9HNvEqhqMKgX8j3A/lQyOz55FsTz3z9Jq3S+ntZFSi2Wwrp262RH6btWiHp9l4K+OE8Glk3EJ24pOHUBgBoeyd1fzYiQZsvqplZCujxRY0I88GljBZSTf5w8X5cXhQIRNkYxbfvUA5XVrgHXS8K6NYHdbAK43BLIX374Uq8u1zvFEJXhQHvsK5xsUsloZlZCq2oAp2HpVCCKkxYpaUgnsCGR2EvLd9lJlUg27qdHVlWNgJLQTbfUshgZpaCGIGlQJfi8vB08z2uyXcKcoBKRcx4+5BNFQikXQrJfoF8jWghTWkIGywF3UsNcaGloLhEQ+BjKciFUjqe6fgwvS8K5DosBd3eHbGbHY90Vei0SsXMzOB3KIoeLwWKUJaCwMdLgfDpaNfuUiAAZ8eFpjBYQRC9Mvmlkx2giRjdUhAMZylk/gVxf5YC+Ro7PjeFCtY7Rg3xCzuJMerFvhTQ3MdbNIUJHlkMiuRUvhQ3TuIKtL3D3SV8UaCwbCkEV4BVmnqklzwdh6ke35aHN1j7rKg8ob1Dr9zK2aahYNeSp323DntXeUKW7OqpjHV1DTQqZwe7gbEB0dt+8X3pKmx6kGu8o0Zv5OUSWfJk4h/Y7os8fa+q9nrJU8hd9RAv+QbftyqIVjkMM9xjydOZt1C1MtBY7qjiizxhQ8UOPOOSRYGemtCXymayEmb3s+2fjNn0rM5gZf/UAsIljxGknceM5yUpUlAL7v+k8GLlbE1SlLeyL5vUb1zyk2JyO1+V3RV734r7P9r7NkQhoiZHljytf1RXpXY873YHL3n+++Iw1oHZqWjJrIHZvqDgV50Y3ARNvi/5Dt/rwRW4yze+4IN+3yVP0EDQ+33JU5wSFI9vzLax5GNj9o+RYVrC82ioQEvoJq7VkL+fMXoNGg4s+cJ/P6g8nd+H9/KQL3cP6p18VXlihwQlY7SK0Yklf1vDJFNQssqS5/WX+6t1BPiu5Am+dvmB98uVPGFvLs/AmMn35YHz8yeVP6znt9+3c+o06H3U4+m8yPMzGybo/b7kK76v+D8931GHd/JV5em+sIhqyROAFhTi7gXTh0GRpP7wAN/Jf3vf9Yp5A7P/S57826AZ2d4O30uyPUu+4P0bTB6D5juI9ZDvGG9GtT9LHhFS2z+cvY2KXnaGzqPmqpY8+2NCRuoT4x0jO/WJ+yfp/hkB79+sMMqSJ38jK1l0RLTP+Q6/vchT1rYo2W+c4inBvkbC81IUzl7y9DxV7e2SHxhvir80MtrzpvjGkk9gb9t9t7/Ik7/R797LizyBiV39n5ERQO3q345HhPgGP9H9U/A8DvWHlzyRi4wMtuQZXxpZ5ek8OqK2FBCoDPf98qKAEUzUvNRWoBAmaspyKRBDOSY1uoMpghvOtVVqjGErp+2oIH79ScGy2WcF3dlHBTUVB4V6sfcOCiN8SKFp6vis8MEP1z+6rF0vqLPC8M0HHtRO9/l5oCM6tIBjFM4aTSXC7TPNaVe9dQrndObdKXhV4PS37yXCDbbjaMtKGRdHSg6WcrtGtqx0VW3syVbpoOBH9KCgVNiDQtZw6LRK2fypgvmHZOm+05cuilAf7ocNIfuZJgizmo9RThxJPdP1RHnUVaq8l5qGCYPz5c6GXQqEa+zEhSxrY1Kle0rtg7znwaFL6nZEO7Nhh4K9Y2DOPw0z94OJcNO+w2Tu9rTdOpm7PTVAmgH3kpcXzIARZw5q7ienzHJUOvl8oMDvFCRpOR81HO8UxCObnHXKBtMvBSzqShqXzIS4fk4aOCwFSlxucmBVBWIV5Ky36MynQic500sBKxWzgsVL4VCKNOQXOHuza7WiKmAxYdF7eikQ/piLvQNz6LPRZ2fFgCNXTZnMihDMUtBHekSl1wpNTeVSoCA0N6VHTUaFclPYaXZMa+SuOP/sXAVnVTeTgeNsvLbJSFKeSutfCgRNZHMSlwItawlq7idXGhRDz+ZANKkkTY9NZgrt4umhCnTiSlai9FJIpFBsWblaolS945YCXSjFwrKtQMvaFGScE21r6crd3gpUk241X0uBQvwyNJ6efE9vQtf8oEL/kEK1VMFJIdqlOBGm2NQO23yokC720kFhfuyRshYXnxSKEoy2Apy4avUYey+BIavVrMbEaLc+CPCvJ444Ok2Rk32mCWTtGk8frEYdGtJMht3rlfUmcmud6nvPwcs6lbm1FIgJsRP19guUilkKaiqZ3NqCfYeOhmzn6rsqkCewFCR9ti52ukVbtEdqiGu0pISsWZFw1IyBMysG4C1dOIlUF9Oy5igmIyfNkiYzYziwFIRFMbmGfikM8+4pHGjFLvaIvIKlkOTEceK5WZuEHSmygoaWfESbNW5Y8TR5M60oJX6F+JTMXwqSvR2NszlGJx9Mt9oKhv6Q39qKJnwHtydoxjgcGQOOrSCPxA0lWjFwM/J3sNrPwSShVq+ylPwLipwwLblZU5I+79/+nUI1BYp2m5U2d8ZmmpVXdK40WAqeG6coq1kRe+/YuqUZRtY7sn9aV8vXG2YHloKAm0sBt8bQ+6FX9ASaZQcOjIlmJVO9IvrTplrvXrHKtwfdrb0g1NKtOK5zSqRHoxkVfIce1Qj0gnn+njTE79wG5cnjeVEg12H972YK5JGtJxZucGcu8VKQ4HUpkPuzN4Ls1oSwXbeGCEuBsPvNtkmqQHyjbshJ53ZD6wTLtdsjf7iuJeZLgYzxZtAMVSDOxZNC86JASZc+jYUWES7qVpnZuVh0WLFo5wLw4cQvbjM2DJXuAXGNpSDU087U32EVUMtSkfszkuayGreC2Y7CUAXKvG4yTVMFOqKbHVNVgSrRhtWkbwInPZJ5xs8b452CoD9LgUouloKACPsSoxqlqq70UiA3dCkI52Tfq7SXmprK1hHBWgoS+LWOzsn2tGVrNDSVwyqbDszhnUybqkCWb4UX4s20ioZsjAuyNH64Yez2ggmLpSD3Q+PQcqfr5MNlrNcY0wjZGWvSx7xi0NMqef+uiA0Rhhnjxh0KpxUptkPRYVAXbldhEIssKDBY+UxP4zVX5qVOL+VsGA48k5oPBU7rTC8lKUil3FnQpAr4HaLeD5X30lIQ/tJGYMGQ7TyrPFLEW3RGq6cKvKzejW8i+jONnlcmGuNpFOfCDXOm4d6lYx5oesc/7hI0g5VnM5tiBquF5r4rfoAKJ1JnsDJ5Jp4uqyFu6FIg6sI2M6KQMIeyFaIqEHKyFLSZQMQMx1aIqoBXltnWEk6rJCF+CWj5XCFPLBD2d1gKxMHaCtLOZjBleCpA+2wp/PZ+SKpAnvFSEK8yczJ4WllZ5i5y+4ha0x+qw5neYYfpSNPoebtRMP2C5Xafef13CoK3ZkZONv8jqAKlRDYsLgoFq3Gm8TU2v4IeqVz8AkVZs178AmXAZ7VfyIh7T+PCZYYpprEpMreSnM0aebHlm12TwZkbF82uPb5zREd3Z66s3RnlgZ5ki4cCF6JOAwZz4GUdyj5NEwO/aTnFTafjXxDvPg0ENzfZQh6pY5bmmWd9KHAz3GnISeL6z51cll9gQuy0nla7vzO/tJTQPInEbxWsuyVuDaMuxIlB0zRPIDImMKdSSJ4tpd4+kvUxxRvIrt1Y2bufGovGiuDm/tLyC1x6POdFx9rDssodF7n195N89FBgEuNO8suXjtiMeSf5rdUwvvSwlw7ozcyh4UDkeQXT8NbdpIdWqWuKkFNZs1u2GRPm04nP6CHu20QbXBN0uikEkjlmR6apDRuYbpkGdnUOfozuyLSLafyxjgyeJS89iA6+ZDUsmtEP6wnbkbg4LU3e+C4vhsmye24NzhqygzYrWLBGdneS9dxgU2qodWWjkgwnYTApKvW6YjtbBwyYIbyRIf376McH67WGNnFH2kPlCeo1F6FgQmnJB3tfwguHQWecAhjWowmjkGHNHCv6UKNpbFcxp7fktUcNIk67NObb/dawXGEUjZfbnbvzTt7OL/FjL1IqDMxny6ggJLcrsgXeRaBzRE15NmSIDcMIGyMc3pMBQ/clH/V+ofN+kb3E/dmHgkAdv1fvyrnjFkq9K7mS769uPd86ft/Nt9D3pfulWz/wju79zvvrfUeMkJ6NtIX3S8/KkmTeZk9637F/0u0+GifqRdTnSWD/N7dD/z7dv90LPzEn5WQTjnJ36t2eh+Ulkjk8T7CqaW6xYMEb4/XNUmq8nm34fjjIZ3v+A4fK1p/etyu/e2BNbGtW7YnAypJPJs9sP/P/kZpq/vBglnPx9SGSwmay6vdC5quRcQemAjc9WJ+H7G2zIoSjfNHnJ/SvxYu/z/L+/Ex8N/tD5LVmFaED/fNnx7yX/cDyWv6PkHA1oJCzC9Wwzo7+yZLXHkpcAdKM3IfxYK0X/hWXpCixAvGBavu/Is1oyZv/TwWOO2csqUKML3ZZkPTHxlx+tTw4p8Gr9Qxkdn81+kLmgaRT4x0uBihT/ZPEA1UNVUvoH5ZheCtC97sWTSBjvL+WfFZ5iu+WfFR5io+KnceIiF0xEjOPfShd8aWI+ENpBvDx97L7N2KCaZcn6oBO2p9LXudRIWe7GFE9YolbqUqzPcgbfsVZ9WIV05FrJa3gISKvuFhFReTyUGvYwQNSr+TRPhT1J5lEUAwfiBiPFIu/IrestopEbjFerBzkLK/7n4oQiqVwud1DsX4pke3PxYBabEF3IY/28+J56H68el/yb6/WE4uR7Xudz6PZKz6Ptt/IPyxF6U/cEv7qvBDefnl+PyifDvK6H7Bk/sJekX9yZQ+xht/sbUASxoflzf4f5Jvit0d5ub+O8tX+Pu3/Zsldtj9dqQsRCYPbf7D9wH+/6P4nvGjJN71/KV4o1rEtIj75HIjznfbHekIe/A3rcsQjGorNBOHeOtsfFl4Hr/90fxXtudWHJW4JEDQ+ShxPBS1NzIjn7HhHuDiYL642Xq4gkaD6bB+0/zXbzBfMfy15y/fRfVGtSJcHTFfLz3K3m9qsBzvmd1a8HzVfjPG75fc7cqKf1PWnPMUjdap/wvh5NdrrQP+qWU/ygcTdK7yI8ilXeBTWzV7gXSh/gacd5D/29y/wwIO8rw/sh1Yu8GTCD4vj4eQPP4tiXuS5lNrwZCyyt0HXg4uQm1XLYr574+Fd5Wk9u/M9KD/leP6hbYHlCzrW03g+4ijvz8/Vx8meH9bH8zUdW2h7PojL2C+Km0/y2vP/JK9Fu/z8yQrG+e9b29OO/kxPViOPLdu7jfvrWB2y86GW/6W/X/S8d8yP7Hyurj/mo41Rfch32/3bMV7rXUtP+P7d+XTdb1hsPKwfAPJb9kQAxduxTDeo/8Z4/rBKssYFrtH9GaxqieqPNa58TlZAi/H45pPo82ChtLWNbFzxaJO1G/ORfKYbjpwaPpMO/e3NF9K/j/XFFp/y8NrRbSYjxjvDqPiF96f1oiunmiUd4or49rBu3DxE/KJyDAtap81sKmjfpnX85+76u9RH5ZFcHnU/c7eQzVeUGjAuqkmaLzgQxZOuZ+VCi6z3XeX1zGpvD4Wvlq8/1DUVzRcf+KjWjagxgbuqP9+4+qZaATXzb6vbW8oPTps5wvfXvOB3EZ4wDU/jVqyzXfgb9L0u4mXcz2bfBlesdJsfwPzhbg3kmF9tfQcOxehWMcBdOC5LEnBmiiVoY+AquqERVeSU0+7O2FQB32Eqp21PiGYFGZQXOUvuhUyRJ+PMqbBXPFY+adVQ5cKNqY5xZGbwVpBlPRSJ2tUXmasZQ7CSm0P1hv/EZPNlbY83/s6VTHIf7IQ/13tJAJ0yW/ipFmlPaTgUVwmForJPMRVDOl0KXtnXEeWc1tp/06C49EnSaIm7tu76x6IKVBiwKyyF+BK4ScZQK5A5tTEtNMvMdZhdfanMYP9SSFYaS9mNdbsJ+pcZvt/Xp8D3x3pgiV8zA/jbwZBl5SFcuwjaFLBvR7n4BWzDUfSOy4ciFmuRmrkr38z2Dhx2zWSdEHhU4jQedj44hlErXZcCIWnT+rfnznXZQY1xPralkUsuM1g6nfzGbOPd6GOoAsGTu5uDnAeuT7yoVwq4l7ZCVwWMyD2CZAqNdywqnBP1l14K6ORaN+mSTk1jpAqp8KTji5Yuma8s2xqFpzPttjQSqFau9AuKvJRDqV+0ZW38HaJiQaWzMbbiosLVGzNqtUfhEQszajry3LFIFCrP+JxRCcKVGUEzaga/ppPl075OzIF1jKQWLhX3we7Hqki5p+uhoN4mrlWuU9vbW/LUh6YA1nWpDo6MLbNa56ltmRiBFvgWNbvUInZz2M17JHmecHvvBkRTFbArn42kevZbf6cg+ZBWGOCd1iiQEcNh8fHuYE0Q5tD2cY05DGNYa07uTD5s+FjjKu1hrOfdsJE+nJUt7EQq18EqzsUhzbBBFK3zI1XbfIN3a7WXHryXirW1HBhwjKKww07vcjWvVKe0yeWnWV24NhGvG1kv9sPM+pG0oLRNboab7KUnN/9MapfOvW01R37unmu/gFkVa3bYubPg8Cbd3JZmmPXuEb90t452OxVOmeZp08Qjjn7pVhrSI9f2Dq1V7zy/u1syqXMAvue9mwJ29e72DtzAtDfLxyeegV2twDpjPN2toe/O0XNJs1K+Mu7WbjX9O6tPy5qtqDwjmNOtaqvzbL1uad5e+MPZrJjOc3y7Jap7YWZEMOZL4VJxaxTYK3OnrJnVUqCwbCkouaaibd3dqWUvcbrrgn7E+fPmfIeGDS6aDeM7j4lQ23oYRNGspPIwCqmZuT+QDr1J0KHKtiqI0DkN5LS3znO4ni7hiwKOr6lGVAzozfgUlBF42FI1Kl7kYUuGJD7ZIm8VJBnH1YnNqlkGD3G4mEbDnWeb+XyHceEXA3K4b/jFCJ6Gl2KzkpbBPU12H3L5DgeSY9H7YTBst0MkGy1MtLY9/+lbqzEZhWt2x02GKXaYJyPaEqZ1NrNWJq7xSNuloMPHMh+grOmEyXdcy+rNTO5+tKJnnXxXee5QsrG8DYOm5sOLG0/6sgKCyR11mjXpntwRuxnuPZmj2oKNR+ai/mYt5Z/ZrUuFag0bD8Na9wRCn3EI71CH8li+Y4qijY7Ezgddz/R5dKQOLz6Mv7TarTl5TmNVUG1OZN/Vovf05Kzl5URO7DdgMz9fsujXGlYh8B0aWqN90rDhqN+hoXVrJw0b8XrS8Cmy36ERP6hxNQsXC/yupu1iBeHVPF/Kml1ODKYweec1pirQNi9VSbKTaRjFumbNiffEntxsL00e8p4N/SHrsdvt2zsQU6pYJcBpmLRN4di0CTA32bgnhwna2cDmyRh+NlbFvlhgWbO1N5yDx7dbvejkApHcbLooM/afnedfFMiFyEZh3D3LaRq79UR80ibeKejQ1oZVZNm6RM2K8N1SENhoN3aFi2Up6IhhBhNytlHPPKk2Z/M5Cq+SUXNnwQO0FJJ5yATJb/LLUAUC/ZeCIChLgdrHZCunmUy4efa2f1GgxHa2gsGZEHd9kpBeFAgQ2c3w5TxwT5gcLSyI6I7mYFPAGWxeCj4AmDyzNK0NNY8eebadfokY6RZNxiodE+1SMnT6mdp7p6CDZ3n0SLJe2oOLE5M33+toNTa5O6oCcU+e3VlfsAGKq5PXVzJAmMx6j4oO1rNB7osCPpIB5oN7hO2S8aEKZDWSzf4cFROqqegtOgpavmSzSgbXwSTvS8qFISkbfMeVM7uRQDAFWiWzrWeF4I9EH86bjR4VdNRzQXQ6WbvsUTAQT8E2X0FIPhotexSEvqJx0UdBuGIpCGA+CvpLT9L2626FvRSHBpiDUyPRuoSMgkZgKRRDRckYx2576aDQ9I47K2in2IOCtfo/K2SzfKhQNAl2VtAjelT44LIayHlWUMtX8VKM6erDsUJ06w3GeJef2AGiEH8paNNn7oIfLbe4jyj9gvErD0bAyktGQYdsWtsHtqxWDzA4eBjmvhUMXK0t+WB6aLdsFo8kt7aKgyd3Ge9+ZM5wmG+Y8S50pydjX2PPrXHywXNAiTEls7+J8RtLrCX8XsYoGEwFMRrS4D5uyW7ZiH2CkrUND+wdWVvpgC5ktLYVE/mglgXpE/tGRSPvDDYoGrB15rJFxZF2owNYH5sv2zlycT5Ux+9ldNkD7SDYGB2ee2Hs2l7R3gabt17x/AYFwTpfMdbmujPLNFjbjYKBoAXwnQsejRvceTpXsLZR6fC9tIw3IW4ZrC029500qnLnvorBmGgB7aHVdPSAEaNNJT3QLH3K9UAc60qe+FUuz33BruTp/rXK0cMA9yt5uq9dviLk5c/PMZPth8ZFb7Y/N32A33eoPOFjwYjACe2/Zah34zLcb8J42o3R8HmURh8P9irb36cUe9BQqQWEPyz5uKfC4/2ibSgmAjjB2mJM9IeDpoGfjfW+7757JvTf3adR5Xl/ar0Kz7kJ6k9WnkMQ1J+v3EcpWtt/rsXysWjMS4naRmlzBdD/0aqnirCngfq7wgifX+K13YiS/cmp8oh52voUpDgm9U8qc5WSjbHLuB+SvW/G9bS2TnswBOVt1D+vCVE2y1dXHh5qbdA26QLjF4lHKo+LL0qFrIe+tApDVu6hURSmqYc+2pqeX/LUMMDaeteI9qfa2LuI/rnV4ix57DOrRLfKfZmrnS+uzzBq0i6jJBKaxps1oL/dbD0DzhWwzFHlAdddkfUlT+lmw2eejYjf4D8Cnham2VgyrvD9OzSfWOYBHxPUcZONqIRa/YcyuUzW2iAzYcaLxifiRdECvKVA/NaloI3W2EOJXj89kVcZo8Z4ZeJs3j09uahCYoVuu4husWgZpsJT2HcjIdlHg5HcpAenDKRSRUurFS4KjNlq8TnNvBQk+fgcmvNOQcCXwvUPsehtXLjL1m6GZAp03KL1CFkKFD9E490favGjDYYrjDhFm0xZuKQ7Wub70E/AM0xLgUDU2NQrLZxbj1YaUzi3vtNq1kSB4ujYNZDbE0f4F7RjwSG9aRMMC7Pio3HgNp2RtsawrZHR+Yp+W2U2xjYlq2Qsh45Wa1kS2yUrFSuJH2ma1UjI7loKAuGXiGzHaB3MCvuQDmqUiNZ7owLypQOStZIx+0vANEqy9p15Mu3CgPM8mWsS1ZPMg6lUUfkBmVu8e6yZO5MikrbLyNwUMtktmhnd2+Gjt1OiZU2aQM0Vm4qkrABr5oxrMvLibmtFy5q1k2TO/OGs9XDmHN5S0JfmM72jzq4KeICsn0COWEqcrMwq8/ygHahKhycurd+ZSFNAWp41UUgTXYfnxJEXBSqoS0XBnT3UlL6D1ccdplQ8m/w+FLiNeypK4UmdjYD1tU2NiU7F2h42pha6QuWUrY1eScxgvlSgoDVZYeMT93mnICfuaXjeKmRVoLg4FWVGpYh+ayrKL06ciUo+IZFD6eQj3ybvVp9BN/jEVRsC1TH7vymeURXIX0rWVnnzvfiRqilQsUeqar0jF+/vRu6ySocbyBrUxMMNZKDVjuzokZqa+8i9T1NTotMKZwlm3N2voyqg+2NEm8gDUlOzzruRt0aziV8BI/bUbaQht49JXSN27sG2W2Zrj2jiDqSuNxzXJe27Q2cS4Vno6jbwDKD9v3XGB/79oV53R+x2U/mtRzqtj8U+DXP7yWYEVH5+a1tW0W/L1tWSO49kI59wL+kcDBbDmznbDB3ORWcjCzGXLVuyLKNvvuS7Pg+WOtnMAu7mnZPP4COjlY0Mxj2BcrI7HHMd282XKxzhtt3iV2c4EsqTsxYuRpxJtOQFPOeZ0dngP+5Xmq1ImvuA5KL7PzKX0NxrbjifL2YcY11n1fg38H6rSn7g3FE2V4K5DLnq9+LcUW5KVgn8veyW584w2WaIc65pl4xGkacbO9tMBwZpsnUnDBjP5a5oXOD9MNRt4og0GzzINelLXlrCBC4InIo8BM6NW0tjXp9iKBnnBktUf4D7hpbkM77J3pak/gy3rC1ZyecBA6BiyfrDTHBLjnOnvQ2hq72iyKF4bMIz5aueRwZxSrVpF5gZLDbz9MAdqJp6jGivivWyighNXP193A8Xz0/JqKv1oQzF1foTMH71fem+uNo/xM0pVcnh/1/59Q+///Dnz3/9y0+//PrrH39+/fKPz6///6cvXz///euXf/724+M//fHzD79/Xv/2Pw==);lineShape=1;" parent="1" vertex="1">
          <mxGeometry x="590.1768326637175" y="642.5220891905301" width="514.27099593714" height="266.9779027252007" as="geometry" />
        </mxCell>
        <mxCell id="x6xNddkN-1LruR_klxKF-1" value="&amp;lt;&amp;lt;Value Object&amp;gt;&amp;gt;&lt;br&gt;Descrição do Dispositivo" style="rounded=0;whiteSpace=wrap;html=1;" parent="1" vertex="1">
          <mxGeometry x="940" y="553.62" width="120" height="60" as="geometry" />
        </mxCell>
        <mxCell id="x6xNddkN-1LruR_klxKF-2" value="" style="endArrow=diamondThin;endFill=1;endSize=24;html=1;rounded=0;exitX=1;exitY=0.75;exitDx=0;exitDy=0;entryX=0;entryY=0.5;entryDx=0;entryDy=0;" parent="1" source="SjoaXMamBfVHpwQWyRi_-7" target="x6xNddkN-1LruR_klxKF-1" edge="1">
          <mxGeometry width="160" relative="1" as="geometry">
            <mxPoint x="860" y="535" as="sourcePoint" />
            <mxPoint x="980" y="520" as="targetPoint" />
          </mxGeometry>
        </mxCell>
        <mxCell id="mxNDUzvt_08ChQ-QnTHy-1" value="&amp;lt;&amp;lt;Value Object&amp;gt;&amp;gt;&lt;br style=&quot;border-color: var(--border-color);&quot;&gt;CoordenadasElevador" style="rounded=0;whiteSpace=wrap;html=1;" parent="1" vertex="1">
          <mxGeometry x="798.46" y="18.049999999999997" width="130" height="60" as="geometry" />
        </mxCell>
        <mxCell id="mxNDUzvt_08ChQ-QnTHy-2" value="" style="endArrow=diamondThin;endFill=1;endSize=24;html=1;rounded=0;exitX=0.865;exitY=-0.003;exitDx=0;exitDy=0;entryX=0;entryY=0.5;entryDx=0;entryDy=0;exitPerimeter=0;" parent="1" source="SjoaXMamBfVHpwQWyRi_-17" target="mxNDUzvt_08ChQ-QnTHy-1" edge="1">
          <mxGeometry width="160" relative="1" as="geometry">
            <mxPoint x="725" y="125" as="sourcePoint" />
            <mxPoint x="870" y="124" as="targetPoint" />
          </mxGeometry>
        </mxCell>
        <mxCell id="94AGD73uCgYmC0u9_zrS-4" value="&amp;lt;&amp;lt;Value Object&amp;gt;&amp;gt;&lt;br style=&quot;border-color: var(--border-color);&quot;&gt;Estado" style="rounded=0;whiteSpace=wrap;html=1;" parent="1" vertex="1">
          <mxGeometry x="16.75" y="593.24" width="120" height="60" as="geometry" />
        </mxCell>
        <mxCell id="94AGD73uCgYmC0u9_zrS-6" value="" style="endArrow=diamondThin;endFill=1;endSize=24;html=1;rounded=0;exitX=0;exitY=0.5;exitDx=0;exitDy=0;entryX=1;entryY=0.5;entryDx=0;entryDy=0;" parent="1" source="mYbbTou23b90Vkrzk86E-34" target="mYbbTou23b90Vkrzk86E-37" edge="1">
          <mxGeometry width="160" relative="1" as="geometry">
            <mxPoint x="360.33000000000004" y="818.52" as="sourcePoint" />
            <mxPoint x="263.33000000000004" y="898.52" as="targetPoint" />
          </mxGeometry>
        </mxCell>
        <mxCell id="94AGD73uCgYmC0u9_zrS-8" value="" style="endArrow=diamondThin;endFill=1;endSize=24;html=1;rounded=0;entryX=1;entryY=0.5;entryDx=0;entryDy=0;exitX=0;exitY=0.5;exitDx=0;exitDy=0;" parent="1" source="mYbbTou23b90Vkrzk86E-34" target="94AGD73uCgYmC0u9_zrS-4" edge="1">
          <mxGeometry width="160" relative="1" as="geometry">
            <mxPoint x="218.33" y="648.52" as="sourcePoint" />
            <mxPoint x="98.33000000000001" y="788.52" as="targetPoint" />
          </mxGeometry>
        </mxCell>
        <mxCell id="94AGD73uCgYmC0u9_zrS-9" value="" style="endArrow=diamondThin;endFill=1;endSize=24;html=1;rounded=0;entryX=0.5;entryY=0;entryDx=0;entryDy=0;exitX=0.5;exitY=1;exitDx=0;exitDy=0;" parent="1" source="mYbbTou23b90Vkrzk86E-41" target="mYbbTou23b90Vkrzk86E-21" edge="1">
          <mxGeometry width="160" relative="1" as="geometry">
            <mxPoint x="133.33" y="788.52" as="sourcePoint" />
            <mxPoint x="86.33000000000001" y="850.52" as="targetPoint" />
          </mxGeometry>
        </mxCell>
        <mxCell id="94AGD73uCgYmC0u9_zrS-12" value="&amp;lt;&amp;lt;Value Object&amp;gt;&amp;gt;&lt;br style=&quot;border-color: var(--border-color);&quot;&gt;Percurso" style="rounded=0;whiteSpace=wrap;html=1;" parent="1" vertex="1">
          <mxGeometry x="412.22" y="375" width="120" height="60" as="geometry" />
        </mxCell>
        <mxCell id="94AGD73uCgYmC0u9_zrS-13" value="" style="endArrow=diamondThin;endFill=1;endSize=24;html=1;rounded=0;exitX=1;exitY=0.5;exitDx=0;exitDy=0;entryX=0;entryY=0.5;entryDx=0;entryDy=0;" parent="1" source="mYbbTou23b90Vkrzk86E-34" target="94AGD73uCgYmC0u9_zrS-12" edge="1">
          <mxGeometry width="160" relative="1" as="geometry">
            <mxPoint x="410.48" y="708.74" as="sourcePoint" />
            <mxPoint x="450.48" y="708.74" as="targetPoint" />
          </mxGeometry>
        </mxCell>
        <mxCell id="94AGD73uCgYmC0u9_zrS-16" value="&amp;lt;&amp;lt;Root&amp;gt;&amp;gt;&lt;br style=&quot;border-color: var(--border-color);&quot;&gt;&amp;lt;&amp;lt;Entity&amp;gt;&amp;gt;&lt;br style=&quot;border-color: var(--border-color);&quot;&gt;Utilizador" style="rounded=0;whiteSpace=wrap;html=1;" parent="1" vertex="1">
          <mxGeometry x="-317.5" y="435" width="120" height="60" as="geometry" />
        </mxCell>
        <mxCell id="94AGD73uCgYmC0u9_zrS-22" value="&amp;lt;&amp;lt;Value Object&amp;gt;&amp;gt;&lt;br style=&quot;border-color: var(--border-color);&quot;&gt;Email" style="rounded=0;whiteSpace=wrap;html=1;" parent="1" vertex="1">
          <mxGeometry x="-317.5" y="320" width="120" height="60" as="geometry" />
        </mxCell>
        <mxCell id="94AGD73uCgYmC0u9_zrS-23" value="" style="endArrow=diamondThin;endFill=1;endSize=24;html=1;rounded=0;exitX=0.5;exitY=0;exitDx=0;exitDy=0;entryX=0.5;entryY=1;entryDx=0;entryDy=0;" parent="1" source="94AGD73uCgYmC0u9_zrS-16" target="94AGD73uCgYmC0u9_zrS-22" edge="1">
          <mxGeometry width="160" relative="1" as="geometry">
            <mxPoint x="170" y="557" as="sourcePoint" />
            <mxPoint x="212.85000000000002" y="895.28" as="targetPoint" />
          </mxGeometry>
        </mxCell>
        <mxCell id="94AGD73uCgYmC0u9_zrS-24" value="&amp;lt;&amp;lt;Value Object&amp;gt;&amp;gt;&lt;br style=&quot;border-color: var(--border-color);&quot;&gt;Número de Contribuinte" style="rounded=0;whiteSpace=wrap;html=1;" parent="1" vertex="1">
          <mxGeometry x="-197.50000000000003" y="506.76" width="120" height="60" as="geometry" />
        </mxCell>
        <mxCell id="94AGD73uCgYmC0u9_zrS-25" value="" style="endArrow=diamondThin;endFill=1;endSize=24;html=1;rounded=0;exitX=0.5;exitY=1;exitDx=0;exitDy=0;entryX=0;entryY=0.5;entryDx=0;entryDy=0;" parent="1" source="94AGD73uCgYmC0u9_zrS-16" target="94AGD73uCgYmC0u9_zrS-24" edge="1">
          <mxGeometry width="160" relative="1" as="geometry">
            <mxPoint x="180" y="567" as="sourcePoint" />
            <mxPoint x="222.85000000000002" y="905.28" as="targetPoint" />
          </mxGeometry>
        </mxCell>
        <mxCell id="94AGD73uCgYmC0u9_zrS-26" value="&amp;lt;&amp;lt;Value Object&amp;gt;&amp;gt;&lt;br style=&quot;border-color: var(--border-color);&quot;&gt;Número de telefone" style="rounded=0;whiteSpace=wrap;html=1;" parent="1" vertex="1">
          <mxGeometry x="-280" y="590" width="120" height="60" as="geometry" />
        </mxCell>
        <mxCell id="94AGD73uCgYmC0u9_zrS-27" value="" style="endArrow=diamondThin;endFill=1;endSize=24;html=1;rounded=0;exitX=0.5;exitY=1;exitDx=0;exitDy=0;entryX=0.5;entryY=0;entryDx=0;entryDy=0;" parent="1" source="94AGD73uCgYmC0u9_zrS-16" target="94AGD73uCgYmC0u9_zrS-26" edge="1">
          <mxGeometry width="160" relative="1" as="geometry">
            <mxPoint x="190" y="577" as="sourcePoint" />
            <mxPoint x="232.85000000000002" y="915.28" as="targetPoint" />
          </mxGeometry>
        </mxCell>
        <mxCell id="94AGD73uCgYmC0u9_zrS-28" value="&amp;lt;&amp;lt;Value Object&amp;gt;&amp;gt;&lt;br style=&quot;border-color: var(--border-color);&quot;&gt;Password" style="rounded=0;whiteSpace=wrap;html=1;" parent="1" vertex="1">
          <mxGeometry x="-490" y="380" width="120" height="60" as="geometry" />
        </mxCell>
        <mxCell id="94AGD73uCgYmC0u9_zrS-29" value="" style="endArrow=diamondThin;endFill=1;endSize=24;html=1;rounded=0;entryX=1;entryY=0.5;entryDx=0;entryDy=0;exitX=0;exitY=0.5;exitDx=0;exitDy=0;" parent="1" source="94AGD73uCgYmC0u9_zrS-16" target="94AGD73uCgYmC0u9_zrS-28" edge="1">
          <mxGeometry width="160" relative="1" as="geometry">
            <mxPoint x="-260" y="567" as="sourcePoint" />
            <mxPoint x="-217.14999999999998" y="905.28" as="targetPoint" />
          </mxGeometry>
        </mxCell>
        <mxCell id="94AGD73uCgYmC0u9_zrS-30" value="&amp;lt;&amp;lt;Value Object&amp;gt;&amp;gt;&lt;br style=&quot;border-color: var(--border-color);&quot;&gt;Nome" style="rounded=0;whiteSpace=wrap;html=1;" parent="1" vertex="1">
          <mxGeometry x="-420" y="590" width="120" height="60" as="geometry" />
        </mxCell>
        <mxCell id="94AGD73uCgYmC0u9_zrS-31" value="" style="endArrow=diamondThin;endFill=1;endSize=24;html=1;rounded=0;exitX=0.5;exitY=1;exitDx=0;exitDy=0;entryX=0.5;entryY=0;entryDx=0;entryDy=0;" parent="1" source="94AGD73uCgYmC0u9_zrS-16" target="94AGD73uCgYmC0u9_zrS-30" edge="1">
          <mxGeometry width="160" relative="1" as="geometry">
            <mxPoint x="-387" y="596.88" as="sourcePoint" />
            <mxPoint x="102.85000000000002" y="1017.16" as="targetPoint" />
          </mxGeometry>
        </mxCell>
        <mxCell id="94AGD73uCgYmC0u9_zrS-32" value="&amp;lt;&amp;lt;Value Object&amp;gt;&amp;gt;&lt;br style=&quot;border-color: var(--border-color);&quot;&gt;Estado" style="rounded=0;whiteSpace=wrap;html=1;" parent="1" vertex="1">
          <mxGeometry x="-490" y="520" width="120" height="60" as="geometry" />
        </mxCell>
        <mxCell id="94AGD73uCgYmC0u9_zrS-34" value="&amp;lt;&amp;lt;Value Object&amp;gt;&amp;gt;&lt;br style=&quot;border-color: var(--border-color);&quot;&gt;Role" style="rounded=0;whiteSpace=wrap;html=1;" parent="1" vertex="1">
          <mxGeometry x="-520" y="450" width="120" height="60" as="geometry" />
        </mxCell>
        <mxCell id="94AGD73uCgYmC0u9_zrS-36" value="" style="endArrow=diamondThin;endFill=1;endSize=24;html=1;rounded=0;exitX=0;exitY=0.5;exitDx=0;exitDy=0;entryX=1;entryY=0.5;entryDx=0;entryDy=0;" parent="1" source="94AGD73uCgYmC0u9_zrS-16" target="94AGD73uCgYmC0u9_zrS-34" edge="1">
          <mxGeometry width="160" relative="1" as="geometry">
            <mxPoint x="-247" y="505" as="sourcePoint" />
            <mxPoint x="-340" y="620" as="targetPoint" />
          </mxGeometry>
        </mxCell>
        <mxCell id="94AGD73uCgYmC0u9_zrS-37" value="" style="endArrow=diamondThin;endFill=1;endSize=24;html=1;rounded=0;exitX=0;exitY=0.5;exitDx=0;exitDy=0;entryX=1;entryY=0.5;entryDx=0;entryDy=0;" parent="1" source="94AGD73uCgYmC0u9_zrS-16" target="94AGD73uCgYmC0u9_zrS-32" edge="1">
          <mxGeometry width="160" relative="1" as="geometry">
            <mxPoint x="-237" y="515" as="sourcePoint" />
            <mxPoint x="-330" y="630" as="targetPoint" />
          </mxGeometry>
        </mxCell>
        <mxCell id="94AGD73uCgYmC0u9_zrS-41" value="" style="shape=stencil(lZ3Z0iy3cYSfhrcT2Jdr2X4PRuhIZEjmYZCUl7c3YEbPzMns+UDecamavxsNFGrJyvou/+XXH77/+ct3Kfz62y9f//Hlv3/8628/fJf/7buUfvzphy+//Pjb+qfv8r9/l//yt6+/fPn7L1//9dNff//3n7/fkvuf/vPrf+1f+J/f9Xp5xLa1Uvjf3/9LfoT4///hP36X/+ePP73L50f/Vj49Rkb5FEW+FZBPj55EvlaUj0XkSwL5+Kj6/KmDfHjMKvJhonz+9vnjY7TP8m0+ehX5HlA+qnwj+aHvuxYA1r/1xzR52A9LPk+RL/T77VqOl3yG9V/yWd830/vWR+siH+n3q+7/JU/vWx4tinyg9y2P8O3zrw01QD4/SlN52M8t6XoG3m9ruxeVp/Vc2yuJfKf1fC73H5R//u83eVqf8ChR5eE8Lnlb/wHft85rO77Jg32r49GmysN+WPJBn3+Afav95nng+9b26PZ9Yf2XfBwqD+tfq+7/JQ/rv+SD7p8J+60Wf1+Uz49m+5+eJ1/m4w/KJ7X/R/lq+4Hk42PmPyefVR7X5/k53+Rp/4TLfP8x+1bmY6r9j2CvlnxVe55Ifjym2vPM8nmIfIHzVbr6G/Ha4J/k7T7q9DzN71OyP0u+6vvSfih2fiPeL6W6/xZgPyx52W/pujDv5cv1uG/+FcsX9Q8zfa/s/hh+33WfdpEnf7Kka/ne/FVaz+S/T/dpibof1h+k/RD1PC7/HO6jEtSe5MtB/iRfVD7B++Z5Pe5LvsD7LnnxDzP6n3moP5Mvh+6TfNb1IX8g9+t6fslPWM8ln7993+XQ0fo09WfKI9Hvt8v8veQznJe87t8q8oWeZ/m3QeQpXsjl+jwv+U7fy85jQf9hyYv9rLifc1J7VdH+5KT+fMV4IUe1t/U60PfyQe1DvRyQT/JZ5cmfTFP3T70u2E/y4m83jHfSUP+k4X5LXe/3hvZzycv7Nrwfk52Xhvbw9XqXfL82+L181fi3PxKtZ3nMIvKVfr+ofVgOBX1f81f79Qc/yUv8MnD/7+uwiHyh9YzXdnzJN3r+qPZqYDyy3E2JHyf6h0s+ZJGn/Rmn3r8T/bc4Lnf5JU/x0ZIX/ycGfIHYdUMvBXyDfl0Qbwr0CWKzFAfHDEshio/LSZFYzQnlrM5SCEUVKI0V1zWTVWHSIxWNI+Mzk3GvkO0vLM+PPpydtMiuXHxmMp8K6yfoHSz3shQyvUNUZ3q/FdyuS6EOVaD0wlJI8tIF7enaaj2qAu7WYAHKusFht87r597k6TNMDegj34BDL/AlTx7psK/c0GIPSwB3jGjGIwSVpwxYv+KRp/x4JFifflmfN/lGGXU7BhN3dbvi2Td5isiabdGJEXG7dsszYAqYka56oe0rC+XF1h0y9lUd2B1RUobwEeV5Mj6POSA7QqGIUgsI28MHO2cO/vZ4KaLUAGt9ETK8RR20vaNg/zzjqTd5stPZAvSON0fWBNj2iCji0P28PRzYz9kKVpMjDnWItstPEZbeY/lpUT/Ia8AdLwvzST6qPD+POICZ79Ws+/8VAn6QlwT5CkkTeYx6XpY8ZWzS5e895StHTLofcsWMRNIEfG74vZJ6c0u+UYRyxe9P+Y72P+l5X/L8++Xb85LHVXL8IK/77RBB6H2dJ1ZULaDfKSh83/CtfAkYESS9f0u8TsS9Q6P7rRw8V01olYT3b9T9UzJWSK1AVwquZ7xO65s83XdRE7SF93/U+7E0DpiuePxNvuLvi/0pHSsUUQvmhSP6eK3emzxl1KOGPmWg/xNtvw2s8Abbb8+U6if5oPJUkQxqD2vADEnQBOqSp/viWV9+ykf0/60gvOTJngQ9L5UrGhbALPnCzxNUnjLGQQvCu+QI++dOnvwNf56C/kZQ/2TJk78d1J+sFe3Ps/7+Jk/22fdPw/MYNAauHe2bAXaWfEd7LomFOjgoV/tQJyKmoiWk58F+SkTewuE+knizMcIk6n39gnh8sv+SoE3XE366X4bK036Luv83BAblxZ4seapoRy1YtYIZ/qT7YcnTeiZNrjWuICS9v5b8ZP9K5BveL0nv6yVP/km6Tt9TvmOuL2m83Ph+tCzZhqShfyj2qk205+aft3nwP6VA2gPGF1n9yc4Ioqz5rh4P8ab4Pz1dGZgP8vJ9lzz5t1kBFz0f4kfJL23IJ8fXsp4FERpZAR29MMJBz1c/5SvSUHna/0Xjnd5wfxZbn86IF80/LHlCwFrBtg/0lwygseSpAlXVPvd5yI/p931CVj/k6ySfMwIibJvml0Y4/L7EO4Pze03t/5Inf6ArYHkkXP+u8dSSp4qwARDGM0PyIT8s/sOSp/ho2PMUzP8M9a+WfIHnn+qfLHny96YCBgf7k1Pze0se/YegAefgBOUuYWRVoIxRfEKCnwodQcK7WjZUgarmu9BTVYGcAi8ljYPXmhQ3MthMeDlsTK4M5csteVOgwOpVmnpTIOxILPrSM/CXLvrSS4HQL7uOaQr4Haq+9Dxkj6qmgyaHt7Fd1vNNAf37pgHiTNcVca/Q1cJMxrwtBcGQTG4aicOK+pkfaegBWgp0acZnDuVNgaL0OLUsNgteI7tKFVSBtncKtlsLQ0OCZoKXAkYGUVPrs3Kq2cBOSwHRIck+XMVg0aOJpTBYQfCQs10B2L1CVsDiUqAP9yqfvSngSxeFMC0FzCAXO9MNS7jbZzMF/NJVncjZ0WlYXk9JqkAnbrtJUxWozLr9HnskrLsMLeQuBYTCjWvnvCkcsHBqNbh0sStpVRWwdmfJq3koJkatvsxnQ9a9gl3sc2C5Jlv9aykgAtYKkEuBIFC7/jZVATGzVsKeg0u0VoOfnFPLhnrfCmA1HJZ7UrC+m7OCGrLDOwzbGgeFaeb+qND/1F8o4e6lKRa25OlksEiJ5pwwHnDj612BGgqy5mcnx7fF3NCtwC0LEtFMrviXevMO5KwXA7lORkHuLhP7DhRkla5ZuZPC0ChrK1BjxNS62Fmh2ZmmR6pBK8mHVapWGtsK1Hxncdzhw+3Sk780JWOsmr8V4DzUrOmwrUDpm3z3pbkDL5pCogRUUcTeVuAewpsjSl+63phKVGhaZD2c6aWgXuXEKsdSuLEatDX6zW49KPiVhQpDgcRnBTfGqGDNBmeFm61B7dLhbmvAAVoKku46K7ipRIV49+HgiO56mnkCmKFMCnk6KzRbJcpRNitizMlt8fnG8lEf2S7C2TscGuk1yprYWbUUhjsnlCj2KGtg/NA8N8OOrpMTTO6GaAaW3QrUft9vwgHMjnc7cQPDsmYNPluBPpx7AlzQWwpS0dtBE3NiBIvjKGJfCsVWie7ppaCh5UBzv2uEQRXoPPRgTuLA3dqjpVoY1/oqK77H01SoiFdS4k2BIkXnVtkhPpU2PPvTcWt0Y69YCtRO6nQyS4F8je7efcP0aS9an18KdES7uz8Nc2Tdk8wNz0Ov1uPU0CNbClLTWQqUu+9Ni4izYhte93i6Yp9f73aAKm+Nbp5xxTPdPQCvfESH5TUKdnYsBc3CFSYnmlYdKJiQGt79ltHcLwXNwmUMB4bHQBnhVCPaOyTELw0D3Ezu1BpJEeiTORJ2gTWrAlmN4TmygBf7cDMTsM1612S/tRpjovUexqO1FLANyRqtB2dORtEc2WBPYCkIMmwMNDPDEiGjY7L/VSl+U8DeKGNnGg2Lzbu2PFSB0FhLQcLjpUD39DAn8fUT9wrWfbkUEq1S0yzcWjdcVqv4jYKmcjSrsWfuaTMWhL3h6TuY9R6Zd2tX7348O//vFYbGoiOhkzgs3zoSJjfH1LBsRHR/dr3bFPA7TDsPASOUaTXFDZYhsIa1Xy8FQo9vw9hVge6Hafj9znjzpSDwi31N0juYG9o5AF8K2vM/+JGM9KVzSDOzmpnOlaZ9jcs7dH6kcuXR3xQIurCr0fYXKK+xFKSgvZw6uhSXOyWX4kbK0XewtN1SoFal7XR+u1u3J0ur1Ix9oSL94y7MGloRT1w3OF7BAt4OYJIqkBs6LWLfMQutUtfgtWcsQu7IU/ZS4pcehqFM/NJDI5QDiHXnGOSIMs/kTnt0VaC2n2m4ts59w6/63psC3Q9zaq6yTUTmTePubJPfwcldBmJOtoKA7ztCqm4VKBFyo8DR7o0CM9rcKlBZ55X7fCow0OZWgcLjG4WM4cCNQsKmnlsFvONcIV6orD+6lyIWtF+F2acCx0CvdOylUCd6la907JsCOidD47g6EJv+yt++KRBu5kaBuwW3grSTHW5RIzirDUuE2/IJg1TFhrttW7sqHF5a7unKLTLb3H+7NXbPGj+S1FB2HZPvB9neNZ2+g26+yJavq++9FKimOLs1DgZs5N2ewFAFQmJPYwIqXNud3XpVB2Oxm27vMvhMN4V6FkZ5vbB1bwqU/Xmh954KDbPS02q75XCAqhZdCnOwbYxjVgX0KqtidAtzEOxEoymgJ1DUby0ZU4/T2loK5/lmsc2XMCE1jYijJN7expRRmJt1KUhIUzhtN41r4kVv+SnwU3KHic3Y89kr/KZAWYed+3S6A/oLxheQuR63c59GwIC2NWo4kDtfKJZkzoczbaTbL/zdx8yJKWAa25yTpYDJnKHRbq6n/JKENEsBU8DDiE6YWGR07ZzOBZ3EpaCPVDBNsdtUjBuFAOKjabNX5mb00TTvvRQoyhrGd5rZExjVCGeZlm1UTXktBTICwzrolgIhEYZxmueIGN1RjBMmYkizW7CqKhBycxjrUg78SEaLlAOi7ZaCJPuXAj5SVvjFbgXjR5I2q8QAwFej3VOBe5pG0mXdbG38FwQ3s+nXaLdaN/tmv6JHsvb9dLB8lqBNlV/akAjpYJfCBZV7KhTMa/RpnNbszfSpEUrKGHDsDPG31nv3jcAt2i3VsvvoubYrZmYT8VBt1wY/vJgePinIPZ0CJnO6AW12DxI/kvJLTqYGtN7SyHnvpSABR+wYcGyFpAo4b8fnzzQeGNSNI7PxBKOud1ysCExeClKqjYW3RjeC1sLfwaplMWNT4FKQiH23a/I7yFiZmPhMG49zZFrE3jVnHJnnp1vbYTycB2OmnOjBdQt2D6fBnJ+BQIeNgZFyH6I2e1N0VOdP0PQC7fyNzbXitrXNi6BU3RS/LXllBsIAsVvbAxOp9Ko5n8O1Y6MmCl613ZgbMuO0DA/BbL3dRjclDKu6UeEzMdzGvunvk6t9N3qNwBZ38hQsbHlhBsXItmej0sYMXbfwPzIxbvbRKeQYbV4THeV1kB/2PGSvDLHDo1x6UfBXYi+qmHPK9s1GkSV0fnvRRBsT3XZrtD0QYWRNbB/PS9PnP+0H3c94X1hRn9vge9Ybj4uk3ZhTGbCy5XU9Keuy5W3/0Pc15qHIPnVWe84wvW6YOCaW7TYagUcrvcrkb/K8/n9O3ph7Egcp1e0zFUWWfNX7hYi3etW6f0ZYWG8++gX93KahKI9+6U2ZpQ542+b+A/onxtxzdOwlr8nwlO2A6mgT9E+6rs8Bq271n86YasfM8SjTbrA/JMLrhhvhURk7FLPBFIkWaOiFFJl6esefFjPgFTxsXMHBp/HxHemE8VYjl09RukZWBzd02AQ8nqCwMw1iRys2M/ZhIwIqex5D85PxcHSGkf53zOL2ofDO15yUj/kY+XCDT5uhNSN3e/Wp6cY4EWHXp/m7gQM+z1rxcNOdFxMPgafjvqCWbwoIbA/mM/L8vBEUYZcYO7Y7EuQvHKDCQQteqTAC20bMpoKGbCkIhX7iESQjKg4xVUx+jKQF4MQkgsPouBKzuA+jxU+M7BruzQ6uzFh4kyYT0xVLXU/c3t4vsAlY6KWL1X4CukjDUgiZxwMvBS2eRnRiloIELZvihd6haco0cyJtWNonc1w3bB5U5kBk2EzSXVKjVbLcXs6ILR5GDpQZrjAsi7sLj1SkGJqsyIWrGsPmaDDIadiVlTntOwySlysmRIZ1oW4iHFCYwap8XMSeRqaemRtxWjkqN8YGWFPpYRzFNIKjwzyK6QMvDvgGY/jdVDuE7LJAPnMr+sy2vSeDL607vvAUuRs0TjghinSsQ0QncSOKuipQOD+r3kCF80cbFWWIIkQJ1hvMEiJ/qyGKmPXvxS33VOBhSdPHs/KZnka8VpgOfDcLB1U4YPjEapTG36HbhIqGiYMbHOIBFG49D6Vj6WT3PIjCYHSaxaJl4JU1LbQshyM6tJ2+Mm/xHOrC1YAtn9OCpsNki2mzz2tC6h7vSKiHRg+7sjZdEP8FuR9qOfULCOSiHuiCpw3krYx0nJo2rEwIuRR0IkY7gfN1xEg/tWGowmBzPy01NpCkeisYdB4v9qk8CHVyl9HUGKgFTLXMqbu1BYb/TxstfGxhUIVjk4QrHL60KhwbPVTh2EriCodmFVXgdpgYgtZtDh03dxrc1HOnwVfEvQayPd9oDHaPjTq8MS3StGH2jWfxzakmvAesCU8jtTtMj3Dz1w9tCdP6DSOmmV/sVU+FxP23llnrmRvjhlqzzpT102Kznk9XqfSTvIr1nxSCKaAv2vV27zxIfnbrg64YLm4/Tr50493a9CpdCtiAYgWg3tgdMITHrnkcPHZrOia01qZkSaqAl0Sx8ROMstmBUFQFvKytjH7qFs/WispMHNNGcnYekTuzEmB1nhk1bWhOn/yljXNlcG1nWkp0J3q5y0AM2U70soJyffCU8hlsfsChnyTYWAauAE9jIxyJMc/miw6OkYdP02DQwfBxHcy9730Mg7G2O7OWVAFzqN0mrDDccVjH+2Ck1w39SGVUtYW8gzu4RtM01jhk/JuxiXBmbad1gyrgl25ql/Zb0SMZPmBw7+pSqPYXkAam2juME3+PDgNivsNh5n4wD+sw9rXBVe3dWiEEWExwslsrjAuqcuVFKee4DO7kUTNy9SgblX7kolyy4RXs841khHBcN1+WVJnxM3pke2qTKVBX5u5j8Ikd9A5B8SCTuzK7zw+oeOJuCOEq3kB96InbvaYHSH9UBewBcJBHYxSh5e4mG7LukyIa45bMVM4DpL/ZiWsnJJVSh/NM4A3VqqpABa1e7Ex33N69GGdjZ3Sgm5nOXQZGKfRKkn5SEDf0RQzzSUHZzHkUXU/2HQY2M3UbbnmYp9HNDZ1c2+lW+58HVH800lNm3O02Tmxy/PBKGbwpIM3wNPpC5o3ZPDRGu43szdYuNblXohnq6UAS36xz6EDW34xu4ZXp+KSQ7C9Q4NcsAJ+TiYzvSOLJE9h5N1MgSHSrZow5IdUMIfFKUX1S8L+AlNX5Zq4JJfCbezNMA9PuJnYQENPpz99yhZ80nGEdqcDvONzxme5Y4imFdctDf1C4WVf6cndc+qRwy9Z/UPB5AKhwN3HgoOAzDVDhbmoCjda6ncuACneTHw4KbjboQNxOr6AL4nY+xkHhZmuAcb2d8UFZ5tspImQ2bueUUIX3dhIKFRRuZ60Qxuh2mgvZytt5MeSt306kOSj4bqWo6XaqzkHh5qVha9xOBqIr6Hb2ECpYI8BZQSdaHhSMNvhVYL1XKDd7iVKJxcZkv8rQnxR0CALTJ2w0jivQI8WbrUF4hBJv7BKhBYqN5j04TLcTy3Bc3t1MNFS4m7pGeezbuW4HBR+iRn2yt7PpyA/Nd+PBqDCaq7YcHFzjPcHPbCvF+Llo79NkKr9sELrJk7JeENX3iIMeKVmSbPI0yDvrTWFWDjZQY+AtuhlTTIHsUpo3ITsZgWSdHHPgbt1TOW1OCU5HNRKiF1vsvYKHWQyGWQrJsjnk8yWDAe7UCc9fTaZAhmx3wllyhvIUqdi4i47JymTkaJOz/cm6r3eSjBSSmZmGmZDkcxmYS3/3g9okFHzpeDMHl05cCuYJ8HD4TbFic0roBkrBIsWKJY44zbZWrCfEqVX5XePm6dme+CZzH62CNwvipGLXuv/M6KxHD5oyLmt0I5AZL9SsTMM9CrHaPc38hdEvRe6ziNV8De7k2DQxSRWoILcUtOoS8cqK2e5p7jCL2SY0BWyrix5lMe1XTJoO3QU5+g4OReBZjTHa1ASeuhaNIXEXxWlZo16KY2C9OQY9QIMvlKUglm9z9RHYwSZ2NIYNWi8xj4wyUNhg5n1jMR5MojR03w2etWRkirtuS6UH+wCHLlw1L4Mhasa0O5hO1Xz6jeugvKxiu5Y8OUkWAgzGkvvUmoi/X23/BESEVo30Brf2VYOmMXd+0fJy5+GPFp8fUGA2jfKASyuaYXgRZt27/no79YaXfjYkXsMr3LhvOheWs6FG2WsxrpA9BoNiIz2/PaMPnw2fmXE9kyZhO5PB2K3U+bJP2qDSI55f4wXujPlIel4638NJcQCNe22TkfdzQS8p91AbuH+i7uc2cNxr1Oh9Dypl+ajy/PvyfU8Ids1Btob2MKqz2HjqV9T66JJHT079gVYOvy8N57vvgDwUGz3CDblRuaJawvMbtETdmJjDsJstYsOLpVpaROxC0ELTHl4B39dIUiufr6Ao4zrxvgsKlK7sghpGoHYEzgXdD7UjVCOoPakNe2+ClnMq95RY7bEyANMYw2tBnz5oI2flkXfWS3KYWHEnT0BeSxvszjv8Xvr86U+uT8R6tK9/xPMe9L6oEe1tUHuyh2Hg+mijYcD7KFjf7UQUjnEWL3lqmzFak8KgHatkFEa+Bk3clo5lt6D+/5IneIzZn93Ti+dR/MPSMIEZtDZUKtZVDAS15Hn/iD9fnmwin+4XWZ+MNZKomfbde873o8kT+WW0/RY526SZncLdEDbcu3A8Zd0WeeJ6Rm1vytxPHY3Bnme4R6O2GJw2Mjp6hktG3Q+5oz9gAKDc8PeTzcjgsbDpZvgD7QcrTm2uEJQXwGrm+MuSakueKC2SFi0zk+MmG0XB58tGcmYeFmP8SDlivjgZDUngMpaRTjGuKOl+S4caraIoEvuHFi8fyKedq5fb4rIm7BOjiw0rnDoieS3/kBgUbvmNxHWZbN+LySadG7fgfW3165QxPjV4d2J/zwqIiVvXbUBUipi/sglUiYmvqo3OCGg/q/H3TYzXrPV0yZN/3jTeiYPRkBqv7ckFhM/UwmEcmG83CpT4ZNv8IK+kjoc5B3rfxcbdL3reXwWyT/l2eZ6K8YLzM1bmYtD6duSh5lPz/7Ewf4va8yWPBUYjNtzFNHI4LMKOPLRkKUjKKGaksIzms0ZmQozRRijkUyVMUJkx460ak4a1kTmx1/9WOtTEtedkJOmJC73OCs+RbTQk3SaNPVRVqyrQ3RSN+DlyJ3K0SQcxIBBoH8aqCphutdkRe//SKhkZ8lLABKo15TISNRrBEvddRiOF4OFOcVotnJ9/WmM0ooGTN4NjwnVHiMq2jAWK6NNBKAHsHjt3cyVjuWPKre2h6TQRSkDuCpdUNLBDblfoksijg18148EjApO1QzcG8hgrZuPvZRyXzMaxb3D9fSKGS9aHz0NI13YPKo/704De3Iqag75vRRjfkh/6PHQes1VACmMjLeJm9vkl31SeHJacNYIuvD7WxV0QQLHZRCWjhQWZbHSKGRPq2Zr1MybIc7MJmQgYyc0ibkSwZGPP5+kFe8aoPg+upw0zyxjwZbtfMp7HPC1iQoc0T22h52klxYmzOaAM6tZwh36J6r8mxE8Xa9BPmDAoVqHmoZjFKvIRu6KKTT+KWODyBoqI910puv4RE35LXqe88fpXi4B4/W2odOQEQNOKfER7UppPS6KEazEaUXZZS1d/L3AfkY2oC5gwKHbeAwYaxbgX2CEuBqUPaH+K+ZMB/YFq8SQz/C55sScBE8zVKgjc8lqj+oeM26xJp9Ec5SWEOchbBvIoLxmqg3zRDPZhfWyI71FeMk4H+ebnBZ+/aYUl4P1Vrc0oIOCxDvU3AqY7qs03DdiPUOfN83A7c7D9Q4DKZz7/7XxRy7chRvg8NpsqEZgywXIvAeO7ZiMiAo6LbdbvFLAg2bIi0LjA3ooiBALeRxuPpN+L4sFWNWMZMA+05G3/UwK12X3H86ubDT0I6P8363MKTA5hk24D+s+by1TXn+K7ZtNn+D5txm0aeFpYUM4Q9h961IpVZNogy4dEnm6VLBmK8f6SF3/mOD3Op9kxGY5WZDD+7XYfJfQ3usWP7M9v/K3GIwdCoqq/j9PsilX0TvxF0tB5mGZ68/s4be7m+cn/vFsfnFRdbDY8T1MzxDjzMHaLR5hEt9sEiKN81PzA4XkO8usffv7+tx9+/5e//fjPf/762y9f//Hl/f//7esvX/7+y9d//fTX53/69Yfvf/6y/u3/AA==);lineShape=1;" parent="1" vertex="1">
          <mxGeometry x="-542.5568302200213" y="303.9989755760189" width="473.86606319946816" height="385.0999935174408" as="geometry" />
        </mxCell>
        <mxCell id="uYIZIcvwBOJqq7kDdET0-5" value="&amp;lt;&amp;lt;Value Object&amp;gt;&amp;gt;&lt;br style=&quot;border-color: var(--border-color);&quot;&gt;Email do requisitor" style="rounded=0;whiteSpace=wrap;html=1;" parent="1" vertex="1">
          <mxGeometry x="380" y="533.24" width="120" height="60" as="geometry" />
        </mxCell>
        <mxCell id="uYIZIcvwBOJqq7kDdET0-6" value="" style="endArrow=diamondThin;endFill=1;endSize=24;html=1;rounded=0;exitX=1;exitY=0.5;exitDx=0;exitDy=0;entryX=0;entryY=0.5;entryDx=0;entryDy=0;" parent="1" source="mYbbTou23b90Vkrzk86E-34" target="uYIZIcvwBOJqq7kDdET0-5" edge="1">
          <mxGeometry width="160" relative="1" as="geometry">
            <mxPoint x="345.48" y="500.24" as="sourcePoint" />
            <mxPoint x="425.48" y="520.24" as="targetPoint" />
          </mxGeometry>
        </mxCell>
        <mxCell id="uYIZIcvwBOJqq7kDdET0-7" value="" style="endArrow=diamondThin;endFill=1;endSize=24;html=1;rounded=0;exitX=0.5;exitY=1;exitDx=0;exitDy=0;entryX=0.5;entryY=0;entryDx=0;entryDy=0;" parent="1" source="mYbbTou23b90Vkrzk86E-21" target="uYIZIcvwBOJqq7kDdET0-8" edge="1">
          <mxGeometry width="160" relative="1" as="geometry">
            <mxPoint x="206.48" y="739.24" as="sourcePoint" />
            <mxPoint x="110.47999999999999" y="883.24" as="targetPoint" />
            <Array as="points" />
          </mxGeometry>
        </mxCell>
        <mxCell id="uYIZIcvwBOJqq7kDdET0-8" value="&amp;lt;&amp;lt;Value Object&amp;gt;&amp;gt;&lt;br style=&quot;border-color: var(--border-color);&quot;&gt;Nome" style="rounded=0;whiteSpace=wrap;html=1;" parent="1" vertex="1">
          <mxGeometry x="222.22000000000003" y="930" width="120" height="60" as="geometry" />
        </mxCell>
        <mxCell id="uYIZIcvwBOJqq7kDdET0-10" value="" style="endArrow=diamondThin;endFill=1;endSize=24;html=1;rounded=0;exitX=0.5;exitY=1;exitDx=0;exitDy=0;entryX=0.5;entryY=0;entryDx=0;entryDy=0;" parent="1" source="mYbbTou23b90Vkrzk86E-21" target="uYIZIcvwBOJqq7kDdET0-11" edge="1">
          <mxGeometry width="160" relative="1" as="geometry">
            <mxPoint x="223.48" y="819.24" as="sourcePoint" />
            <mxPoint x="113.47999999999999" y="883.24" as="targetPoint" />
          </mxGeometry>
        </mxCell>
        <mxCell id="uYIZIcvwBOJqq7kDdET0-11" value="&amp;lt;&amp;lt;Value Object&amp;gt;&amp;gt;&lt;br style=&quot;border-color: var(--border-color);&quot;&gt;Nº de telefone" style="rounded=0;whiteSpace=wrap;html=1;" parent="1" vertex="1">
          <mxGeometry x="89.52000000000001" y="930" width="120" height="60" as="geometry" />
        </mxCell>
        <mxCell id="m5AAEWm7pobdvCK_mKXY-8" value="" style="shape=stencil(lZ3J0iRHboSfhtffYl/OI+k9aMbmkDYUm9bkaHl7RYhTldXuWV+wb70AWZmxAg4H8F3+2+8/ff/bp+9S+P2PL5//8em/f/7hj5++y//2XUo///rTpy8//7H+9F3+9+/y3378/OXT3798/uevP/z599++35L7T//5+b/2E/7nT706P2LcWin875//kj5G+f9/+I8/5X/5+ddX+fExwlfy+SMklM9D5NNE+ajPLxXk+0efIt/offrjcZf8vz7onXxoIj87yLeP9rV8+Yg0nu0jZZHP9D71o1eRL/Q+9SMnkW8Z5MvHjCLfab7Wzw+Rn/z8UL6Srx9hgHz+qFPkE81vfgz3JZ8byKePps8v9L3pI1WRx/GMuj7XBNL7xI+s7z/ofcLjvx/y7THA7+RLEfkIzy/zYw6Rz7Afl3yNIv+vf3gnH7LINxifMj6qvj+tzyUv+7fh+iz9o349v+sAoO/t+v79I9L7r+FIIp9g/y75EEU+w34pz+V7yVc4T0rR+e14fi55e36n8Vn7PYj8oO9d+/3r8RyPB7yTD13kI81vemzXSx7HP33EIfKZ1tva70XkK41nfFyHlzyu/7Xf9f1x/Qc9Twau/zwf0/OQn3g+L/k8RT7R89fPJ5Gn8Vzycl/Pxwa9l+8fU9+nw/gveTlPJq7PJS/2SQyPHXqvYAbBUqAVuhRSUYUESyKvGyKpQqZvqGqTLQW69PLzTn9RaLArs50SSwGnoegxuhQGffQ6J2RYI89DfqzjF4VIo5Q+aleFDFfrUghVFejszVHPuqXQaHHHh639okDWaw42D/Fjwjes1T/lG9LjgH2nIPt/KSSYh3X+jKgKNKz7gA6qQCbvvvG6KtCdtk2CogqdfqHpob0UcFjrY16fCvnhd71T0JlefhOcw9sNiKpQ4JjZfk9WhQqHwHbc7Bvo6l+epJ58y3eC1boUggxreVhv9wpRjc2lkOgXgs104cUXHt7DiwIdlXGqvb8UGvzCUkhJFWhPx2HDWh6b9p1ClJmuuPhifxzuLwq0+JaCTtwyQ2HiYlMreyk02HFLQfdDxbV0vcBToeG1uwcxqQJZ2nshBFWgY2atfjGtlgLdcUshyyg9rY97hSd286KQ6ZWSLe+O5tW+b7oqkD+7FHSUOgIo694XAGKvX1bQk2+gyz9vfqDCDp32BQNtmXXBDZWnpTpsDiZeucuBqipPJne3VcQmd7t5Pq2J9jA2X+Q7HC/VNtp8jNgb+fr1+K9DGSEOQzQDWiTlsYBf5Ml8LuqRLPlKLqfaL0u+k9GmHnk6mMJ646xrkcbnCZC+yKN/Yd8bEdJZp1ZUeTRSH4DJU3753GRXqIe3/qWSlaDu0fWEN/Jyvx4g6GTrM7MxqPvxWlFv5MVASHzfmxW1IU060x/n8Yv8pCNdr4B1AhS6KD+6rOeOnlp87I4X+YrPb19fehsCwvcX62ZDKDg+4k5snwffRxCF5YURhGhe4JLvZDHa8+NhfuX9l6OKF+pHiyo/cb5kvyxXG205nd+NFuB8ScQj14cn8m59yvPbYfzFaFryFAKLer/njiEAlx8Pi+Kv7a88MYQU1ZHLDGHZfiwBHT+brxIxRGX7qySEcOPDm3+RJ/shWkRrnc9k5Or9UgreL0HvlyVPIZig90upjx30Rl4jhA3HM+j5UBreL+ExGk95tumXtSPPX+cnjGd4+IIv8oRaPdHLp/w8jL8+fx7GU96/hscN+G58gsrT/RL0fq8R3eeg9tWSb/j8/vX63zFGlBf7uTL4FDVCUk/ns+DP9QB52HhWDBHafbRj4Hz+y/z2R0zmnT0j7zPQa04aIawTKQ3JxmcyrPXA4R7yje/3pPdvixhCSnrftYQhLbOfG9vDWSNgjddPVn+wMcZmSH6rjORrhG3J0/7K6u+3QwjbIsZsr5ZHAP1FHkN46h+1gee/4UxLnuzzoshXmxisKXq+9fBY4e/ks8pjSNci6hH9BZdPuH/v5Dv647Leeka8yOULh6T1fFvydD8WtZc6o61F7YfOUGh5oFVP+YZ4V9HzpHe8r40xtOTpfKvGmBiPHfEOzxkqT3iIMZ76RHu7qv255Ok+rXo+j4D+S1V8acnT/jV8bER8ftPA5pInfKA90LCnfHpwgt7he0XlCa9rOp4jPyy0N/I6nhmjb039wVGQEtbUHhi8H7sy1EZFe7IrvrfkCQ/sGn1f8hPG84l+POUbroeu9uSSp/XQFW8cHSOHwxgxHfGBoRHiMRBfHbYeBuKHQ/2vMXE9GONssH8xlaG55Mlemup/zXCIR8j3Lnnyf6f67zM+vuiN/GwqT+9z8VNeFMjA2vyUqQq0oqOREGdiFyAoC3QpEAa96SZZFRBUC4rSLAWMqkYl5s3MsKP5VUuB7uEY1ZBbCoNfqQl3qzDSZ67SZDZxfCLzLwpka22qhmyGisGJzbwIqkDeTMzKulkKuDSy4gtLgez1zYuwXxj8C8qhqxzzLEqtmA0hmM0pGKqAo1QfC+FFAUGzavPQMMoSny/wonAI6euOaxxK7kqdXQqDvmHcfDQio0Oh1K3AbI+bVyKaTtBgzmQOwEZ7/JXgoz0csoeVXsk4AFuB8Alj0u2ZZuaQRCi3AkWwivJ6JlMrrqSAVwXCZOrNsKKC0ThPCt2IsY35VU/U9a8r6DFzUHBLgxVy0FDlSSEqO3Y2tK2yBTu2ArFjjb99WEs538wDwkXF7riGd9xmx9pH0/2QjQ04G3rwudk3dIQoN0s5qgLFkJaCnnydSQFDUaDZmchtPLelgDSCacPacS2VoEDKVmCufrZvwGQGg4pnZ/Z9UrLrUqDTuxgYOp8zc69Qbr6BopelKj3grCB8oJOCH5Ud77jSlaW8FTipxz+aIJsr4vRUOKSVTCVFbAUiKQXzypiFUKO5NAN3XE2KG0z2o3cqXFIFAl6XwjAFioxVg46XAtl81c3Qwelw1c6lgT5QNfRpKZAft4NJ8gsT6QJLQfDRyfHMOuyVJhIY6tQcxqVAEYuloMfMREpIC2ZgTfRFmzuvEy2yZqyirUConjt+nLnTssbVtgJ9dLHFd1TQXKWJlkDzi33iDXRFol4V4I5rXXnQc2JwsHXNb52Mhu9glL0SrdYdjRqqQPzVNhXQnAzo96AMjn3MwEcvhW7HPR2V3bJuJ3MglsLwK4t+IWkU72DN9GTuccdDoOebSxG/IStQfPB2u0U6D6Z0t1DYZKrgUpjmvNKl2Kt9NOc/LwWJHh/AnN5s8VUEQnozM7RifLd3TZHdGBnNdDePvaCLvwNyURUoM60PO2Y4saY/Q9gvWOWkxef+Q+aozLCJy+hw7CjhVAW6p/s0JJEDXUtBImkblaZXmkqNmEzV6NOyUyOm7/ZpM/2k27xTGBYdIHbNCIZ7BzThloLEi3Y8hOI5nrI80QcaluW4FCjiOIyitUNMcGoMu1B2DIsVZFgHO347JtxVIdE8RPXjRsO0gqWgcd+GPLZhl+KoeGqMqLVARsENNAyr3KFcmjjj9o6My3tEC24mPJfWf8txv/4lwZ4eRuffX8UKsqcH8wlH0ljWWiz40ckYBAEtspEVLupshg6LoeyzkJZG1ohfH7yns7FiBsJFmzTQVIHSfobxwjqDCGttyv3QGV9aCspc6eiWLQWlrnQMZQ/jel3GxDsFQR16Qx9oFF18mz3EvzDsF3BPVw0ndM4/GVUjTb3yyec1USoyXoYFvzYli9aScXaWAs5DU9Shc9bvME9xs8rolZoeM0sBaR1Nr6xt79MrGXLSMwaO9o02VYGYMhcR5UUBTQdL/V8KlEE+zDLuieeh2/JOyI4ew5Y3p7ctBT1bI1r3S0GXd0TLeCnoRweMTy8FMU46pzwOs4yXAs7DVIxsowT0SlPPpcaowzS7tTG4ua1UUyAe2FJQ4nZHd2BabHfDO/QNUZdGazhKm7iTVYFg7O1eGBkbvyGp49e4oNtManu3wvOQjL9d+BeyEbK5ssU042Qp4ExnjXC0xN9gjJCWcD/MoqdGi7jjtn/eVYFY67PcpCUQNjOLwnaVebLTiMdLofArSaSpDgSkloKcS/WQ+m/Br8pu2ax6kFV2y2bVe7oym2JaevtOh4Eb6GIrPRUqVhiZVh9qKeDiawpIVaaFzaY7boeSaJSsZsBSoJyDi3z0VDjsOGMJ14gs1dn0MK4Rbb5plcBqQA9lR9SldOfE6PE0pnA53HEWSC2H/dDVHSgdozTTwgk7GZHmweqzlob+9I7kSvoop1PuwKxULOX8+A3tF1XAVxpqt5aMJJVpEb+S0KWZQwNHhVGHOTRpuUR+JWM9l8ATN5XWvksJ0lE5FZXOExHdHYiS0r0DzdA5FRPIXLxxK1iqNtpLU6+szIzBrWDJ40S5nWa35spnq79SwYDFVrD8+sMr6SixWzanrtbMoNpWKKpwWEuqEDEYfKtA5Z5uFAJmSbtCOpg/dwqU53SjwGyKWwUKft0oMGnrRoG5cLcKFMu6UeDs4RuF8q2jxPl7NwqcIHijkBBUu1UgstCNQuRL8U4BbT5X+Ob9EJCT6ApxInJyo8CJr7cKxHW4UWC23a0CkSNuFDhkfqtA0YEbBY5P3yp848QV9hRdIbNFdqdAQPlFPnoqHAysqYbuoYjoVrDarAd7SUCEyGmbcyq+dOUgvVMQEmPkQOrFfHsoTHZFh9Fm2BO1WuwDcfhptM2BkYFphSs7YrMXCfSSxxnoytns/D7dQEo2DrvGEpk9f9HGL3m0koxp0vgWaepPcuLpbEqYY6rMznLS3gUHYEIsVS5UNqtuMS4ENY1tWtl9ttBV4fktCvgWTtws5kfyFZt1PAtba1mjHxxN30CpyuP4JKvEhWkLM2k4k+ND0ytfMcYTNS0i83VvlXMyj4+lqWYOo0+dLy6ctoMeUmmQmTTDKh/i/hpDWb4JuaLDWF8JcwSH1c5PTLvpGkBPHBm2KsEJk1iWfNDxJN9j01nkQj0FngVpishbHdYbJ/L8Ziu+jp7NMAZ0xP2yeSFSyZZDl8ZZjYjfD0sn5kTz4bWBmWoT/PkEGg+rhBaZxDitzQGut26Z/pELRVjvCy7U2oeOD0N2vStlODAH01IUuZBPb/r+AYMn3XIxAtNUm1beCOhGd6Pbc2GtTeKw59N6sHhUONGdi44nJZZf/IoXeSJ3ZoUCuXDjJkvo95K90ZMGfzmg0ZM6VQF9qp60kkZAGk63ypkBz59ulVQDM4Sjhq0O8kbqDGhvbJKEjj/dp92Sw3l8mlUy5/Fvlv/LLI4ln/V9KOV5MzB0fDD7xSq3BPTvNmFDn0/2VRvmYWOhlM3vkErm6E81i21FBHhbt3YVXNjJKgtFHv+m/guD5ps8ovYJ5da1plwPhkSaxZG5kFurer5xK5lmPR4S4iHNmqocCl8VrafChcab0TcTBsCa9UbjGjVX3cVLntDKJZ9Unvy1lnT9JIzHtaTrmXuBNqsek5HI06xSMVfYWfLea5Tex0r4cI+dZmkDHBdoQe2NjPfXTuPU8cHep8MCd9y7cuh9nTkfeCg1JeN+2Ymu+r2YoGz27bE3rPn7ZM/v5+v8UkLcltder9hownKYEp6HdVjnBU5NNp4mF/r13ry8f6t1Kjn28p2Gh/B8TcVzKBB9J48Z8Tfvg2nSN99L9thdr2PstWvzddyPdp6c9m9WeR4fW89YCPNmvxD+fLsfqRfuzX7H3sg35wnFMO/OKwr0+nnIQSQ/b4/78dvkLUiVuJeyFak4FOa0xDru9d2CdeJAvlqL3kuc8PBmlf8T+svNOjVwumWzXs1cNLAZNZljhC1Zpx48T1pWhlRi+yH7+qH7cduT+v5oPxdlYSbkzDSrOsck5maZPYfCtDd4LPqD3vgU8Zzlj2jvVl4/7Qb/ZP+oG/5J68ESvxmfbF3p/5ELLfQbf5nm14pAMV7XxrfhV23oemN8ack3w08YHzA8BPeLZakEHn/Lxg5oTzbLreY0zF3nQvEoxIeDVh9kBs7GrxTPpBSBHhV/CHifbvzNvpefb/OF35u0k8hhPK1WXED8YeeK6ftgwQArLcfrxwtucKH9jQ/reqP13K1sYsB4XC+Or9J91C3x8oCXVsUrAmYgbvzf5DkeUXV9Il7dbvBt+t6u8Z3AJVu6x0cQ/zf7NiC5shuf5xBPmdq5LyBe1K1SNBOSdnxNn48J1JbvFrCQ9o4PCqUKz4cRb+J3nFhvzyf/dCSPz2L8Mat9Gzk+bnhg5Pi7deLgxoyjOr6NKcTV+gCjPX/Vk3iRp/m1yv+R15tl3EROW7XsFrZXPVWXWbljKH7OVczH1PFP2EhwTOc/YIJR0Pgp48/TOotx7vNVZ/6v4VfT2nNz0/OdfGp4AvORiuGlsF+m8R+4eMjMN/wler51Json/pjwGwsTca3cYsFSPZvPZvyxA19OOrVxHojx8QqPj8V3yiklT/MQef0068zF/FjjJ1TmNTf1f7lw/C7Sa3xLTn1LkrjMfM5uCef8/t0yqTHetzPrpOYE8wOH+gsdiyRtPrDybw/8YeE3DsQPN59ZSiSdkia0EBv6d54ixyUup3cSZwdgTv3gyBac535FNiHmtBA2c+CmxahiOlH1tR364dawus/nZABX+MZfOCY0qMIxZcIVDkkZqnBM+3CFQ2KJKhxTV1zhsPhU4Zh+4wqHxacKxxQiUTgnKbnCIQ1KFY6JVq5wOJVU4Zgs5gqHdDRVOCa8qcIxpc4VDkelKhzTAlXhmHjoCofURlU4Jk+qwjE90xW+cZSOKaaucEhiVZP5W/fDORHXFQ6pvqpwTCYWs+fQ0Hwaj38nRB9+QQKt5bhFhyqg6zXNNeK08RiCGjPnzHR9Jy4HPI0unQ/1jgwPz9z59KrP/VSYXNTGGI55sklpENmucnAoiyA1OeLpnJGSM4WjVDtrT7y8xEffMLeKeRzbjq6qgLaDBe4Lt/SdQ5HiXZOD61mo61kZuzDfpByS5bqCd4Xb+u6C3qaA6V1dV2s52D9d41u7TwX/ggIAEyP4V8nwpwfKkPfsWrJyV8HhHEf10RmU8yTHekCpmkZxKhcB3G59UQW85JryBHZjC1bQluqVL7mqV1DlkpUbKrEyUoQtTsNqd90p2nHW9rZ2RKdvKltxyftdO0smbrAzWhU/rty746b+1+Ss7qIR7sYhymmUhxZ4aRSNyW6WKYN0khS9FKi5wUYNBcXhgpIz64WyiS6Me+pHM9FyZg2ULQU8KrNGNhvXl59JocylgBso2TxU7gqbrGpgZTs06v3QGv9C1NN7E0YYD9f88c6jZAH+driygloCbfA3BA3BN875H2a4tvkY6HcKAqI37qGyoySCOobTL2j94MB5ltYYYGcOwSiNofOwqRFc81V7ukcOpXrN10PureXCbHYEF4kVsn5nNuWwOmyd6fSjW8HhzKPUrSxz5gCjJSh3ximGZUR27i2+SxpHVcCYbdMc96WABbitm9puksJZ0+LSdA6bDDN/NtGD47YSZ+yHxgBVT+9zxe5mCvjR1T6aq2jeFBFvp5rg0k2tc9fTYcZJ5z7su3K6/AIf98Pyky7GyjuFar+AFQSMIdrZ5htFUxj74CLiRXMGO5esHNkKcA/+hmzVrtmqHFnD4ru5Ac10ttrsjDqMbE0mmGk2jGm8W5iwgoa+Il+KSf2HcShWkDRZYDCbeVj27+B0mZH02h1cdnNYU67BhT33JxZVwGMm2ihVvrKM4j44prubrlRVwPvBOvMN9uNGVNbBOOzpqLTywbiG12kYgwuhWPPMwZWi9+ovqnD4Be1UydzF4a2PAxf7CNYMKp7aHGkzWaZXdW+Im7jehNUanZygsNtNNVWgQ2A3tJLeTpyic9MyKyOSuJtyJVWgJOhuQf9dfJ0bi2knsoJgzu4rU1QB6xJYSePJhaK62a2T24l0qzS2wRcutaGl3ipyfXpTLtQuK06vVG+6YmNXO+vSMrlSdPdOxo35v8WaozV08ZdCNgU6ZrpBLbOj7d2zpuhNPr2doz65pPEu0uENoumjk7FguO9Fj2p7z8GdKq2OxhxcyCSosT65X1ubahlfYZh3Ctr7jyOpzXIlJ1MRNhJj7WqxOkC3+2HiYdysqP4VcLtXsE4CV0jvXqFoxO8KGr5TiEpg4hySZlDiFfq8V0gKVs7JVQui9RidWCapWeO807iGm4bPRNSv0zqxMuZVLah4FTi9Vxg3zZIx17hrO7W9IVjBX4mO792p216JXJQdMrFfwPzzetNHGxOCrZ3aZMO15puu73S41qyRoyt6e6+QbjoTE12oRoV050Bwpt41Sybzvhg9Yp/38A07qmlN3In3WIYZGwOZzqVrpb2rduy9gqFqk3GKUhXSPdyKxa2Tg4JVj5kDI0cl38w0KhgoMAcSeot54JMZTCWawTRwx5VgHaK5CWP2frUdD+OloF3fOzrUedha6gg7ZCsjfMXp3ynozd6RdJKbHQIdo8G5Kg9m26H00ZYKODta69lyFyY3gsnZXMWGxka2bPxDe/IcbWlwfeZsLXQnE+KzgwIN7dBkfKSTwtDwwFkh+iiRgoU4Tgp+VB4UrAz0WSHZWqJ5SIZjz4aHwE7EcUcOtujOVDLvlc6lK5XrL+6Hzfq1Q4Cq0+1kyWoKsLyTlZ86OKPRat5vBfjoOJROcThmogUVZ8d7OlpHq6vt1r1C01DTHiX6hmbWfUP/Ida7cwlmOlra5YYd6BeKXewNXcWlcIOE0LBaA8NdGx7O1mgNn69kq3uFpHH/Df/QLyTF4q9y8u8UJLtwVowGR2N4bMwL7NZo9cg3qkaLL9rSKOhaRkP7Z0E/LkY77gtmccRgh3HmVwqGU3BUPgabBy7Tt7tWyLBynaOdJWU4NvFVl4LuBwa+px2tXAlnamGwTQZCeQlXXFygN/JqgnJmuhVq3cEKYqnZMRy4Erjy25c8UgoUzxgTvVxLpF7yGMPSFXQKMOn3joGV06yRyGA3xrC9zTwhFFftl8GXVNf5vUrjv5GPJo+VNrVwxeCei83mt+L6NArv1Vb+jbzc+odArjVH3ywBwof1zh9cGa9pIu84VG7U/bLkEYNR5seOfcN+scIqg7sDVz2iB1dCrlqobAS8Ka1L7mCU1yyiPnE/Fl2fVyn9N/KyPg+kkqKF5HtHwLYYr6wzPqW4Ym9Iwy+ab7Gjafi9gg8cGFwW1+oFDcyihZ83jw7OB5fnhEJrjNMTng938ojemTx3vrBm2p0r4RT1tHbECsdTEsd3wAq/V+nSA4MiRXG7XXqNUDW97w68YXOnr2DVG3nZX7u0Hj5f7J/Nxcb3l/XcuNNT1vuxFTz/k8a9Nr+dfHXjMGdE05LRsJnNm/R83t3hCQpQDHSX9iQ3Q523OvG+i5bTM3E9RLWHK1dyMBbV7sIO56HB0LUhFyfq/qoV10NQOt4hYShYB3auJBOsxXvC/W6FAK+w0Rt5bb8ecT0bklS5M0Kw8QyY02JUqMr+RVBSUJmn51veHK03f/44Pb+rPNnbwbIdOzJXjP9QGL4MSk4ojNYE5X0VpjUaRlAK2ttB099KYRTPxpMryUdlHRfOcIpqLxWuemKF6ApnRUbdj1ec6528FD5nhoHRUDOvZ8OlMod4XZ554lH998x4fFT7OTe8r6N1iq+H8dfC4YWz5a0wOSdEG2x3aIBu99GSJ38hKtqaufJw1PMhcycsfz5XXrX334jTt+yvjQgRwqfBk8The5vf1PH+tUJ0iYMztr9Sw8ql0QqlVzyfo9oD2+Nme0y+t2AoNFmhwYIB5qT+yKFynZFSDgVjktrzu9IgPl/wokOnnqQR+MT4idnzl0X6zl+wmj1kT2b1f1PE98l6X+wbFv0XIWftGxz9UyGNHjqRmf+eTv6szhdXWi7qX0T2L6oVTpvov3hh+Inz26yw+sSCYIZ/RmaLdj2flzzZz/3m+Zi3aM9nfqxx5OOh0JA1Uhtcd8vGf+D47JCQ/QBeAEEjMJF5QzEqBLQU8IqMusfi4Y5J6iRFpnLHpFZ0PMS2s/3CIfJs58QuEkffUGwjNDYUi3r+kfObolWRiBVDN9FKZ8TKtr3lv8aKl8dS0NOoYh+baOGbHeJnnoTgcZE7i0frTBO5tGq0iN4mEdA8TC0aFDmJ5ao9/6JAd8JVPPxFgZz6ZHkEu44jWQlJ3fSlQGHYZA1LY8a1tC/+oQrkqO+b2b4BLSOD7iPX2th3p/0CLb4d/JHLgdsEpabe9D6p6JUspz0mDEclb4TJlbCvQq8vCrRF9w1nZUrpbE1Ty7AcCqEmr2vKHIDs3agjkvyzUTciV5HIXi+fG3bnqHHKfU3SLySraM/VbbIlLkfu2ZotISpyU4SloEX/2RbOFlyL3JYiWxvoy1y5V6jWJ5UrkiwFtQQCD2szAgeelEteadZMmraqXpPjL91SwJA/sOQlU5vjv3kYT4r9L+ssPNGczFNnbDCZ2RJ2OO2jBC2xwfZ2CZaYjvH3Yp16Bp6nS77p+6B/l9QBPqRXWEBrcLzY2IKd4612SjCnv1iAsyOeX4qe1YzPl6JGKhP6S9XcJ67FvOTl0mdibvEaMMj3KE1rlXCeq+fbcLG5JT9VHte/da5kPmuxTqBMZy1TAySNx3+qhcN8qmqdFtnJqUEd8oqpnjVaxcJTUpgAlNzpoCYNUFWMJ1YzrCt2HqxZKwhxvL5mDQBwnY5qRkFhvKhoQL0gH2PJC+BYOJuyKvW4IDRQjWPO9YSrEdQydyK2zlkZk/lr8865OD79pvM14XvdAmAY36nd34es+2rlZc+dWwUARQ+oWudBdoCqEWq5s0+1zhQHPqGlsx/lFeBmvt9UfywhNlYtCS9hPLRO3S+JzzcrK8I1Ze/kcX6t00dCe3i/v3aGOiSAR52vwd9rnXYJ7z3Lrz/89v0fP/35lx9//uWX3//48vkfn17//8fPXz79/cvnf/76w/Offv/p+98+rb/9Hw==);lineShape=1;strokeColor=default;" parent="1" vertex="1">
          <mxGeometry x="-26.214715227063152" y="355.3773656264975" width="639.5022041913933" height="679.3191577933651" as="geometry" />
        </mxCell>
        <mxCell id="kT2KLsUmsknQTW-STnAE-1" value="&amp;lt;&amp;lt;Value Object&amp;gt;&amp;gt;&lt;br style=&quot;border-color: var(--border-color);&quot;&gt;Codigo Edifício" style="rounded=0;whiteSpace=wrap;html=1;" vertex="1" parent="1">
          <mxGeometry x="-11.580000000000057" y="680" width="120" height="60" as="geometry" />
        </mxCell>
        <mxCell id="kT2KLsUmsknQTW-STnAE-2" value="&amp;lt;&amp;lt;Value Object&amp;gt;&amp;gt;&lt;br style=&quot;border-color: var(--border-color);&quot;&gt;Número Piso" style="rounded=0;whiteSpace=wrap;html=1;" vertex="1" parent="1">
          <mxGeometry x="12.67999999999995" y="760" width="120" height="60" as="geometry" />
        </mxCell>
        <mxCell id="kT2KLsUmsknQTW-STnAE-3" value="" style="endArrow=diamondThin;endFill=1;endSize=24;html=1;rounded=0;entryX=1;entryY=0;entryDx=0;entryDy=0;exitX=0.5;exitY=1;exitDx=0;exitDy=0;" edge="1" parent="1" source="SjoaXMamBfVHpwQWyRi_-1" target="kT2KLsUmsknQTW-STnAE-2">
          <mxGeometry width="160" relative="1" as="geometry">
            <mxPoint x="207" y="739" as="sourcePoint" />
            <mxPoint x="240" y="783" as="targetPoint" />
          </mxGeometry>
        </mxCell>
        <mxCell id="kT2KLsUmsknQTW-STnAE-4" value="" style="endArrow=diamondThin;endFill=1;endSize=24;html=1;rounded=0;entryX=1;entryY=0.5;entryDx=0;entryDy=0;exitX=0;exitY=0.5;exitDx=0;exitDy=0;" edge="1" parent="1" source="SjoaXMamBfVHpwQWyRi_-1" target="kT2KLsUmsknQTW-STnAE-1">
          <mxGeometry width="160" relative="1" as="geometry">
            <mxPoint x="217" y="749" as="sourcePoint" />
            <mxPoint x="250" y="793" as="targetPoint" />
          </mxGeometry>
        </mxCell>
        <mxCell id="kT2KLsUmsknQTW-STnAE-5" value="&amp;lt;&amp;lt;Value Object&amp;gt;&amp;gt;&lt;br style=&quot;border-color: var(--border-color);&quot;&gt;Sala final" style="rounded=0;whiteSpace=wrap;html=1;" vertex="1" parent="1">
          <mxGeometry x="394.99999999999994" y="770" width="120" height="60" as="geometry" />
        </mxCell>
        <mxCell id="kT2KLsUmsknQTW-STnAE-6" value="&amp;lt;&amp;lt;Value Object&amp;gt;&amp;gt;&lt;br style=&quot;border-color: var(--border-color);&quot;&gt;Sala inicial" style="rounded=0;whiteSpace=wrap;html=1;" vertex="1" parent="1">
          <mxGeometry x="439.99999999999994" y="680" width="120" height="60" as="geometry" />
        </mxCell>
        <mxCell id="kT2KLsUmsknQTW-STnAE-7" value="" style="endArrow=diamondThin;endFill=1;endSize=24;html=1;rounded=0;exitX=1;exitY=0.5;exitDx=0;exitDy=0;entryX=0;entryY=0.5;entryDx=0;entryDy=0;" edge="1" parent="1" source="mYbbTou23b90Vkrzk86E-41" target="kT2KLsUmsknQTW-STnAE-6">
          <mxGeometry width="160" relative="1" as="geometry">
            <mxPoint x="350" y="679" as="sourcePoint" />
            <mxPoint x="420" y="653" as="targetPoint" />
          </mxGeometry>
        </mxCell>
        <mxCell id="kT2KLsUmsknQTW-STnAE-8" value="" style="endArrow=diamondThin;endFill=1;endSize=24;html=1;rounded=0;exitX=0.5;exitY=1;exitDx=0;exitDy=0;entryX=0;entryY=0;entryDx=0;entryDy=0;" edge="1" parent="1" source="mYbbTou23b90Vkrzk86E-41" target="kT2KLsUmsknQTW-STnAE-5">
          <mxGeometry width="160" relative="1" as="geometry">
            <mxPoint x="360" y="689" as="sourcePoint" />
            <mxPoint x="430" y="663" as="targetPoint" />
          </mxGeometry>
        </mxCell>
        <mxCell id="kT2KLsUmsknQTW-STnAE-10" value="" style="endArrow=classic;html=1;rounded=0;entryX=0;entryY=0.5;entryDx=0;entryDy=0;exitX=1;exitY=0.5;exitDx=0;exitDy=0;" edge="1" parent="1" source="mYbbTou23b90Vkrzk86E-34" target="SjoaXMamBfVHpwQWyRi_-7">
          <mxGeometry width="50" height="50" relative="1" as="geometry">
            <mxPoint x="800" y="565" as="sourcePoint" />
            <mxPoint x="801" y="681" as="targetPoint" />
          </mxGeometry>
        </mxCell>
        <mxCell id="kT2KLsUmsknQTW-STnAE-11" value="tem" style="edgeLabel;html=1;align=center;verticalAlign=middle;resizable=0;points=[];labelBackgroundColor=none;" vertex="1" connectable="0" parent="kT2KLsUmsknQTW-STnAE-10">
          <mxGeometry x="-0.0384" y="-2" relative="1" as="geometry">
            <mxPoint x="14" y="-8" as="offset" />
          </mxGeometry>
        </mxCell>
        <mxCell id="kT2KLsUmsknQTW-STnAE-12" value="1" style="text;html=1;align=center;verticalAlign=middle;resizable=0;points=[];autosize=1;strokeColor=none;fillColor=none;" vertex="1" parent="1">
          <mxGeometry x="342.22" y="490" width="30" height="30" as="geometry" />
        </mxCell>
        <mxCell id="kT2KLsUmsknQTW-STnAE-13" value="1" style="text;html=1;align=center;verticalAlign=middle;resizable=0;points=[];autosize=1;strokeColor=none;fillColor=none;" vertex="1" parent="1">
          <mxGeometry x="700" y="495" width="30" height="30" as="geometry" />
        </mxCell>
      </root>
    </mxGraphModel>
  </diagram>
</mxfile>
